<?xml version="1.0" standalone="no"?>
<!DOCTYPE svg PUBLIC "-//W3C//DTD SVG 20010904//EN"
 "http://www.w3.org/TR/2001/REC-SVG-20010904/DTD/svg10.dtd">
<svg version="1.0" xmlns="http://www.w3.org/2000/svg"
 width="1210.000000pt" height="1280.000000pt" viewBox="0 0 1210.000000 1280.000000"
 preserveAspectRatio="xMidYMid meet">
<metadata>
Created by potrace 1.15, written by Peter Selinger 2001-2017
</metadata>
<g transform="translate(0.000000,1280.000000) scale(0.100000,-0.100000)"
fill="#fdfdfd" stroke="none">
<path d="M4885 12774 c-93 -35 -129 -39 -202 -20 -64 17 -218 22 -227 7 -3 -4
-30 -16 -60 -25 -48 -15 -65 -16 -128 -6 -161 26 -511 -25 -680 -99 -53 -23
-124 -49 -159 -57 -43 -10 -79 -27 -114 -54 -69 -53 -125 -64 -225 -43 -71 15
-123 14 -230 -3 -40 -7 -41 -6 -102 60 -63 69 -74 73 -127 55 -26 -9 -37 -24
-65 -84 -37 -79 -90 -145 -150 -182 -21 -14 -57 -42 -81 -64 -23 -21 -60 -46
-81 -55 -79 -33 -174 -96 -226 -149 -29 -31 -72 -65 -95 -76 -46 -22 -64 -45
-83 -104 -7 -22 -25 -63 -41 -91 -24 -43 -29 -63 -29 -119 0 -59 -4 -75 -31
-117 -67 -103 -219 -210 -390 -272 -158 -58 -162 -60 -260 -167 -67 -71 -109
-108 -144 -125 -28 -13 -62 -36 -76 -51 -26 -29 -73 -141 -85 -203 -3 -19 -13
-43 -22 -53 -9 -10 -19 -39 -22 -65 l-5 -47 -40 2 c-71 5 -95 -11 -160 -103
-33 -48 -66 -98 -74 -113 -8 -14 -41 -57 -73 -96 -33 -38 -69 -88 -80 -110
-11 -22 -27 -47 -34 -56 -8 -8 -17 -36 -20 -60 -6 -45 -6 -46 49 -95 l54 -49
-6 -50 c-4 -27 -14 -61 -22 -75 -10 -19 -14 -66 -14 -195 l0 -170 -58 -117
c-31 -64 -57 -123 -57 -130 -3 -66 -94 -193 -150 -208 -74 -20 -77 -62 -9
-138 45 -52 54 -77 45 -130 -4 -20 -9 -87 -12 -148 l-6 -112 55 -41 c41 -31
70 -44 115 -52 l60 -11 4 -59 c5 -64 28 -99 94 -140 46 -28 147 -154 189 -234
28 -54 38 -86 42 -140 3 -38 11 -77 18 -85 7 -8 24 -37 38 -65 31 -59 68 -88
117 -91 53 -3 237 -123 317 -208 71 -74 93 -116 93 -171 0 -56 27 -75 107 -75
72 0 152 -21 243 -64 69 -32 119 -33 179 -2 117 63 291 110 481 132 54 6 158
-17 329 -72 60 -19 81 -18 138 7 26 11 120 47 208 79 240 88 266 98 320 124
29 14 95 32 155 41 58 10 130 21 160 27 30 5 89 8 130 6 61 -3 84 -9 124 -34
53 -32 111 -116 135 -195 23 -78 43 -110 89 -136 52 -31 96 -28 187 12 58 26
60 26 116 10 63 -17 103 -13 134 16 24 21 31 18 125 -58 28 -24 57 -43 64 -43
7 0 20 -8 28 -17 17 -20 52 -178 43 -193 -3 -5 -12 -46 -20 -91 -8 -44 -23
-95 -35 -113 -27 -44 -25 -91 5 -148 32 -61 32 -93 -1 -114 -14 -9 -32 -30
-40 -46 -8 -16 -31 -47 -50 -68 -42 -46 -41 -60 8 -168 60 -131 96 -176 402
-492 97 -100 158 -214 176 -327 9 -53 21 -83 56 -136 51 -78 97 -187 115 -276
10 -48 11 -71 1 -106 -7 -25 -12 -59 -12 -75 0 -35 46 -142 91 -212 34 -53 35
-63 20 -206 -12 -112 -21 -133 -82 -182 -22 -18 -56 -57 -75 -87 -41 -64 -99
-233 -109 -318 -3 -33 -20 -98 -35 -145 -76 -225 -30 -504 104 -635 35 -35 73
-91 124 -183 39 -73 72 -136 72 -140 1 -4 20 -37 43 -74 23 -37 60 -95 81
-129 37 -59 39 -67 46 -173 7 -106 34 -234 64 -307 7 -19 17 -63 21 -99 7 -70
57 -263 82 -320 29 -66 123 -200 177 -253 35 -34 57 -65 64 -91 6 -21 20 -48
30 -60 11 -12 48 -77 83 -146 35 -69 83 -156 108 -195 36 -58 44 -78 45 -121
0 -42 -5 -57 -27 -83 -15 -18 -27 -40 -27 -49 0 -26 107 -169 182 -244 l67
-68 79 0 c68 0 81 3 93 20 11 16 35 23 114 34 55 8 123 24 150 37 43 19 67 22
175 22 84 0 145 -5 184 -16 52 -14 62 -14 87 -1 15 7 45 14 66 14 21 0 54 10
73 21 19 12 66 30 105 41 141 39 255 123 536 393 225 217 223 215 275 310 25
47 66 98 124 155 103 102 138 164 176 314 l28 109 -23 39 -22 39 26 34 c29 39
141 98 220 115 54 12 127 55 188 109 35 31 37 37 37 91 0 31 9 83 20 115 30
86 35 152 17 216 -8 30 -20 86 -27 124 -7 39 -23 89 -35 112 -30 56 -37 93
-22 119 13 24 137 136 232 211 33 25 96 81 140 122 89 84 191 141 286 160 77
16 138 57 239 160 113 116 199 230 207 273 3 20 -2 69 -12 109 -30 132 -14
443 28 526 14 27 28 70 32 96 l7 48 -70 69 c-60 59 -71 76 -82 122 -7 29 -21
74 -33 101 -17 40 -19 63 -15 150 3 68 10 113 21 134 10 18 17 39 17 47 0 8
-25 45 -56 83 -56 68 -56 68 -51 123 6 65 61 206 111 284 47 74 99 179 120
242 18 55 54 94 149 163 36 27 99 93 172 184 68 85 176 201 267 288 196 188
217 205 316 258 54 29 102 65 140 105 208 217 282 300 331 376 30 47 82 121
115 164 48 63 69 103 102 195 62 171 90 234 162 361 59 105 66 121 73 195 5
44 15 103 24 130 8 29 15 89 15 143 l0 93 -39 41 c-45 48 -52 47 -136 -16 -35
-27 -56 -36 -86 -36 -47 0 -220 -27 -252 -39 -13 -5 -59 -14 -103 -21 -43 -7
-97 -20 -119 -30 -23 -10 -79 -20 -132 -24 -50 -3 -111 -13 -135 -22 -84 -31
-155 -44 -194 -36 -31 6 -43 16 -64 52 -30 52 -118 109 -167 110 -41 0 -41 7
-3 55 19 24 30 49 30 70 0 36 -43 107 -92 151 -166 147 -204 183 -249 239 -36
45 -65 69 -98 83 -25 11 -88 37 -140 58 -91 38 -94 40 -116 89 -13 28 -35 66
-49 85 -30 39 -42 78 -52 168 -6 55 -13 71 -51 117 -24 30 -72 76 -106 102
-35 26 -84 64 -109 83 -25 19 -51 43 -58 54 -13 20 -24 84 -40 224 -6 56 -20
117 -35 152 -14 33 -25 72 -25 88 0 44 -38 92 -115 145 -130 89 -161 134 -150
222 l7 53 -70 75 c-38 42 -81 94 -93 116 -13 23 -54 89 -91 148 -37 60 -93
160 -124 223 -32 63 -86 150 -120 194 -56 70 -114 177 -96 176 7 -1 50 -60
105 -145 58 -91 101 -125 158 -125 31 0 38 5 47 28 14 34 52 198 52 221 0 10
-21 61 -47 113 -27 52 -64 127 -83 168 -19 40 -41 75 -49 78 -7 3 -34 -2 -60
-12 -74 -26 -126 -21 -210 21 -88 43 -148 51 -224 29 -30 -9 -68 -16 -84 -16
-15 0 -59 -16 -97 -35 -44 -22 -84 -35 -108 -35 -55 0 -236 28 -259 41 -19 10
-207 50 -299 64 -25 4 -74 20 -110 35 -36 15 -94 31 -129 34 -93 10 -147 32
-228 91 -105 76 -179 83 -302 27 -71 -32 -102 -55 -142 -105 -32 -39 -32 -43
-30 -128 2 -87 2 -89 -32 -125 -28 -30 -41 -37 -83 -41 -45 -4 -59 1 -165 56
-84 44 -133 63 -182 71 -38 6 -87 18 -110 27 -53 20 -114 77 -122 114 -11 48
-69 83 -224 133 -93 30 -125 36 -200 36 -79 0 -97 4 -157 32 -80 36 -234 128
-234 138 0 4 12 28 26 54 17 31 37 51 59 61 72 29 118 138 81 190 -25 37 -28
77 -6 117 25 48 25 64 0 78 -14 8 -26 8 -41 -1 -22 -11 -38 0 -39 28 0 6 -12
21 -26 32 -37 29 -102 27 -189 -5z"/>
<path d="M11647 3939 c-32 -26 -37 -36 -37 -71 0 -44 -15 -61 -110 -131 -31
-23 -48 -44 -56 -72 -34 -111 -51 -140 -94 -164 -23 -13 -51 -38 -61 -56 -16
-26 -24 -31 -45 -27 -34 6 -74 -32 -74 -70 0 -31 -18 -36 -65 -18 -22 8 -49 3
-143 -27 -65 -20 -123 -41 -130 -47 -8 -5 -31 -41 -53 -80 -22 -39 -48 -82
-59 -96 -18 -23 -18 -35 -10 -160 5 -74 16 -155 24 -179 9 -24 16 -58 16 -75
-1 -45 -97 -208 -193 -327 -54 -67 -67 -100 -68 -175 -1 -63 7 -101 30 -148
16 -30 17 -42 7 -88 -26 -128 -16 -156 104 -288 l58 -64 62 0 c47 1 68 6 91
23 18 13 61 28 109 36 110 19 147 49 227 180 16 28 36 68 43 90 7 22 21 56 31
75 11 19 19 39 19 45 0 9 109 258 132 299 6 11 19 44 29 74 10 30 23 60 28 66
4 6 27 54 51 106 23 52 50 106 60 120 9 14 21 36 25 50 4 14 26 52 49 85 39
58 41 64 46 157 4 81 9 102 29 129 18 24 26 53 34 121 l10 88 33 0 c37 0 61
20 80 65 11 26 10 38 -1 71 -7 22 -16 89 -20 149 -8 140 -19 193 -52 261 -25
52 -78 104 -105 104 -7 0 -30 -14 -51 -31z"/>
</g>
</svg>
