<svg version="1.2" xmlns="http://www.w3.org/2000/svg" viewBox="0 0 649 1059" width="649" height="1059"><style>.a{fill:#fdfdfd}</style><path fill-rule="evenodd" class="a" d="m338.8 977c-11.7-8.7-24.1-21.2-32.3-36.1-7.1-13.2-10.7-24.5-12.4-35.1-1.6-10.5-1.3-20.5-0.6-31.2 0.8-8.5-1.7-18.1-4.4-27.7-2.5-9.5-5-19.1-4.7-27.9 0.5-8.6 1.2-17.3 1.9-26.1 0.8-8.8 1.6-17.7 2.3-26.6 0.8-8.9 1.5-17.8 1.7-26.7 0.4-8.8 0.4-17.6-0.2-26.3-1-21.1-5-21.9-17.7-33.2-6.3-5.7-9-12.9-11-20.4-1.9-7.4-3.1-15.2-6.4-22.2-2.8-6.2 3.1-22.9 9.5-38.2 6.7-15.1 13.9-28.8 11.2-29.9-6-2.3-21.9 5-24.7-1-2.8-6.3-3.8-14.2-8.6-18.2-3-2.5-16.8-9.2-21.5-6.8-5.7 2.9-11 4-15.7 3.7-4.6-0.3-8.7-1.9-12.4-4.3-3.7-2.4-6.9-5.6-9.7-9-2.8-3.4-5.2-7-7.2-10.2-2.8-4.5-4.2-9.8-5.2-15.5-1.1-5.6-1.8-11.7-3.2-17.6-1.3-5.1-4-7.3-6.4-10-2.5-2.8-4.8-5.9-5-12.8-0.2-7.2 1.6-15.8 4-24.6 2.3-8.9 5.2-17.9 6.7-25.9 1.7-8.6 1.1-14.1-0.7-18.9-1.7-5-4.6-9.3-7.5-15.7-3.2-7.1-5.4-15.1-7.6-23.4-2.2-8.3-4.4-16.8-7.5-24.5-3.2-7.8-7.3-14.8-13.2-20.3-5.9-5.6-13.7-9.8-24.3-11.8-11.4-2.7-19.3 9.5-26.4 20.7-7.1 10.8-13.3 20.7-21.8 13.5-4.8-4.2-10.9-6.1-17.3-6.8-6.4-1-13.2-0.8-19.2-0.4-12.3 0.1-22 1.6-21.3-0.5 3.6-11 12.5-15 21.1-17.4 8.4-2.9 16.5-4 18.5-7.2 6.4-10.7-2-20.1-10.9-29.4-9-9.6-18.4-19.2-13.6-27.6 2.4-4.3 11.3-4.4 19-4.9 7.6-0.9 14.1-2 11.6-6.5-1.5-2.7-21.2-29.2-20-29.5 4.8-1.1 21.3 16.3 19.5 1.9-0.6-4.8-2-9.6-3.4-14.4q4.2-2.9 8.6-5.8 4.3-3 8.8-6 4.4-3.1 8.9-6.1 4.5-3.1 9.1-6.1c16.1 2.7 32.3 7.7 38 10.3 9.1 4 16.5 8.5 23.1 12.8 6.5 4.1 12.3 8 18.2 11.1 5.9 3 11.9 5.1 19 5.6 7.1 0.5 15.2-0.6 25.4-4 4.8-1.7 12.5-2 21.3-1.3 8.8 0.6 18.7 2.1 28.1 4.3 9.4 2 18.3 4.6 25.1 7.9 6.8 3.1 11.4 6.9 12.3 11.3 2 9.6 26.2-8.2 34-9.9 8.4-1.7 22.7 8 30.8 0.8 10.5-9.4 10.4-15.5 10.5-17.8 0.2-2.3 0.8-0.8 12.8 5.3 8 4.1 25.2-3.6 36.8-6.3 11.6-2.5 17.6-0.6 3 20.9-5.5 7.9-11.7 14-18.5 19-6.8 5.1-14.1 9.2-21.6 13.1-7.6 4-15.4 7.8-23.3 12.2-7.9 4.5-15.9 9.6-24 16.1-15.8 13.2-8.1 18.4 2.7 22.7 5.5 2.2 11.8 4.3 16.3 7 4.5 2.8 7.2 6.3 5.2 11.1-5.6 14-5.8 20.4-2.8 21.8 3 1.5 9.2-2.1 16.1-7.8 7-5.7 14.7-13.6 20.7-21.2 5.9-7.5 10-14.8 9.8-19.5-0.5-18.3 8.1-25.1 17.7-24.3 4.8 0.5 10 2.9 14.3 6.7 4.5 3.9 8.1 9.2 9.8 15.2 3.9 13.6 16.9 3.8 31.8 1.3 12.1-1.6 6.3 17.7 7.1 21.5 1.4 6.2 8.3 11.5 13.7 17 5.5 5.7 9.3 11.4 3.6 17.9-6.3 7.3-14 8.7-22.6 8.2-8.4-0.2-17.6-2.3-27.4-2.1-21.2 1.1-3.6 14.2-8.5 17.8-5.4 4-30 4.1-37.4 6.4-10.6 3.6-15 9.1-19 14.7-3.9 5.7-7.4 11.4-16 15.7-11.6 6.1-18.6 3.1-25.2 13.9-3.8 6.3-12.9 11.4-21 16.4-8.1 5.1-15.3 10.2-16.2 16.1-0.5 3.2-3.4 27.7-8.5 29.8-2.3 1.1-9.4-18.8-12.7-20.1-3.3-1.2-14.4 1.5-26.1 8.1-11.3 6.8-23.2 17.4-29.6 31.2-4 9-2.6 18.3 1.4 22.2 4.2 4 11 2.6 17.6-10.2 8.5-15.6 9.9-12.2 8.9-4.6-1 7.7-4.3 19.6-5.5 20.8 2.5 2.7 27.9-12.3 15.8 6.3-5 8-4.6 26.2 7.2 18.2 5.1-3.3 14.8 2.6 18-1.8q1.6-1.9 3.4-3.7 1.8-1.7 3.8-3.3 2-1.6 4.1-3 2.1-1.4 4.3-2.6c7-3.9 14.8-4.5 22.7-4.1 8.1 0.6 16.3 2.3 23.8 2.7 2.4 0.2 8.4 2.6 16.3 6.3 8.1 3.9 18.4 9.4 28.6 15.2 21.7 12.6 43.2 26.7 42.4 30.3-2.8 13.4 15.5 22.6 36.5 30.5 22.1 8.6 47.3 15.9 52.7 22.3 14.8 17.4 20.4 22.3 17.2 25.9-3.1 3.7-14.7 6.4-33.4 20.4-8.9 7.5-11.9 17.4-16.8 26.4-4.7 9.1-11.2 17.3-26.7 21.4-14.3 4.2-29.6-2-41.6 5.7-10.3 7.3-7.1 18.5-13.1 28-1.7 2.8-8.6 8.9-17.5 16.7-8.5 8-18.7 17.9-28.1 28.2-8.8 10.5-17 21.3-22.8 30.6-5.5 9.4-9 17.3-9.1 22 0 9.4-18.6 14.8 1.3 27 5.7 2.8 3.1 13 1.8 24.9-0.9 12-0.4 25.7 10.5 36.1 5.5 5.1 9.3 9.3 12.5 13-7.1 1-14.1 1.8-21.4 2.2zm115.4-878c-0.9 1.7-0.2 4 3.6 6.7 8.4 6-5 14.7-16.4 6.3-5.8-4.2-16.1-4.7-24.8-3.4-8.7 1.4-15.8 4.6-15.2 7.4 1 5.5 9.2 8.4 23.4 5.6 14.1-2.6 18.8 2.7 20.1 7.8 0.8 3.4-1.1 5-2.5 9.3-1.4 4.4-16.2-0.1-29.3-0.5-13.1-0.2-26.2-4-24.6-10.2 1.6-6.1-10.9-18.9-18.8-24.7-7.9-6 5.3-15 15.9-5.6 10.3 9 11.8 0 25.2-1.2 7.5-0.6 4.8-3.4 2.5-6q10.4 1.7 20.6 3.9 10.3 2.1 20.3 4.6zm29.6 116.7c9.8 3.9 25.1 17.2 23.6 21.5-1.6 4.3-12.4 7.7-15.9 6.3-12.8-4.8-22.8-12.3-30.5-20-7.6-7.4-13.1-15.3-17-20.8-6.8-9.6-11.3-10.6-17.7-10.2-6.3 0.4-14.5 2.1-28.8-2.1-3.6-1-6.8-6.6-7.8-13.3-1.1-6.7 0-14.5 5.5-19.4 11-9.7 21-10.6 28.1-7.5 3.6 1.6 11.7 0.2 19.2 0.1 7.5 0 14.3 1.2 15.3 7.7 0.9 6.5 3.7 14.1 7.8 20.8 4 6.7 9.4 12.6 15.5 15.7 12.2 6.6-6.9 17.5 2.7 21.2zm-14.6 57.7c0.9 3.3-5.1 0.6-11.7-3.6-6.5-4.1-13.6-9.7-15.8-13-4.2-6.4-8.5-20.6 2.2-26 5.4-2.7 10.7 1 15.9 6.1 5.2 5.1 10.2 11.6 14.4 14.4 17.5 11.5-6.8 15.6-5 22.1zm-105.5-98.5c2.5-2.3 4.8 3.3 6.6 8.7 1.7 5.4-5.6 13.3-13.1 12.4-7.5-0.8 0.5-15.6 6.5-21.1zm12.7-56.1c0 0 4.6 16.5-2.4 13.4-7-3.1-6.2-9.9 2.4-13.4zm-9.6 50.5c-1-4.4 3-22.7 9.5-28 9.4-7.6 18.4 8.6 8.5 14.4-10 6-17.2 18.1-18 13.6zm-100.8 22.5c-13.4-1-11-13.5-11.6-20.2-0.5-6.8-15.9 12.4-24.8-1.1-4.6-7-2.6-14.6 0.5-21.8 2.9-7.2 7-14 6.4-19.4-1.1-11 27.5 2.8 32 3.2 4.5 0.4 13.1 21.6 16.3 21.3 3.3-0.1 17.1 16 18.5 9.8 1.4-6.2 6.1-16.7 18.5-17.4 9.4-0.6 8.9 4.2 5.7 10.2-3.3 6-9.3 13.3-10.7 17.4-2.7 8.2 7.9 21.8 11.5 27.4 3.5 5.5-16.6 10.9-18.6 7.6-2-3.4-11.3 0.7-19.5 6-8.3 5.5-23.7-5.4-31.5-9-7.8-3.7 20.8-13.2 7.3-14zm67.3-96.6c12.1 5.6 18.8 10 25.8 3.3 6.6-6.2 8.5 16.5 3.3 22.1-5.4 5.8-13.2 3.7-13.8-1.1-0.3-2.4-7-9.7-12.3-15.8-5.3-6.3-9-11.4-3-8.5zm5.3 73c-3-5.1-2-11 3.6-15.2 5.7-4.1 5.2-9.2 13.9-10.4 4.3-0.5 3.6 5.2 2.4 10.5-1.3 5.2 2.1 12.1-5.2 20.3-7.4 8.5-11.8-0.2-14.7-5.2zm-49.6-79.1c9.9 1.6 8 8.2 15.6 14.1 7.6 5.7 6-24.2 10.8-12.2 4.5 11.6 19.2 28.1 10.8 30.2-3.6 0.9-13 3.5-21.8 5.6-8.8 2.2-16.9 3.8-18.1 2.8-2.3-2.2-4.5-10.9-11.1-13.5-6.6-2.6-11.9-21-16.7-21.3-1.8-0.1-1.6-3.5 0-7.8q3.1-0.5 6.3-1 3.2-0.5 6.4-1 3.2-0.4 6.4-0.8 3.2-0.3 6.4-0.6c0.8 2.8 2 5 5 5.5zm56 421.6c-8 5.4-15.5 3.8-22.7 1.3-6.9-2.4-13.4-5.9-19.9-4.8-12.6 2.4-14.2-9-24.8-5.8-10.2 3.4 7.5-13.6 19.2-8.8 6.1 2.6 20.5 4.3 32.6 7 12.6 3.1 22.3 6.8 15.6 11.1z"/></svg>