<svg version="1.2" xmlns="http://www.w3.org/2000/svg" viewBox="0 0 1380 1071" width="1380" height="1071"><style>.a{fill:#fdfdfd}</style><path class="a" d="m440.6 40.4c-1.5 0.9-4.6 1.6-6.7 1.6-4.4 0-5.4 1.1-3.8 4.1 1.1 2.1 1.6 2.1 11.3 1.6 5.5-0.4 12.4-0.9 15.1-1.2 4.6-0.4 4.4-0.3-2.4 1.5-8.5 2.3-8.6 2.3-7.7 4.6 0.5 1.2 1.4 1.5 3.7 1 1.7-0.3 4.5 0 6.4 0.8 1.8 0.8 6.8 1.7 11.1 2.1 4.4 0.4 11 1.3 14.8 2.1 8.9 1.7 13.6-0.2 8.9-3.8-1-0.7-2.3-2.2-2.9-3.3-1-1.7-2.2-2-7.5-2-3.5 0-7.4-0.6-8.5-1.2-1.2-0.7-4-1.5-6.2-1.9-3.1-0.5-3.9-1-3.5-2.3 0.7-2.9-1.8-3.9-10.7-4.6-6.7-0.5-9.1-0.3-11.4 0.9z"/><path class="a" d="m504.2 54.1c-2.6 1-4.6 5.4-3.8 8.5 0.8 2.9 3.8 3.8 8 2.4 1.8-0.6 6.9-1 11.4-0.9 8.9 0.3 11.9-0.9 10.2-4.1-1-1.8-6.2-2.8-16.7-3.3-2.5-0.1-4.3-0.6-4.3-1.3 0-1.7-2.1-2.3-4.8-1.3z"/><path fill-rule="evenodd" class="a" d="m536.7 68.3c9.5 0.4 10.7 0.6 11.4 2.4 0.9 2.4 6.2 3.5 12.6 2.6 4.5-0.6 4.5-0.6 4.1 2.3-0.3 3.3-0.3 3.3 11.7 1.5 11.4-1.7 18.3-1.4 27 1.4 4.4 1.3 9.7 2.7 11.8 3 2.8 0.5 4 1.2 4.7 3 0.5 1.2 1.4 2.6 1.9 3 3.1 1.8-0.9 5.6-8.9 8.3-1.9 0.7-4.8 2.6-6.5 4.1-1.6 1.6-3.9 3.1-5 3.3-1.2 0.2-2.1 1.3-2.3 2.6-0.4 2.7 1.6 2.9 7.8 0.7 2.3-0.8 5.4-1.6 6.9-1.6q2.5-0.2 0.9-0.6c-1-0.2-1.8-1.3-1.8-2.2 0-2.9 8.4-3.7 11.7-1.1 3 2.4 6.6 2.6 8.3 0.5 1.7-2.1 2.8-1.9 6.6 1 2.9 2.2 3.7 2.4 5.6 1.4 1.4-0.8 6.9-1.1 15.5-1 12.5 0.2 13.6 0.4 19.2 3.1 5.7 2.8 6.7 3 19.3 3.2 7.3 0.1 15.7 0.7 18.7 1.5 3 0.7 5.7 1.1 6 0.7 0.9-0.8-2.9-3.4-5.1-3.4-2.2 0-8.8-3.1-8.8-4.2 0-1.8 5.1-1.7 13.7 0.5 8.1 2 9.6 2.1 11.8 0.9 1.5-0.7 3.4-1 4.3-0.6 0.9 0.4 4.2 1 7.2 1.3 7 0.8 7.9 3.1 2 5.4-6.1 2.4-4.5 4.4 3.3 4.3 5.1-0.1 7.4 0.5 12.8 3.1 3.6 1.8 7.2 3.3 8.1 3.3 0.8 0 2.7 1 4.2 2.1 3.6 2.8 16.4 4.5 18.5 2.4 1.3-1.3 1.2-1.7-0.2-3.3-1.6-1.8-2.3-4.2-1.2-4.2 0.3 0 2.9 1.2 5.7 2.6 4.6 2.4 5.8 2.5 10.8 1.8 3-0.5 12.1-0.7 20.3-0.6l14.7 0.3-2.4-2.5c-1.3-1.5-3.4-2.6-4.8-2.6-2.9 0-5.3-2.3-4.3-4 0.4-0.6 1.5-1 2.5-0.8 1.1 0.2 2.5-0.5 3.2-1.5 1.2-1.7 1.9-1.7 12.3-0.3 6.1 0.9 15.8 1.7 21.7 1.9 11.6 0.3 13.8 1.2 13 5.2-0.7 4 2.5 3.1 4.3-1.1 1.1-2.7 1.9-3.5 3.2-3 0.9 0.4 5.1 1.1 9.2 1.7 4.2 0.6 7.8 1.2 8 1.5 0.2 0.2-0.2 1-0.8 1.8-0.9 1-0.9 1.6-0.1 2.1 0.6 0.4 1.4 0.5 1.6 0.2 0.3-0.3 3.1 0.1 6.2 0.9 3.1 0.7 7.3 1.4 9.2 1.4 1.9 0 5.5 1 8 2.1 6.3 2.9 12.6 3.4 17.8 1.5 6-2.1 24.9-1.2 40.1 2.1 12.7 2.7 14 3.2 19.4 7.9 3.4 3.1 4.3 3.4 10.1 3.4 3.4 0 7.7-0.5 9.4-1.1 2.3-0.8 6.6-0.7 16.8 0.5 17.5 2 17.7 2 21.1-0.7 1.5-1.3 3.6-2.7 4.6-3 1.6-0.6 1.8-0.3 1.3 2.1-0.6 2.4-0.1 3 3.3 4.9 2.2 1.3 5.7 2.3 7.8 2.3 2.1 0 5.6 0.9 7.8 2 5.1 2.6 8.5 2.6 8.5 0.1 0-2.8-3.8-5.1-8.5-5.1-4.2 0-8.9-2.4-8.2-4.3 0.4-1.4 11.1-1 16.7 0.7 2.9 0.8 5.9 1 9.4 0.4 9.9-1.5 17.8-1.3 21.6 0.8 2.8 1.5 5.7 1.9 15 2l11.5 0.1 17 10.8c23.7 15 54.5 35.9 70.5 47.8 12.9 9.6 13.4 10.1 10.7 10.8-1.5 0.4-4.2 0.3-6-0.2-1.7-0.5-5.3-0.9-7.9-0.9-2.6 0-5-0.5-5.3-1-1.1-1.7-3.5-1.1-3.5 1 0 1-0.9 2.4-2 3-1.2 0.6-2.5 2.2-3 3.6-0.7 1.8-1.7 2.4-3.9 2.4-3.3 0-5.1 2.2-5.1 6.3 0 1.4-0.7 2.8-1.5 3.1-1.4 0.5-1.4 0.9 0 3.6 0.9 1.7 1.3 3.5 1 4-1 1.6-6.8-0.2-10.2-3.1-3.3-2.8-9.3-4.4-14.9-3.7-2.2 0.2-3.3 1.2-4.7 4-2.2 4.5-4.1 4.8-5.9 1-2-4.1-5.1-4.1-6.3 0-1 3.4-3 4-8.1 2.3-3.7-1.2-3.9 2.4-0.4 6 1.7 1.8 3 4.2 3 5.6 0 4.4 7.3 9.4 11.9 8.2 2.1-0.5 5.7 2.6 10.9 9.6 1.6 2.1 3.2 3.1 5 3.1 3.5 0.1 8.7 4.3 7.9 6.4-0.4 0.9-1.8 1.6-3.4 1.6-5.4 0-5.5 1.4-0.5 5.6 2.6 2.3 6.2 4.9 8 5.8 4.7 2.4 4 5-1.6 5.4-5.5 0.4-6.3 2.4-2.8 6.1 3.7 3.9 3.4 8.5-0.6 8.9-1.6 0.2-2.8 0.6-2.8 0.8 0 0.3 1.2 2.1 2.7 4.1 2.1 2.8 2.8 4.9 3.1 9.7 0.5 10.2-0.6 10.3-9.6 1-4.6-4.8-10.6-9.7-14.3-11.9-3.6-2-7.4-5.1-8.7-7-1.2-1.9-7.5-7.7-14-12.9-14.4-11.5-21.5-20.2-21.9-26.4-0.1-2.3-0.7-5.1-1.3-6.2-1.5-2.7-1.3-3 2-3 3.9 0 5-2.3 5-10.7 0.1-9.4 1.3-15 4.1-17.9l2.3-2.4-2.2-2.8c-1.2-1.5-4-5-6.2-7.9-2.2-2.8-4.4-5.4-4.9-5.7-1.3-0.9-9.1 0.5-9.1 1.5 0 0.5 1.8 1.8 4 2.9 4.5 2.3 4.7 2.8 2.2 6.1-1 1.3-2.3 3.6-3 5.1-1.3 3.1-4.9 3.8-5.8 1.3-0.4-0.8-1.6-1.5-2.8-1.5-1.2 0-4.1-1.8-6.5-4.1-4.2-4-4.3-4.1-9.9-3.5-3.1 0.4-7.9 0.7-10.5 0.6h-4.9l0.3 6.4c0.3 4.2-0.1 6.9-0.9 7.9-0.8 0.9-1.2 2.8-1 4.4 0.3 2.4 0.8 2.8 3.8 3.1 7.8 0.5 10.1 1.3 9.8 3-0.2 1.3-1.6 1.7-6.1 1.8-3.6 0.1-6.4 0.8-7.5 1.7-1.1 1.1-2.2 1.3-3.2 0.7-0.8-0.5-2.1-0.5-3.1 0.1-1 0.5-3.9 0.9-6.5 0.9-4.1 0-4.6-0.2-4.1-2 1-3.7-1.5-5.4-6.7-4.6-3.8 0.6-5.3 0.3-8.2-1.4-2.8-1.8-3.7-2-5-0.9-0.8 0.6-1.3 2.1-1.2 3.3 0.2 1.6-0.1 2-1.7 1.7-1.1-0.2-4.2-0.4-7-0.5-2.7-0.1-6-0.5-7.2-0.9-1.3-0.5-2.8-0.5-3.5-0.1-0.7 0.5-7.6 0.8-15.3 0.9h-14l-1.8 3.9c-1.6 3.3-1.7 4.3-0.6 6.3 1 1.9 1 2.8 0.1 4.3-0.7 1.1-1.2 2.9-1.2 4 0 1.3-0.7 2-2 2-2.5 0-3.7 2.7-2.2 5 0.6 1 0.7 2.2 0.1 3.1-0.5 0.8-0.9 2.4-0.9 3.7 0 1.7-0.9 2.7-3.5 3.8-2.1 0.8-3.5 2.1-3.5 3.2 0 0.9-0.3 2.7-0.6 3.9-0.6 2.2-0.4 2.3 6.3 2.3 6.4 0 7.1 0.2 9.8 3 2.1 2.2 3.8 3 6.2 3 2.7 0 3.7 0.6 5.1 3 1.9 3.3 5 4 5.8 1.2 1.1-3.5 2.2-4.7 4.5-4.8 3.4-0.2 14.8 3.6 18.8 6.3 1.9 1.3 4.2 2.3 5.3 2.3 1.1 0 3.1 1.9 5.1 4.7 1.7 2.7 5.1 6.6 7.3 8.8 3 2.9 4.5 5.4 5.3 8.9 1.6 6.5 3.6 10.4 7.7 14.6 1.8 1.9 4.7 6.4 6.4 10 1.6 3.6 3.6 7.3 4.2 8.2 1 1.4 0.8 2.1-1 4.1-2.5 2.7-2.7 5-1.1 14.7 1 5.9 0.9 7.6-0.4 11.2-0.8 2.4-1.9 5.9-2.2 7.8-0.4 1.9-1.4 4.6-2.2 5.9-1 1.6-1.4 3.8-1 6.7 0.4 3.8 0.1 4.6-2.7 7.2-7.7 7.2-12.6 8-19.7 3.2-3.8-2.5-4.7-2.7-6.4-1.6-1.1 0.7-2.4 2.7-3 4.4-0.5 1.8-1.5 3.2-2.2 3.2-0.7 0-1 0.7-0.7 1.5 0.4 0.8-0.1 1.7-1 2.1-2.1 0.8-2 3.3 0.4 6.9 3.1 4.7 2.6 9.1-1.4 12.8-1.8 1.8-4.3 3.9-5.6 4.8-2 1.3-2.1 1.8-1.1 3.7 0.6 1.2 2.1 2.2 3.2 2.2 1.4 0 1.9 0.6 1.7 1.7-0.4 2.7 1 4.3 3.9 4.3 2 0 5.4 2.7 14 11.2 6.2 6.2 11.3 11.9 11.3 12.7 0 0.8 1.2 2.7 2.6 4.2 3.3 3.4 4.7 9.4 3.1 12.9-1.1 2.2-2 2.6-8.2 3.1-11.6 1-14.8 3.4-12.5 9.4 1.3 3.3 0.6 4.5-2.5 4.5-4.6 0-7.5-5.3-7.5-13.7 0-6.4-2.1-12.2-5.1-14.4-3-2.1-3.8-5.6-1.8-7.6 0.6-0.6 0.9-2.3 0.7-3.9-0.4-4.1-4.6-5.8-13.1-5.5-6.5 0.2-6.8 0.1-7.8-2.6-0.7-1.9-0.7-4 0.1-7 1.2-5 0.5-9-1.9-10.2-0.9-0.5-5-1.5-9.1-2.2-6.8-1.1-8.1-1-12.3 0.6-2.7 1-5.7 3-6.7 4.4-5.1 6.9-8.6 8.3-7.5 3 0.4-1.7 0.2-4.3-0.5-5.8-1-2.4-0.8-3.4 0.9-6.1 1.8-3 1.8-3.6 0.6-6-2.5-4.8-3.9-5.4-9-3.9-3.7 1.1-4.7 1.9-5.6 4.7-0.6 1.8-2.4 4.2-4 5.4-3.4 2.5-3.6 3.6-1.1 5.4 1.6 1.2 1.6 1.4 0.1 2.9-1.1 1.1-3.5 1.6-7.7 1.7-5.2 0.1-6.2 0.4-6.2 1.8 0 2.7 8.3 9 11.9 9 2 0 3.2 0.6 3.6 1.9 0.8 2.6 8.1 9.1 10.1 9.1 0.9 0 1.8-0.9 2.1-2.1 1-3.8 9.3-5.2 14.7-2.4 1.8 1 4.1 1.3 6.7 0.9 4.6-0.8 5.8 0.9 3.7 5.3-1 2.1-2.4 3.1-5.8 3.9-3.7 0.9-4.9 1.7-6.7 5-7.6 13.4-7.6 14.1-1.2 16.9 5 2.3 9.7 7.6 14.3 16.4 3.6 6.9 8.7 11.1 13.5 11.1 2.5 0 3.8 2.3 4.7 8.1 0.4 2.4 1.1 4.9 1.6 5.6 0.5 0.6 0.8 2.4 0.6 3.9-0.2 2.1-1.1 3-3.7 3.9-5.7 1.9-4.8 3.2 2.8 4 4.8 0.5 7.1 1.2 7.5 2.2 0.6 1.5-0.1 12.5-1 17.1-0.2 1.2-1.6 2.7-2.9 3.2-1.5 0.6-2.7 2-3.1 3.7-0.4 1.5-1.3 4.1-2.1 5.6-0.9 1.8-1.4 6.1-1.4 12.2-0.1 8.8-0.2 9.5-2.5 11-1.4 0.9-2.4 2.5-2.4 3.9 0 1.7-1.1 3-3.5 4.5-1.9 1.1-3.5 2.7-3.5 3.5 0 0.8-2.3 3.4-5.1 5.8-2.8 2.4-5.5 5.3-6 6.5-0.6 1.8-1.6 2.3-4.2 2.3-1.9 0-4.5 0.8-5.8 1.9-5.1 3.9-9.1 5.3-13.5 4.7-3.7-0.5-4.4-0.2-5.8 1.9-0.9 1.4-2.3 2.5-3 2.5-0.8 0-3.3 0.9-5.7 2-2.7 1.2-6.6 2-10 2-7.1 0-8.4 1.3-7.5 7.7 0.4 2.8 0.2 5.1-0.5 5.9-1.2 1.5-5.7 1.8-7.5 0.6-2.1-1.4-3.5-5.4-3.2-9 0.3-3.4 0.1-3.7-2-3.5-1.3 0.2-3.2-0.2-4.2-0.7-2.4-1.3-9.3 1.2-13.1 4.6-1.4 1.3-3.5 2.4-4.7 2.4-1.8 0-2.2 0.6-2.2 3.5 0 2.4-0.9 4.5-3 6.8-2.9 3.3-3 3.7-2.2 9.5 0.5 3.3 1.6 6.7 2.5 7.7 0.9 0.9 1.7 2.1 1.7 2.6 0 0.5 0.9 0.9 2 0.9 1.5 0 2 0.7 2 2.6 0 2.5 2.7 5.6 8.1 9.6 1.3 1 4.3 3.2 6.5 5 2.3 1.8 5.6 4.1 7.3 5 2.1 1.2 3.1 2.4 3.1 4.1 0 1.4 0.7 3 1.6 3.8 2.2 1.8 4.4 6.4 4.4 9.2 0 1.3 0.8 3.5 1.9 4.8 2.4 3.2 3.4 8.6 3.3 18.8-0.2 8.2-0.2 8.4-4.3 13.8-4.8 6.2-6 7-12 7.9-5.1 0.8-6.9 1.9-6.9 4.4 0 2.3-7.7 12-9.5 12-0.8 0-2 1-2.6 2.2-1.4 2.7-2.8 3.8-5.1 3.8-2.3 0-3.4-6.1-2-10.8 1.1-3.4 1-3.7-2.6-6.8-2.5-2.2-4.7-3.3-6.9-3.4-2.5 0-3.6-0.7-5-3-0.9-1.7-2.5-3-3.5-3-1.4 0-1.8-0.8-1.8-4 0-2.2-0.5-4-1-4-0.6 0-1.6-1.1-2.2-2.5-0.7-1.6-1.9-2.5-3.4-2.5-1.3 0-3.4-1.2-4.7-2.6-1.6-1.7-3.9-2.7-7.3-3.2l-4.9-0.8 0.3-4.2c0.2-3.8 0-4.2-2.1-4.2-1.2 0-3.3 0.7-4.5 1.6-2 1.4-2.2 2.4-2.2 10.3 0 7.4-0.4 9.5-2.5 13.4-4.2 8-4.8 11.8-2.6 17.4 1.3 3.4 2.5 4.9 4.2 5.3 1.6 0.4 2.5 1.5 3 3.7 0.3 1.8 2 5.4 3.6 8 1.7 2.6 3.8 6.4 4.7 8.4 1.8 3.8 3.5 5 9.9 6.9 2.9 0.9 4.1 2 4.9 4.1 0.6 1.9 1.7 2.9 3 2.9 1.1 0 2.2 0.8 2.5 2 0.3 1 1.6 2.6 3 3.5 1.3 0.9 3.5 4 4.9 6.8 2 4.5 2.4 6.7 2.4 15.9 0 8.6 0.3 11 1.6 12 5.4 4.3 6.4 5.8 6.4 9.2 0 2.6-0.6 4-2.3 5.1-2.1 1.3-2.8 1.3-7-0.1-2.6-0.9-6.6-3.4-9-5.7-2.3-2.3-5.4-4.7-6.9-5.4-2-0.9-3.1-2.8-4.8-7.8-1.2-3.7-3.5-8.2-5.1-10-1.6-1.8-2.9-4.3-2.8-5.6 0-1.3-0.3-5.9-0.8-10.1-0.7-6.3-1.4-8.3-3.5-10.5-1.4-1.6-3.3-4.2-4.1-5.8-0.8-1.7-4.3-5.8-7.6-9.3-4.9-5-6.7-6.2-8.8-6-2.6 0.3-2.6 0.2-2.4-5.7 0.2-4.1 1-7.2 2.6-10 2.3-4 2.3-4.1 0.4-6.4-2.6-3.2-2.5-8.6 0.2-10.5 2.5-1.7 2.2-4.8-0.7-6-1.8-0.8-2-1.9-2.2-10-0.1-8.4-0.3-9.2-2.6-11.1-2.1-1.7-2.5-2.6-2-5.6 0.4-2.3 0-4.9-1.1-7.4-1-2.2-2.1-6.8-2.5-10.3-0.6-4.9-1.4-7-3.4-9.1-1.4-1.5-2.6-3.4-2.6-4.3 0-0.9-0.8-2.6-1.8-3.9-2.8-3.4-5.2-1.9-5.2 3.1 0 3.1-0.4 4-1.7 4-1 0-2.7 1.2-3.8 2.7-1.9 2.3-3 2.7-9 3-4.1 0.2-7.3-0.1-8.1-0.8-1.7-1.4-1.8-5.9-0.3-11 1-3.2 0.9-4.8-1.1-10.8-2.3-7.3-5.8-11.8-8.4-10.8-4.1 1.6-6.5-3.2-2.6-5.3 1.9-1 1.9-1.3 0.5-4.1-2.3-4.4-5.8-5.7-9.6-3.5-1.7 1-3.2 1.6-3.4 1.4-0.1-0.1-2-2.6-4.1-5.3-3.5-4.5-3.9-5.6-4-11.6-0.2-8-3.7-16.4-6.9-16.4-1.6 0-2.1 0.8-2.3 3.8-0.2 2.8-0.8 3.7-2.2 3.7-1 0-2.2 0.5-2.6 1.1-0.3 0.6-1.7 0.9-3 0.6q-2.4-0.4-2.4 0.9c0 1.8-4.2 2.8-8.9 2.1-2.1-0.2-4.6 0-5.6 0.5-1.2 0.8-2 0.7-2.6-0.3-0.6-1.1-1.1-1-2.7 0.4-1 0.9-2.2 1.7-2.7 1.7-0.5 0-1.7 0.7-2.7 1.7-1.3 1.2-1.8 3-1.8 7 0 4.4-0.5 5.8-2.5 7.8-1.3 1.4-2.9 2.5-3.6 2.5-2.1 0-13.6 10.8-16.9 15.9-1.9 3-4 5.1-5.3 5.3-1.2 0.2-2.4 1.2-2.7 2.5-0.3 1.2-1.7 3.1-3.2 4.2-1.5 1.2-3.2 3.7-3.8 5.6-1.5 4.5-5.5 7.7-8.6 6.9-2.1-0.5-2.5-0.2-3 2.5-0.5 2.2-1.2 3.1-2.6 3.1-5.6 0-8.6 5.3-6.8 12 0.6 2.4 1.1 6.4 1.1 8.9 0 2.5 0.5 5.8 1 7.3 0.9 2.2 0.7 4-1 9-2.4 7-2.6 12.3-1 17.9 1.4 4.5 0.1 6.9-3.8 6.9-1.9 0-2.3 0.4-1.8 1.9 0.3 1.1 0.1 2.2-0.5 2.6-0.5 0.3-1 1.6-1 2.8 0 1.3-1.4 3.3-3.4 4.9-1.9 1.5-4.2 4.7-5.1 7.3-1.6 4.1-2.1 4.5-5.2 4.5-4.4 0-7.3-1.6-7.3-3.9 0-0.9-1.1-2.8-2.4-4-1.6-1.5-2.5-3.7-2.8-6.9-0.8-7.3-8.5-25.1-12.7-28.9-2.4-2.3-3.6-4.5-4.2-7.5-3.1-17.5-3.5-18.8-6.1-21.5-1.4-1.5-4-5.7-5.8-9.3-1.8-3.6-4.6-8-6.1-9.8-2.5-2.8-2.9-4.1-2.9-9 0-4-1.1-8.6-3.6-15.7-5.2-14.6-5.8-17.3-3.9-20.1 2.1-3.2 1.9-6.6-0.6-9.8-1.1-1.4-1.7-3.1-1.4-3.7 0.4-0.6-0.1-3.1-1-5.5-1.4-3.8-1.9-4.3-3.2-3.2-1 0.8-1.3 2.4-1 4.7 0.7 6.3-0.9 8.9-6.6 10.6-2.8 0.8-5.6 1.5-6.3 1.5-0.6 0-5.4-4.1-10.5-9-7.6-7.3-9.1-9.2-7.9-10 0.8-0.5 2.9-0.7 4.5-0.4 2.2 0.4 3.8-0.1 5.8-1.6 3-2.4 2.8-4.3-0.5-3.1-4.2 1.5-10.5-0.4-15.1-4.7-2.5-2.2-5.9-4.8-7.6-5.6-1.7-0.9-4-3.4-5.1-5.6-1.4-2.7-3.2-4.5-5.6-5.5-3.2-1.3-3.5-1.8-3-4.1 1.2-4.5-4.1-6-9.1-2.7-1.9 1.3-4.3 1.7-8.5 1.5-3.2-0.1-7-0.3-8.5-0.3-1.6-0.1-6.8 0.4-11.8 1.1-12.1 1.6-15.2 1.6-20.5-0.3-4.8-1.7-17.7-3.8-24.8-4.1-5.8-0.2-10.2-4.1-10.2-9 0-2.5-0.8-4.5-2.9-6.8-2.5-2.8-3.5-3.2-7.9-3.2-4.4 0-5.5 0.5-9.1 3.7-4.7 4.3-5.8 4.4-10.3 1.7-1.8-1.1-4.1-2-5.1-2-1.9 0-12.3-5.6-13.3-7.1-0.3-0.5-2.2-0.9-4.2-0.9-2 0-4.2-0.4-4.9-0.8-0.7-0.4-2.6-4-4.3-8-1.7-4-4.9-9.6-7-12.5-2.2-2.8-4-5.5-4-5.8 0-1.4-3.3-1.9-4.7-0.7-1.2 1-1.7 0.9-2.4-0.5-1-1.7-4.9-2.4-4.9-0.8 0 0.4-2.2 2.2-5 3.9-5.5 3.4-6.1 4.8-2.8 6.1 2.2 0.8 4 3.4 9 13 2.8 5.4 7 10.5 11.5 13.9 1.7 1.2 2.4 3 2.7 6.5 0.4 3.7 1.2 5.4 3.5 7.6 2 1.9 2.8 3.4 2.5 4.8-0.6 2.2 2.2 5.7 3.7 4.7 0.5-0.3 0.8-3.2 0.7-6.4-0.1-3.3 0.1-6.2 0.5-6.6 0.4-0.4 1.9-0.2 3.3 0.5 2.7 1.2 2.7 1.2 2 9.7-0.6 7.6-0.5 8.5 1.1 9 1 0.3 2.6 1 3.5 1.5 2.4 1.3 5.2 1.1 6.6-0.3 1-1 1.9-0.8 4.3 0.6 2.8 1.6 3.3 1.7 7.6 0.2 5.2-1.8 10.3-6.1 10.3-8.6 0-0.9 0.9-2.5 2-3.5 1.1-1 2-2.3 2-2.9 0-0.6 1.4-2.6 3-4.5 1.7-1.8 3-4 3-4.8 0-2 2.4-1 2.9 1.2 0.1 1-0.5 2.2-1.4 2.7-1.5 0.9-1.5 1.2 0.3 3.1 1.1 1.2 2.2 4.4 2.6 7.1 0.5 4.3 1.3 5.5 5.9 9.7 5 4.6 9.7 6.9 14.4 6.9 1.2 0 3.4 0.5 4.8 1 2 0.8 2.5 1.5 2 2.9-0.7 2.2 4 7.6 6.5 7.6 1.1 0 1.5 1.1 1.4 4.3-0.1 3.6-0.7 5-4.2 8.5-2.3 2.4-4.2 5-4.2 5.8 0 2.2-2.1 3.9-4.7 3.9-1.7 0-2.3 0.6-2.3 2.3 0 4.9-3.1 11.4-7.5 15.7-2.6 2.6-4.5 5.3-4.5 6.6 0 2.9-1.6 4-6.8 4.9-5 0.8-6 2.3-3.7 5.9 0.9 1.4 1.4 3 1 3.6-0.8 1.3-4.1 1.3-6.6 0-1.4-0.8-2.8-0.6-5.6 0.8-2.1 1.1-5.7 2.2-8 2.6-2.2 0.3-5.9 1.8-8.1 3.2-3.8 2.5-3.9 2.8-3.4 7l0.5 4.4-5.4 2.5c-3 1.4-6.3 2.5-7.4 2.5-3 0.1-16.3 6.4-18.7 8.9-2.7 3-6.5 4.3-8.8 3.1-1.3-0.7-2.1-0.5-3.1 0.7-1.7 2-7.1 4.3-10.1 4.3-1.3 0-7 2.1-12.7 4.5-11.2 4.9-14.8 5.4-18.7 2.8-2.2-1.4-2.5-2.1-1.9-5.1 0.4-2.2 0.1-4.1-0.8-5.5-0.8-1.2-1.6-4.1-2-6.5-0.3-2.3-1.5-6-2.6-8.2-2.7-5.1-2.7-8.6-0.1-10 1.1-0.6 2-1.7 2-2.5 0-2.7-2.2-6.3-4.6-7.4-1.3-0.6-2.4-1.9-2.4-3 0-1.1-2-4.3-4.5-7.2-2.5-2.9-4.5-5.8-4.5-6.5 0-0.7-1.1-2.1-2.3-3.1-1.5-1.1-2.8-3.7-3.5-7.1-1.4-6.2-5.4-10.9-9.8-11.4-2.2-0.2-3.7-1.6-6.6-6-3.8-5.8-4.5-8.6-5.1-20.8-0.4-6.7-6.8-15.6-13-17.9-1.5-0.6-2.7-1.7-2.7-2.4 0-0.8-0.9-2.2-2-3.2-1.1-1-2.3-3.5-2.6-5.4-0.3-2-2.6-6.3-5-9.6-2.4-3.3-6-8.3-7.9-11.2-3.9-5.8-6.9-8.3-10.1-8.3-1.2 0-2.5-0.7-2.8-1.6-0.9-2.5-0.7-9.3 0.4-11.4 1.1-2 0.4-5-1.1-5-0.5 0-0.9 2.6-0.9 5.7 0 4.1-0.6 6.8-2 9.1-2.2 3.7-5.2 4-5.9 0.7-0.2-1.1-1.9-3.8-3.8-6-1.8-2.1-4.1-6.3-4.9-9.2-0.8-2.9-2-5.6-2.6-5.9-1.2-0.8-8.1-15.4-7.6-16 0.2-0.2 4.4 0.1 9.2 0.6 4.8 0.6 9.2 0.8 9.7 0.5 1.6-1 3.7-5.8 5.4-12.5 0.9-3.6 2.2-7.4 3-8.6 1.6-2.5 2.5-12.3 2.4-27.5 0-7.4 0.3-11.9 1-12.3 0.6-0.4 1.1-1.4 1.1-2.2 0-1.2-0.4-1.2-3.5 0-2.7 1.2-4.2 1.3-6.6 0.4-2.7-0.9-3.6-0.7-7.3 1.9-5 3.5-13.1 5.1-15.5 2.9-0.9-0.7-3.9-2.6-6.7-4.1-6.1-3.4-9.7-2.9-12.2 1.5-1.6 2.7-2.1 3-7.3 3-5 0-5.7-0.3-7.7-3-2-2.7-2.8-3-7.6-3-4.1 0-5.7-0.5-7.2-2.1-1.5-1.7-1.6-2.3-0.5-4 1.1-1.8 1-2.1-0.8-2.6-1.2-0.3-2.1-1.3-2.1-2.3 0-2.5-1.8-3.6-6.8-4.3-4.6-0.6-8.2-3-8.2-5.5 0-1.4 1.3-1.4 6.7 0.3 1.5 0.5 2.8 0 4.2-1.4 3.4-3.4 2.7-5.9-2.3-8.1-4.4-1.8-4.5-2-3.9-5.7 0.3-2.1 1-4.2 1.4-4.8 0.5-0.5 5.5-1.1 11.2-1.3 13.1-0.4 18.7-2.4 14.1-5-1.9-1.1-1.4-4.8 0.6-4.4 0.8 0.2 4.5 0.6 8.3 0.9 6.2 0.5 6.9 0.4 8.3-1.6 0.9-1.2 3.4-3.1 5.7-4.4 3.7-1.9 5.6-2.2 16.7-2.1 15.8 0.1 19.9 0.9 22.6 4.2 1.8 2.2 2.9 2.6 6.8 2.4 2.5-0.1 5.8 0.3 7.3 1 1.6 0.6 6.6 1.2 11.3 1.3 6.9 0.1 9.5-0.3 13.7-2.1 6.5-2.9 7.4-4.5 5.6-10.6-1.1-3.6-2.2-5.2-5.1-6.9-5-3.1-4.9-2.9-2.8-4.5 4.1-3 11.6-1.4 17.3 3.6 3.4 3 8.5 4 9.8 2 1.3-2.1 6.4-1 10.7 2.5 7.3 6 15.9 9.6 25.1 10.6 17.1 2 16.3 1.7 20.2 6.5 2 2.4 4.8 4.7 6.3 5 7.2 1.7 9.8 6.2 3.5 6-3.6-0.1-3.8 0.1-4.3 3.4-0.3 1.9-1.3 4.7-2.4 6.2-1.8 2.8-1.8 3.8 0 12.6 0.8 3.9 3.7 6.2 7.9 6.2 3.2 0 6.1 1.6 10.6 5.7 2.5 2.3 3.1 2.4 16.2 2.1 15.6-0.3 15 0.2 12.3-10-2.3-8.7-3.4-10.6-7-13-4.3-2.8-4.8-3.9-3.5-7.8 1.5-4 0.7-5.6-3-6.3-2.9-0.6-3.1-1-3.1-4.8v-4.1l4.3 0.6c2.3 0.3 5.8 0.8 7.9 1.2 3 0.5 3.8 0.3 4.7-1.4 0.9-1.6 0.7-2.4-0.5-3.6-0.8-0.9-2.2-1.6-2.9-1.6-0.7 0-3.2-2.1-5.4-4.7-3.7-4.4-4.2-4.6-6.8-3.7-2 0.7-2.7 1.5-2.4 2.9 0.8 3.7 0.6 6.8-0.5 7.2-1.3 0.4-5.2-8.8-6.2-14.7-0.7-4.1-1-4.4-3.7-4.5-2.1 0-3.3-0.7-4-2.3-0.6-1.3-1.8-2.2-3.2-2.2-1.4 0-2.3-0.6-2.3-1.5 0-0.8-1.1-2.2-2.5-3.1-1.3-0.9-2.7-2.4-3-3.5-0.4-1-1.5-1.9-2.5-1.9-2.7 0-4.4-3.4-2.5-5 1-0.8 1.9-0.8 3.4-0.1 1.1 0.6 2.7 1.1 3.5 1.1 2 0 2.1-2.9 0.1-3.6-2-0.8-1.9-5.3 0.2-6.1 0.9-0.3 4.2-0.2 7.5 0.3 5.3 0.9 7.3 0.5 4.8-1.1-0.5-0.3-1-3.2-1-6.4 0-3.4-0.6-6.5-1.4-7.7-1.3-1.7-1.8-1.8-4.7-0.7-2.9 1.1-3.9 1-7.7-0.9l-4.5-2.1-2.7 3.2c-2.1 2.7-3.6 3.4-7.3 3.8-3.8 0.5-5.2 1.2-6.9 3.6l-2.1 3-1.8-3.4c-1.1-2.1-1.8-5.6-1.9-9.3 0-5.5-0.2-6-4.1-9.6-3.6-3.2-4.2-4.5-4.6-8.7-0.4-3.7-0.1-5.2 1.1-6.2 1.6-1.3 2.7-1.1 5.8 1.1 1.4 1 2.2 0.8 4.4-1.2 1.4-1.4 3.6-4.5 4.9-7 3.4-6.6 5-7.7 13-8.4 10.9-0.9 14-1.6 15.4-3.7 1-1.7 0.9-2.6-0.8-5.2l-2-3.2 3.9-1.9c4.8-2.3 10.3-1.7 17.5 2.1 2.8 1.4 8.5 4.1 12.9 6l7.9 3.3 4.3-3.5c3.8-3.1 4.3-4.1 4.9-9 0.4-3 0.2-8.3-0.4-11.8-0.6-3.5-1.1-8.3-1.1-10.6 0-3.1-0.6-4.8-2.5-6.7l-2.4-2.4-4.2 4.5c-2.6 2.8-5.7 4.9-8.1 5.7-5.5 1.6-11.7-1.4-15.8-7.9-5.2-8.1-3.8-10.4 8.1-13.9 2.9-0.9 5.5-2.4 6.4-3.8 1.4-2.1 1.4-2.8-0.1-6.7-1.9-4.8-6.3-11.8-8.8-13.8-1.1-0.9-1.6-3-1.6-6.5 0-5-6.8-36.5-11-51.1-1.1-3.9-3.3-9.8-5-13.1-1.6-3.4-3-6.8-3-7.7 0-2 6.4-7.6 13.3-11.6 3.5-2 5.7-3.9 5.7-5 0-0.9-1.3-3.8-3-6.4-2.9-4.6-2.6-5.7 1-3.7 1 0.6 4.9 1.7 8.7 2.6 12.3 2.8 12.3 2.8 12.3 0.8 0-2.5-2.9-5.4-5.5-5.4-1.2 0-3-0.9-4-2-1-1.1-3.1-2-4.7-2-4.3 0-6.8-1.7-6.8-4.6 0-3.6-3-8.3-5.4-8.6-3.5-0.5-3.2-3.5 0.4-4.3 4.1-0.9 5.8-4.4 4.1-8.2-1.1-2.4-1-2.9 0.7-4.3 1.7-1.4 3.2-1.4 12.3-0.4 5.7 0.6 11.1 1.4 12.1 1.8 2 0.9 4.3 6 3.3 7.6-0.4 0.6 1.6 3.1 4.4 5.6 2.8 2.5 5.4 5.8 5.7 7.2 0.4 1.5 1.5 3.6 2.6 4.7 1 1.1 2.9 3.5 4.1 5.4 1.2 1.9 4 4.4 6.2 5.6 2.2 1.2 3.9 2.7 3.7 3.4-0.2 0.8 0.5 2.2 1.4 3.2 1.6 1.8 1.5 2.4-0.9 6.4-4.7 7.9-5.2 8.2-11 7.4-3-0.4-6.4-1.2-7.5-1.8-2.6-1.4-5.2-1.4-5.2-0.1 0 0.5 0.8 1 1.8 1 1 0 2.3 0.5 3 1.2 0.6 0.6 5.3 1.7 10.4 2.4 8.7 1.1 9.5 1.1 11.8-0.7 1.4-1.1 3.4-2.3 4.5-2.8 3.4-1.5 4.2-3.3 3.7-8.8-0.3-4.1-0.8-5.4-2.4-5.8-1.1-0.4-1.8-1.4-1.6-2.3 0.2-1.2 1.9-2 5.9-2.6 5-0.8 6.2-0.6 11.2 1.7 3.7 1.7 5.7 3.3 6.2 4.8 1.2 4 3.6 5.9 7.2 5.9 3.8 0 4.4-1.6 1-2.9-2.7-1.1-4.4-2.9-4.9-5.6-0.2-1.1-1.2-2.4-2.3-3-1.1-0.6-3.3-1.9-4.9-3-2.4-1.6-4.8-1.9-14.8-2.1l-12-0.2-3.9-4.3c-2.3-2.7-3.8-5.4-3.9-7.1 0-2.8-2.3-5.8-4.3-5.8-0.7 0-2.7-1.4-4.5-3.1-2.6-2.5-3-3.3-2.2-5 0.6-1 1.9-1.9 3-1.9 2.9 0 3.3-1.7 0.8-3.9-2.4-2.3-1.3-2.7 2.5-1 2.6 1.2 4.7 4.7 4.7 8 0 1.1 1 2.4 2.3 2.9 3.2 1.3 25.7 5.3 26.4 4.7 0.3-0.3-0.7-1.7-2.2-3-2.3-2-3.7-2.3-8.3-2.1-5.7 0.3-9.7-1-10.6-3.2-0.7-1.7 5.5-1.9 8.5-0.4 2.3 1.3 2.5 0.3 0.3-2.1-2.9-3.2-0.7-4 4.9-1.9 2.9 1.1 6.6 2 8.4 2 1.7 0 3.4 0.4 3.7 0.9 0.8 1.3 8.1 2.2 16.6 2.2 4.1 0 7.7 0 8-0.1 0.3 0-2-0.9-5-2-3-1.1-6.8-2.7-8.3-3.6-1.8-1-4.5-1.4-7.4-1.2-4.3 0.3-4.7 0.1-5.3-2.2-0.4-1.6-1.4-2.6-2.8-2.8-2.2-0.3-4.9-3.8-3.8-4.9 0.3-0.3 5.9-0.7 12.3-0.8 6.5-0.2 12.5-0.4 13.3-0.5 0.8-0.1 4.9 0 9 0.2 4.4 0.2 7.7-0.1 7.9-0.7 0.3-0.6-2.9-2.6-7-4.6-8.1-4.1-9.3-6.1-3.9-6.9 1.9-0.3 4.9-1.3 6.7-2.2 2.1-1.2 6.6-2 13.3-2.4 8.4-0.6 10.4-1 11.3-2.6 1.5-2.3 11.4-2.5 15.8-0.2 2.5 1.2 4 1.3 8 0.5 2.8-0.6 6.6-1.1 8.5-1.1 2.8 0 3.7-0.5 4.1-2 0.5-1.8 1.1-2 4.9-1.4 4.8 0.7 4.8 0.7 3.4-3.1-0.7-1.8-0.7-3.3 0.1-4.6 1-1.9 1.8-2 11.6-1.6zm-138.1 307.7c-2.1 0-3.8 2.7-3.1 5 0.5 1.5 0.2 2-1.3 2-1.1 0-2.2 0.9-2.5 1.9-0.3 1.2-1.5 2.1-3.3 2.3l-2.9 0.3-0.3 8.2c-0.3 7.4-0.1 8.3 1.8 9.3 1.2 0.6 2 2.1 2 3.6 0 2.5 0.1 2.5 5.5 1.9 4.5-0.6 5.6-0.4 6.1 0.9 0.5 1.3 1.5 1.5 4.8 1 2.2-0.4 4.3-0.8 4.5-1.1 0.3-0.2 0.4-2.4 0.2-4.9-0.2-3.8 0.2-5 2.3-6.9 3.1-2.8 2.7-4.5-2-8-3.8-2.9-4.5-7-1.9-11.5 1.8-3.2 1.8-4 0-4-0.8 0-1.9 0.9-2.5 2-0.6 1.1-1.6 2-2.3 2-0.7 0-1.8-0.9-2.5-2-0.7-1.1-1.8-2-2.6-2z"/><path class="a" d="m487.1 70.9c-0.7 0.5-1 1.4-0.7 2 0.8 1.3 4.6-0.3 4.6-1.9 0-1.2-2-1.3-3.9-0.1z"/><path class="a" d="m775.4 81.5c-0.4 0.8 0.6 3.1 2 5 2.3 2.9 3.3 3.5 6.5 3.5 2.2 0 4.9 0.8 6.2 1.8 3.8 2.9 5.5 3.2 11.1 1.8 8.5-2.2 16.5-2.8 20.1-1.7 3.5 1.2 10.8-0.6 11.5-2.8 0.6-1.9-1.9-4.2-4.2-3.9-4 0.5-23.1-2.3-26.9-3.9-4.2-1.8-5.7-1.1-3.9 1.7 1.5 2.5 1.6 2.5-6.4-0.5-7.6-2.9-15.1-3.3-16-1z"/><path class="a" d="m766 84.5c0 1.7 2.2 4.5 3.6 4.5 2.5 0 1.3-4.4-1.3-4.8-1.3-0.2-2.3-0.1-2.3 0.3z"/><path class="a" d="m839 88c0 1.9 3.1 3 8.6 3 4 0 7.7 0.7 10.5 2 5 2.2 14.8 2.7 16.7 0.8 2.6-2.6 1.3-3.8-4.2-3.8-2.9 0-6.9-0.7-8.9-1.5-3.4-1.4-22.7-1.9-22.7-0.5z"/><path class="a" d="m817 98.5c0 1.1 1.1 1.5 3.8 1.5 3.5-0.1 3.6-0.2 1.8-1.5-2.6-1.9-5.6-1.9-5.6 0z"/><path class="a" d="m826.5 103c-1 1.1-1.6 2.2-1.4 2.4 0.2 0.2 4.9 0.9 10.3 1.5 5.5 0.6 11 1.4 12.4 1.8 1.9 0.4 2.3 0.2 2-1.2-0.4-2.1-8.2-4.9-16.2-5.9-4.5-0.6-5.5-0.4-7.1 1.4z"/><path class="a" d="m1079.8 138.1c-2.4 1.4-2.2 2.5 0.4 3.3 3 0.7 4.7-1 2.8-2.9-1.1-1-2-1.1-3.2-0.4z"/><path class="a" d="m1245 288.7c0 1.3 5.3 6.3 6.7 6.3 2.7 0 1.2-2.7-2.9-5.3-3-1.8-3.8-2.1-3.8-1z"/><path class="a" d="m1261 291.4c0 1.4 3.6 4.6 5.3 4.6 0.4 0-0.2-1.4-1.5-3-2.4-3.3-3.8-3.8-3.8-1.6z"/><path class="a" d="m1057.4 295.5c-0.4 1 0.3 2.6 1.9 4.3 1.9 1.9 2.5 3.4 2 5-0.4 1.8 1 3.8 7.3 10.5 4.2 4.5 9.5 9.4 11.7 10.9 3.9 2.7 10.6 12 10.7 14.7 0 0.7 1.8 3 4 5 2.5 2.3 5 5.9 6.5 9.6 1.9 4.9 2.9 6.1 5.3 6.7 2.5 0.7 3 1.4 3.6 4.7 0.3 2.2 2.1 6 4.1 8.5 1.9 2.6 3.5 5.2 3.5 6 0 1.8 3.3 4.6 5.3 4.6 1.1 0 1.7-0.8 1.7-2.5 0-2.9 1.5-3.2 6.7-1.3 2.4 0.9 3.6 0.9 4.4 0.1 0.8-0.8 0.1-1.7-2.7-3.1-6-3.1-17.4-14-17.4-16.7 0-1.2-0.9-3.4-2-4.8-2.4-3-2.5-4.3-0.5-5.1 2.2-0.8 5.9 0.9 8.7 3.9 1.6 1.7 3 2.4 4.1 1.9 2.5-0.9 2.1-2-1.5-4.5-1.8-1.2-5.6-4.4-8.5-7.1-2.8-2.6-5.7-4.8-6.4-4.8-2.6 0-7.7-5.1-10.8-10.9-2.6-5-3.9-6.3-6.2-6.8-1.6-0.3-3.4-1.4-4-2.4-0.5-1.1-1.6-1.9-2.3-1.9-0.8 0-2.4-2-3.6-4.5-2.2-4.6-10.6-12.5-13.3-12.5-0.9 0-2.6-1.3-3.9-2.9-1.3-1.5-3.5-3.6-5-4.6-2.6-1.6-2.8-1.6-3.4 0z"/><path class="a" d="m1325.4 313.1c-0.7 1.3 1.3 2.9 3.6 2.9 1.7 0 4.7-1.7 4-2.3-1.3-1.1-7-1.5-7.6-0.6z"/><path class="a" d="m1338 317.5c0 1.8 2.4 3 3.9 2.1 1.6-1 0.1-3.6-2-3.6-1 0-1.9 0.7-1.9 1.5z"/><path class="a" d="m1377.6 322.7c-1.1 1.1-0.6 2.3 0.9 2.3 0.8 0 1.5-0.4 1.5-0.9 0-1.3-1.6-2.2-2.4-1.4z"/><path class="a" d="m1201.3 332.7c-1.6 0.6-1.7 3.3-0.3 3.3 1.1 0 2.6-2.8 1.9-3.4-0.2-0.2-1-0.1-1.6 0.1z"/><path class="a" d="m1205.7 336.5c-2.1 2.1-3.1 5.5-2 6.6 1.8 1.8 6.3-0.8 6.3-3.5 0-3.4-2.3-5.1-4.3-3.1z"/><path class="a" d="m1206.6 347.8c-0.3 0.6-0.1 1.4 0.5 1.7 1.5 1 2.5-0.3 1.2-1.6-0.7-0.7-1.3-0.7-1.7-0.1z"/><path class="a" d="m1192.4 387.6c-1.1 1.6-1.4 2.8-0.7 3.5 1.4 1.4 4.3 0 4.3-2.2 0-1 0.5-1.9 1-1.9 0.6 0 1-0.5 1-1 0-2-4-0.9-5.6 1.6z"/><path class="a" d="m1179.4 395.6c-1.8 2.6-2.3 7.8-1 9.1 1.1 1.1 4.1-1.2 4.4-3.4 0.2-1.2 1.2-2.9 2.3-3.9 2.8-2.5 2.4-4.4-1.1-4.4-2.1 0-3.5 0.8-4.6 2.6z"/><path class="a" d="m1127 395.5c-1.1 1.3-0.7 2.1 2.4 4.9 2.3 2.3 3.6 4.4 3.6 6 0 1.4 0.5 2.6 1 2.6 1.1 0 2.6 3.2 3.2 6.6 0.2 1.3-0.3 1.9-1.8 2-3.6 0.2-4.5 1.3-3.3 3.6 0.9 1.6 0.7 2.6-1 4.9-1.2 1.5-2.1 3.4-2.1 4.2 0 1.9 2.1 3.7 4.3 3.7 1 0 3.1 1.4 4.6 3 2.5 2.8 2.9 3 6.2 1.9 1.9-0.7 3.8-1.6 4.3-2 1.4-1.2-2.1-4.6-5.9-5.9-3.1-1-5.2-3.6-4-4.8 0.3-0.3 1.7 0 3.1 0.7 2.2 1 3 0.9 4.4-0.4 2.4-2.2 3.8-1.9 8.4 1.8 8.8 7.2 11.6 7.3 11.6 0.4 0-5 1.1-6.4 5.5-6.9 2.2-0.2 3.1-0.9 3.3-2.6 0.2-1.3-0.1-2.9-0.7-3.6-0.6-0.7-0.8-2.7-0.5-4.4 0.8-4.1-0.2-6.8-1.9-5.4-0.7 0.6-4.3 1.4-7.9 1.8-6.1 0.6-7.2 0.4-13.2-2.4-3.7-1.7-9.2-4.9-12.3-7.2-5.9-4.2-9.2-5-11.3-2.5z"/><path class="a" d="m1149 440.4c-1.9 0.7-3.5 1.8-3.5 2.5 0 0.6-0.7 1.6-1.5 2.1-1.2 0.7-1.2 1.2-0.2 2.2 0.6 0.6 1.2 3.1 1.2 5.3 0 4.1 2.2 7.5 4.7 7.5 1.2 0 2.3 7 2.4 15.3 0.1 4-0.4 6.4-1.5 7.6-0.9 1-1.6 2.3-1.6 2.9 0 1.6-3.9 3.5-5.7 2.8-0.9-0.4-1.3-1.4-1-2.6 0.6-2.2-1.1-3.1-3.5-1.8-1.3 0.6-1.8 2.1-1.8 4.9 0 2.2-0.7 5.6-1.5 7.5-0.8 2-1.2 4.7-0.9 6 0.7 2.8 0.5 2.9-4 0.8-3.1-1.5-4.3-1.6-11.3-0.3-7.6 1.3-8 1.5-13.3 7-3 3.2-6.4 5.9-7.4 6.1-2.5 0.4-3 1.9-1.3 4.2 2 2.7 12.8 3.1 16.1 0.5 1.3-1 3.3-1.9 4.4-1.9 1 0 3-0.8 4.3-1.9 1.6-1.2 4.7-2 9.7-2.3l7.2-0.5v4.2c0 4.3 1.5 6.5 5.4 7.9 2.2 0.8 6.6-1.8 6.6-3.9 0-0.7 0.8-2.1 1.7-3.1 1.6-1.6 1.5-1.8-1.1-3.9-1.6-1.3-2.5-2.8-2.2-3.4 1.2-1.9 4.3-1.2 6 1.5 1.7 2.4 2 2.5 8.9 1.8 7.6-0.7 10.5-2 8.7-3.8-3-3 0.9-5.9 4.1-3 2 1.8 2.1 1.8 4-0.5 2.5-3.1 2.4-5.4-0.6-8.9-1.6-1.9-3-5.3-3.6-8.9-0.6-3.2-1.7-7.3-2.5-9.2-1.3-3-1.2-3.6 0.2-5.2 1.5-1.7 1.5-2.2-0.6-7.6-4.2-10.6-6.7-14.8-10.9-18.1-2.2-1.8-4.9-3.2-5.8-3-1.5 0.2-1.8-0.4-1.8-3.7 0-4.5-1.1-5.1-6.5-3.1z"/><path class="a" d="m178 503.5c-0.7 0.8-2.7 1.5-4.5 1.5-3.6 0-7.1 3.1-6.2 5.5q0.6 1.5 4.5 1.5c7.4 0 16.1-8.9 9.6-9.8-1.1-0.2-2.7 0.4-3.4 1.3z"/><path class="a" d="m1124.4 520.5c-0.4 0.9-1.9 1.5-3.8 1.5-2.6 0-3.4 0.6-4.8 3.8-1.5 3.2-1.6 4.3-0.6 7 2 5.1 8.7 5.7 7.4 0.7-0.9-3.6 1.5-4.9 5.9-3.4 4.3 1.6 5.5 0.5 5.5-5.4 0-3.1-0.4-3.9-2.6-4.7-3.7-1.4-6.4-1.2-7 0.5z"/><path class="a" d="m1092.2 526.8c-2.1 1.8-2.9 3.1-2.3 3.7 0.5 0.6 1.1 2.1 1.3 3.5 0.4 3.5 3.3 3.7 5 0.3 1.5-3.2 4.5-3.7 6.2-1.1 0.8 1.3 0.8 2.3-0.1 3.7-0.8 1.2-0.8 2.2-0.1 2.9 0.6 0.6 0.6 1.6-0.3 2.9-1 1.7-0.9 2.4 0.4 4.4 1 1.3 1.7 3.1 1.7 4.1 0 1.7 3.6 4.8 5.5 4.8 1.2-0.1 5.5-6.6 5.5-8.5 0-0.8-0.5-1.7-1.1-2-0.6-0.4-1-3-0.9-5.9 0.2-7.3 0.3-7.1-2.6-10.5-1.9-2.3-3.4-3.1-5.9-3.1-1.9 0-3.7-0.5-4-1-1.1-1.8-4.9-1-8.3 1.8z"/><path class="a" d="m1058 527.5c-0.7 0.8-1.1 1.8-0.8 2 0.9 1 6.9-0.8 6.5-1.9-0.6-1.8-4.2-1.8-5.7-0.1z"/><path class="a" d="m1109.9 562.6c-1.1 1.4-1 1.5 1.1 1.2 1.3-0.1 2.5-0.9 2.8-1.6 0.5-1.7-2.3-1.5-3.9 0.4z"/><path class="a" d="m1105 586c-3.5 3.5-2.4 4.7 2.8 3.4 2.5-0.7 3-3.9 0.7-4.8-0.9-0.3-2.4 0.3-3.5 1.4z"/><path class="a" d="m398.7 600.8c-1.6 1.8-1.6 2-0.1 3.2 2 1.7 4.9 0.2 4.9-2.6 0-2.6-2.7-2.9-4.8-0.6z"/><path class="a" d="m1097.6 605.2c-1.1 1.6-1.3 2.5-0.4 3.5 1.5 1.9 2.8 1.6 2.8-0.6 0-1 0.7-2.2 1.6-2.5 0.8-0.3 1.2-1 0.9-1.6-1-1.7-3.3-1.1-4.9 1.2z"/><path class="a" d="m348 607.4c0 0.8 0.4 1.7 0.9 2 1 0.7 2.3-1.9 1.4-2.8-1.1-1.1-2.3-0.6-2.3 0.8z"/><path class="a" d="m1036.8 622.7c-3 3.6-6 14.3-5.6 19.9 0.5 5.9 5 13.7 7.6 13.2 0.8-0.2 2-2.4 2.7-5.1 0.7-2.7 1.7-5.3 2.4-6 1.6-1.6 1.4-4.3-0.5-6.2-1.4-1.3-1.5-2.1-0.5-4.1 3.5-7.7-1.4-17.2-6.1-11.7z"/><path class="a" d="m933.9 682c-7.6 4-10.8 10.8-7.4 15.7 2.9 4.2 16.5 4.1 16.5-0.1 0-0.8 0.7-1.9 1.5-2.6 0.9-0.7 1.3-2.1 1-3.1-0.4-1.2-0.1-2.1 0.9-2.5 1.6-0.6 2.1-4.8 1-7.8-0.9-2.3-8.9-2-13.5 0.4z"/><path class="a" d="m1045.2 698.3c-2 2.3-2.3 6.4-1.3 13.8 0.6 4.1 1.4 8.5 1.7 9.9 0.6 2.1 0.4 2.3-0.7 1.2-1.8-1.6-4.4-1.5-5.9 0.3-0.9 1.1-0.4 2.8 2.7 8.5 2.4 4.4 4.5 7.2 5.8 7.5 8.1 1.6 7.8 1.4 7.3 4.8-0.8 5.2-0.2 5.7 6.8 5.7 5.9 0 6.5 0.2 8.6 3 2.6 3.6 4.4 3.8 5.1 0.8 0.6-2.1 0.7-2.1 2.7-0.3 2.1 1.9 2.7 4.5 1 4.5-1.6 0-1.1 2.8 0.7 3.9 1.6 0.9 1.6 1.1-0.2 4.5-1.1 1.9-1.7 3.7-1.5 3.9 0.3 0.3 2.6 0.8 5.3 1.1l4.7 0.7v-3.6c0-2 0.5-4.5 1.1-5.7 0.9-1.6 0.7-2.4-1-3.9-1.2-1.1-2.1-3.2-2.1-4.9 0-3.2-4.7-7.4-7.3-6.4-0.8 0.3-1.7-0.2-2-1-0.5-1.2-2.1-1.6-6.2-1.6-4.8 0-5.5-0.2-5.5-2 0-1-0.8-2.4-1.9-2.9-1.2-0.7-2-2.6-2.4-5.5-0.6-3.8-0.1-5.4 3.5-12.1l4-7.8-3-6.1c-1.7-3.4-3.5-7.3-4-8.7-1-2.4-1.5-2.6-8-2.7-4.5-0.1-7.4 0.3-8 1.1z"/><path class="a" d="m776.7 754.4c-2.2 2.2-3 15.9-1.2 20.2 1 2.5 2 3.4 3.2 3.2 1.5-0.3 1.8-1.9 2.1-12.6 0.3-10.4 0.1-12.2-1.1-12.2-0.9 0-2.2 0.6-3 1.4z"/><path class="a" d="m1053 754.2c0 0.6 1.1 2.3 2.5 4 2.6 3.1 3.2 6.2 1.5 7.3-1.8 1.1-1.1 2.5 1.3 2.5 1.3 0 3.1-0.8 4-1.8 2.1-2.3 2.2-8.5 0.2-10.2-2-1.7-9.5-3-9.5-1.8z"/><path class="a" d="m387.3 761.6c-0.7 0.3-1.3 1.4-1.3 2.5 0 1.5 0.7 1.9 3.5 1.9 1.9 0 3.5-0.4 3.5-0.9 0-0.5 1.1-1.1 2.5-1.3 4.6-0.5 3.1-2.3-2-2.5-2.7-0.1-5.6 0-6.2 0.3z"/><path class="a" d="m1094.2 765.7c-0.6 1.6-1.7 5-2.3 7.8-1.8 7.9-3.1 9.3-8.6 9.7-4.6 0.3-4.8 0.4-5.3 3.9-0.4 1.9-1.4 4.6-2.3 5.9-2.5 3.5-2.1 5.8 1.4 9.1 4.7 4.4 6.3 3.9 9.8-3.7 1.7-3.6 3.6-8.3 4.2-10.5 0.7-2.2 1.8-4.4 2.4-4.9 1.2-1 1.9 0.2 3.9 6.2 0.7 2.2 4.4 2.4 5.3 0.2 0.3-0.8 0.1-2.6-0.5-3.8-0.8-1.8-0.7-2.9 0.4-4.5 1.6-2.2 1.2-8.8-0.8-14.1-1.8-4.7-6-5.4-7.6-1.3z"/><path class="a" d="m1068.6 765.8c-0.4 0.7-0.2 2.9 0.4 5.1 0.7 2.7 0.7 4.8 0 6.6-1.5 4-1.2 8.2 0.6 8.9 2 0.8 10.1-4.2 10.7-6.6 0.8-2.7-2.1-5.9-5.1-5.6-2.2 0.3-2.7-0.2-3.2-2.7-0.9-4.3-2.6-7-3.4-5.7z"/><path class="a" d="m1047.4 767.5c-1 2.5 0.4 4.7 2.8 4.3 2.8-0.4 3.3-2.1 1.3-4.2-2-2-3.4-2-4.1-0.1z"/><path class="a" d="m1042 782.9c0 1.7-0.5 3.3-1 3.6-0.6 0.4-2.3 2.5-3.7 4.8-1.5 2.3-5.3 6.9-8.5 10.2-5.5 5.7-7 8.7-4.9 10 1.6 0.9 7.9-2.7 8.5-4.9 0.3-1.2 1.8-2.8 3.4-3.7 2.1-1.2 3.1-2.7 3.6-5.2 0.4-2.2 1.3-3.7 2.5-4 1-0.2 2.6-2 3.6-4 1.5-3.2 1.5-3.8 0-6.6-2-3.9-3.5-4-3.5-0.2z"/><path class="a" d="m775.5 784c0.3 0.5 1.3 1 2.1 1 0.8 0 1.4-0.5 1.4-1 0-0.6-0.9-1-2.1-1-1.1 0-1.7 0.4-1.4 1z"/><path class="a" d="m1091.8 793.1c-2.2 1.2-2.3 5.5-0.2 6.3 0.8 0.3 2.6-0.2 4-1.1 4.8-3.1 1.1-8.2-3.8-5.2z"/><path class="a" d="m654 795.5c-1 1.2-1 1.9 0.3 3.8 1.6 2.5 1.4 9.4-0.5 12.9-0.5 1.1-0.5 2.6 0.2 3.8 0.8 1.4 0.7 2.5-0.2 3.9-1 1.6-1 2.7 0 5.4 0.7 1.8 1.2 4.7 1.2 6.3 0 4.1 1.6 5.4 6.7 5.4 3.7 0 4.9-0.6 8.4-4 3.9-3.8 4.1-4.2 3.4-8.2-0.4-2.4-1.3-5-1.9-5.8-2.3-2.8-6.6-11.2-6.6-13 0-1-0.7-2.3-1.6-3.1-0.9-0.7-2.3-2.9-3.2-4.8-1.9-4-4.2-5-6.2-2.6z"/><path class="a" d="m1104.7 796.7c-0.4 0.3-0.7 2-0.7 3.8 0 3.8-1.3 5.5-6.3 8.3-4.5 2.6-5.7 2.7-5.7 0.8 0-2.3-1.8-2.8-5.5-1.6-2.2 0.7-4.1 2.3-5 4.1-0.9 1.6-2.2 2.9-2.9 2.9-0.7 0-2.5 0.9-4 2.1-2 1.6-2.6 2.9-2.6 5.9 0 5.1 3 7.2 5.4 3.8 0.9-1.2 1.6-3 1.6-4 0-2.4 1.4-3 4.3-1.9 1.8 0.7 3 0.6 4.3-0.4 2.2-1.6 12-2 12.9-0.5 0.3 0.5-0.5 1.5-1.9 2.1-3.3 1.5-4 3.8-2.6 8.8 0.9 3.3 1.9 4.5 6.4 7 8.7 5 11 3.9 7.6-3.6-1.1-2.5-1.8-5.5-1.4-6.5 0.8-2.8 3.8-1.8 4.2 1.4 0.4 3.2 2.6 5.3 4.7 4.4 1.2-0.4 1.5-2.4 1.5-8.9 0-7.6-0.2-8.6-2.5-10.7-1.8-1.7-2.3-3-1.9-4.6 0.6-2.4-1.7-7-5.6-11.2-2.2-2.3-3.2-2.7-4.3-1.5z"/><path class="a" d="m1196.7 819.7c-1 0.9-0.9 6.3 0.1 6.3 0.8 0 1.6-1.4 4-6.3 0.5-0.9-3.2-1-4.1 0z"/><path class="a" d="m790.7 824.2c-0.5 1.6 1 4.8 2.4 4.8 1.4 0 0.7-5.2-0.7-5.7-0.7-0.2-1.4 0.2-1.7 0.9z"/><path class="a" d="m1019.2 828.6c-1.3 0.9-2.2 2.6-2.2 4.1 0 1.6-1.5 4.5-3.9 7.3-2.1 2.5-4 5.5-4.3 6.5-0.3 1.6-1.2 2-4.2 2-3.1 0-4 0.4-4.7 2.2-0.5 1.3-1.5 2.3-2.4 2.3-0.8 0-2.3 1.5-3.2 3.3-3.5 6.5-8.5 13.7-10.3 14.7-1 0.6-3.9 1-6.3 1-4.3 0-4.6 0.2-7.1 4.4-1.4 2.5-2.6 5.8-2.6 7.5 0 3.8-1.6 4.8-4 2.6-1.1-1-2.6-1.4-3.8-1.1-1.2 0.4-2.5-0.1-3.7-1.4-2.3-2.6-3.3-2.5-6.9 0.5-2.6 2.1-3 3.2-3.4 8.8-0.3 4.6 0 7.3 1.3 9.6 1.2 2.4 1.3 3.6 0.5 4.6-0.8 1-0.5 1.9 1.2 3.8 6.2 6.6 6.8 7.8 7.2 14.3 0.3 4.1 1.1 7 2.1 8.1 1 1 1.4 2.5 1.1 3.9-0.4 1.3-0.1 2.4 0.6 2.6 1.1 0.4 8.8-0.5 11.7-1.3 0.9-0.2 1.7 0.6 2.1 2.1 0.5 2.1 1.2 2.5 4.5 2.6 2.2 0.1 5.1-0.4 6.5-1.1 2.1-1.1 3.1-1.1 6 0.2 1.9 0.8 4.8 1.5 6.4 1.6 2.5 0.2 3.1 0.8 4 4.2 1.5 5.3 3.8 5.5 9.9 0.9 5.9-4.3 10.7-13.4 10.7-20.3 0-4.1 0.4-4.8 5.1-9l5.2-4.6 0.1-7.7c0.2-9.7 1.3-11.2 7.7-10.5 3 0.4 5.3 0.1 6.4-0.7 1.6-1.2 1.5-1.5-1.6-5-1.8-2.1-4.3-4.2-5.5-4.6-1.9-0.8-2.2-1.4-1.7-4.9 0.5-3.4 0.2-4.3-2-6.3-3.5-3.3-4.8-11.9-2.2-14.8 1-1.1 2.4-2 3-2 0.7 0 2.3-0.8 3.5-1.8l2.3-1.9-2.2-1.5c-2-1.4-2.1-1.7-0.6-3.2 0.9-0.9 2.7-1.6 3.9-1.6 1.3 0 2.9-0.7 3.6-1.5 1.1-1.3 0.9-2-1-4-1.3-1.4-3.2-2.5-4.2-2.5-1.8 0-7.6-3.5-9-5.5-0.4-0.5-0.4-1.3-0.2-1.7 0.3-0.5-0.9-2.2-2.6-3.8-3.6-3.4-7.3-3.8-10.8-1.4z"/><path class="a" d="m1072.2 833.2c0.6 1.8 2.2 2 4.3 0.3 1.9-1.4 1.8-1.4-1.3-1.5q-3.3 0-3 1.2z"/><path class="a" d="m1065.2 837.1c-1.3 0.5-2 1.3-1.7 1.9 0.8 1.3 4.2 1.3 5.1-0.1 1-1.7-0.9-2.8-3.4-1.8z"/><path class="a" d="m809.4 841.5c-1.1 2.7 0.6 8.5 3.5 11.8 1.5 1.7 3.4 4.2 4 5.5 0.7 1.3 3.2 3.2 5.6 4.2 2.4 1 4.9 2.9 5.6 4.2 0.7 1.3 2 2.9 3.1 3.6 1.1 0.9 1.8 2.6 1.8 4.8 0 5 1.5 7.2 5.6 8 4.4 0.8 5.7 2.9 8 12.8 1.7 6.9 2.2 8 4.7 8.8 1.5 0.6 2.7 1.4 2.7 1.9 0 0.5 1 1.9 2.2 3.1 1.2 1.2 3.2 5 4.4 8.4 1.2 3.4 3.3 8.1 4.7 10.5 1.4 2.4 3.7 6.6 5 9.4 1.3 2.7 3.4 5.9 4.7 7 1.2 1.1 2.8 3.2 3.6 4.7 0.8 1.6 2.9 3.4 4.7 4.2 3.5 1.5 13.7 11.2 13.7 13.1 0 0.6 0.9 2 1.9 2.9 1.8 1.6 2.1 1.6 5.1 0.1 2.9-1.5 3.3-1.5 5.7 0 3.7 2.4 4.3 0.9 4.3-11.4 0-9.6 0.2-10.7 2.6-13.8l2.5-3.3-4.3-5c-2.7-3.1-5.1-5-6.4-5-2.7 0-8.4-8.4-8.4-12.2 0-2.9-2.1-5.1-4.5-4.6-3.1 0.6-4-2.5-2.2-7.8 1.4-4.5 1.4-5 0-6.6-0.9-1.1-3-1.8-5-1.8-3.3 0-3.4-0.1-2.8-3.3 0.8-4.3-1.4-6.7-6-6.7-3.1 0-3.4-0.3-3.7-3.3-0.3-2.9-0.6-3.2-3.4-3-2.4 0.2-3.6-0.3-4.8-2.2-1-1.6-2.6-2.5-4.2-2.5-1.6 0-3.6-1.2-5.2-2.9-1.5-1.7-4.1-4.5-5.8-6.4-1.8-1.9-3.7-4.4-4.3-5.6-0.7-1.1-1.9-2.1-2.7-2.1-2.2 0-8.4-5.2-8.4-7.1 0-0.9-1.5-3.3-3.3-5.3-3.2-3.4-3.6-3.6-9.9-3.6-5.6 0-7.1-0.4-9.6-2.5-3.5-2.9-4.1-3-4.8-1z"/><path class="a" d="m1183 853.5c0 0.8 0.9 1.9 2 2.5 1.6 0.9 2.2 0.8 2.6-0.4 0.3-0.8 0.3-2-0.1-2.6-0.9-1.5-4.5-1.2-4.5 0.5z"/><path class="a" d="m1121.4 856.5c-0.7 1.7 0.4 3.7 1.7 3 1.2-0.8 1.2-4.5-0.1-4.5-0.6 0-1.3 0.7-1.6 1.5z"/><path class="a" d="m812.9 873.6c-1 1.3-1 1.7 0.2 2.5 0.8 0.5 2.2 0.9 3.1 0.9 0.9 0 2.3 0.3 3.2 0.6 2.2 0.9 2.1-1.9-0.2-3.9-2.3-2.1-4.6-2.2-6.3-0.1z"/><path class="a" d="m1139.1 877.4c-1 1.2-1 2.2-0.2 4.1 1.6 3.6 2.6 3.5 2.9-0.4 0.4-4-1-5.8-2.7-3.7z"/><path class="a" d="m1133.7 883.8c-1 1-2.4 4-3.3 6.6-1.5 4.2-1.5 5 0 8.6 2.2 5.6 2 7.7-1.1 11.4l-2.6 3.1 3.4 0.3c1.9 0.2 4.2 1.1 5.1 1.9 1.4 1.3 2.1 1.3 3.2 0.3 1.3-1 1.3-1.5-0.5-3.9-1.3-1.7-1.9-3.9-1.7-5.7 0.2-2.4 0.8-3 3.3-3.2 5.2-0.5 5.7-0.9 4.4-3.3-0.8-1.6-0.8-2.7 0.1-4.4 0.6-1.2 1-3.5 0.8-5.1-0.3-2.9-1.5-3.4-5-1.9-1.4 0.5-1.8 0.2-1.8-1.3 0-2.6-1-5.2-2-5.2-0.4 0-1.4 0.8-2.3 1.8z"/><path class="a" d="m1103.8 888.5c-0.6 1.4-1.7 2.5-2.5 2.5-0.7 0-1.8 1.1-2.3 2.5-0.9 2.3-1.3 2.5-8.2 2.3-4 0-8.2-0.5-9.3-1.1-1.1-0.6-4.9-1.7-8.4-2.4-6.4-1.3-6.5-1.3-8.8 1.1-1.3 1.4-4.1 3.1-6.3 3.7-3.9 1.2-5.2 3-4.8 6.9 0.4 4.9-0.4 11-1.7 12.2-0.8 0.7-2.1 1.9-3 2.6-1 0.9-1.5 3.1-1.5 6.7 0 3.6-0.7 6.5-2.1 8.9-1.2 2.1-1.9 4.8-1.7 6.8 0.3 3 0.6 3.3 3.5 3.1 6.3-0.5 8.1 6.8 4.2 17.2-1.1 3.1-1.8 6.2-1.5 7 0.7 1.9 9.1 2.1 10.2 0.3 0.5-0.7 0.9-8.1 0.9-16.6 0.2-15.6 0.7-17.7 4.1-17 1.6 0.3 1.9 1.3 1.9 7.3 0 6.5 0.1 6.9 2.5 7.5 1.8 0.5 2.4 1.2 2.2 2.6-0.2 1-0.5 3.2-0.5 4.9-0.2 2.6 0.2 3 2.5 3.3 2.2 0.3 3-0.2 3.8-2.3 0.8-2.2 1.5-2.6 4.2-2.3 2.8 0.3 3.3-0.1 3.6-2.1 0.3-1.5-0.6-3.3-2.4-5.2-2.5-2.6-2.6-3.1-1.4-5.4 1.2-2.3 1-2.8-3.4-8-5.4-6.2-5.5-8.7-0.3-10.4 1.7-0.7 4.7-2.6 6.5-4.4 1.8-1.8 4.3-3.2 5.5-3.2 2.6 0 3.6-3.6 1.5-5.2-1.8-1.5-11.8-0.4-11.8 1.3 0 0.8-1.6 1.4-4.2 1.6-3.4 0.2-4.3 0.7-4.3 2.2 0 2.8-2.9 4.3-5 2.6-0.9-0.7-1.4-1.9-1.1-2.6 0.3-0.7-0.5-2.1-1.8-3.1-1.6-1.2-2.5-3.2-2.9-6-0.7-5.9 0.5-6.7 8.7-5.2 5.5 1 7.1 1 10.5-0.3 2.3-0.9 4.4-1.2 5.2-0.7 2 1.2 15.6 1.1 18-0.1 2-1.1 7.9-11.9 7.9-14.5 0-2.6-4.9-1.9-6.2 1z"/><path class="a" d="m585.7 899.2c-0.7 2.7-0.1 3.9 1.8 3.1 1.9-0.7 2-5.3 0.1-5.3-0.7 0-1.6 1-1.9 2.2z"/><path class="a" d="m901.4 907.1c-0.3 0.6-0.2 1.5 0.4 2.1 1.5 1.5 4.6 0.5 5-1.5 0.3-1.2-0.3-1.7-2.2-1.7-1.4 0-2.8 0.5-3.2 1.1z"/><path class="a" d="m839.7 908.6c-1.4 1.4-0.7 3.5 1.1 3.2 0.9-0.2 1.7-1 1.7-1.7 0-1.6-1.8-2.5-2.8-1.5z"/><path class="a" d="m1160.6 914.7c-0.9 0.9-0.7 3.3 0.3 3.3 1.2 0 2.2-2.8 1.2-3.4-0.5-0.3-1.1-0.3-1.5 0.1z"/><path class="a" d="m842.3 916.7c-3.2 1.1 0.3 7.3 4 7.3 2 0 2 0.1 0.6-3.8-1.1-3.2-2.5-4.2-4.6-3.5z"/><path class="a" d="m1085.7 920.8c-2.4 2.6-2.1 3.2 1.6 3.2 3.9 0 6.6-1.5 5.2-2.8-2.2-2.1-5.2-2.2-6.8-0.4z"/><path class="a" d="m1130.2 922.2c-1.4 1.4-1.6 4.4-0.3 5.3 0.5 0.3 1.3 0 1.6-0.6 0.4-0.5 2.2-0.9 4.1-0.7 1.8 0.1 3.4-0.1 3.4-0.5 0-0.4 0-1.1 0-1.5 0-1-4.4-3.2-6.3-3.2-0.7 0-1.8 0.5-2.5 1.2z"/><path class="a" d="m911.5 924.1c-2.6 1.6-4.2 3.8-4.4 6.1-0.1 0.4 1.6 0.8 3.6 1 3.1 0.2 3.8 0.8 4.4 3.1 0.8 3.1 6.5 9.4 7.5 8.4 0.4-0.3 0.9-2.5 1.1-4.9 0.5-3.9 0.2-4.5-2.1-5.7-1.4-0.8-2.6-2.3-2.6-3.3 0-2.5-1.6-5.4-3.2-6-0.7-0.3-2.6 0.3-4.3 1.3z"/><path class="a" d="m1098.7 924.9c-0.2 1.1 0 2.4 0.6 3 1.4 1.4 7.2 1.4 9.8 0 2-1 2-1.1 0.3-3-2.4-2.7-10-2.7-10.7 0z"/><path class="a" d="m1154.4 925.4c-0.9 2.5 0.3 4.5 3.1 5.2 3.1 0.8 5.7-1.2 5.3-4-0.2-1.6-1.1-2.2-4.1-2.4-2.6-0.2-3.9 0.1-4.3 1.2z"/><path class="a" d="m853.5 931.1c-1 1.5 0.1 2.3 2 1.5 0.9-0.3 1.3-1 1-1.6-0.8-1.3-2.2-1.3-3 0.1z"/><path class="a" d="m1115.7 931.7c-1.2 1.1-0.8 2.3 0.8 2.3 0.8 0 1.5-0.7 1.5-1.5 0-1.6-1.2-2-2.3-0.8z"/><path class="a" d="m932.1 935.6c-2 2.1-2.2 2.8-1.3 4.9 1.3 2.8 2 3 5.6 1.4 3.6-1.7 3.9-4.5 0.7-6.8-2.7-1.9-2.7-1.9-5 0.5z"/><path class="a" d="m1139.2 938.1c-1.9 0.7-2.3 1.5-2 4.6l0.3 3.8 7.6-0.3c7-0.3 7.8-0.2 10.7 2.3 3.9 3.3 8.5 3.2 9-0.2 0.8-5.4-5.3-9.6-14.3-9.8-2.7-0.1-5.9-0.4-7-0.7-1.1-0.4-3-0.2-4.3 0.3z"/><path class="a" d="m1118.3 940.8c-0.6 0.4-0.9 1.9-0.6 3.5 0.7 3.6 5.4 6.2 8.3 4.7 2.2-1.2 2.7-5.2 0.8-6.8-1.8-1.4-7.1-2.3-8.5-1.4z"/><path class="a" d="m1085.6 957.5c-0.3 0.8-1.4 1.5-2.3 1.5-5.9 0-8.3 6.8-3.9 10.9 3.7 3.5 6.2 2.1 6.9-3.6 0.3-3.1 1.2-5.2 2.6-6.2 1.7-1.3 1.9-1.9 0.9-2.9-1.6-1.6-3.5-1.5-4.2 0.3z"/><path class="a" d="m1183 968.9c-0.7 1.4-0.7 2.2 0.1 2.6 1.3 0.8 1.5 0.6 2.3-2.3 0.9-2.7-0.9-3-2.4-0.3z"/><path class="a" d="m1199.1 970.2c-0.5 1.3-1.8 3.1-2.9 4.2-2.4 2.1-4.7 8-3.7 9.6 1.1 1.8 4.3 1.1 6.3-1.4 1-1.4 2.7-4.5 3.6-7.1 1.4-3.6 1.5-4.9 0.6-6-1.7-2.1-2.9-1.9-3.9 0.7z"/><path class="a" d="m1058 973.5c-1.6 1.9-0.6 4.6 1.5 3.9 1.6-0.7 2.1-3.9 0.6-4.8-0.5-0.3-1.4 0.1-2.1 0.9z"/><path class="a" d="m913.3 974.1c-0.6 0.8-1.4 2.6-1.8 4.2-0.5 2-1.3 2.7-3.1 2.7-2.1 0-2.4 0.3-1.8 2.7 1 4 1.4 4.4 3.5 3.8 1-0.3 2.8-0.7 3.8-1.1 1.5-0.4 2.4 0.3 3.6 2.6 1.4 2.7 1.9 3 4.9 2.5 2-0.4 4.7-0.1 7.1 0.9 2.4 1 6.7 1.6 12 1.6 5.2 0 9.4 0.5 11.2 1.4 9.9 4.9 11.8 5.4 21.6 5.5 5.9 0 11.6 0.7 14.2 1.6 5.6 1.9 7.2 1.2 8.6-3.6 1.1-3.4 1-4.2-0.6-5.9-1.5-1.7-2.9-2-7.3-1.8-5.4 0.3-5.4 0.3-6.5-3.2-1-2.9-1.8-3.5-5.2-4.2-2.2-0.5-4.5-1.6-5.2-2.4-0.8-1.1-2-1.4-3.7-1-1.9 0.5-2.6 0.2-2.6-0.9 0-2.5-2.7-1.7-5 1.5-2.4 3.4-3.8 3.7-8.3 1.3-1.8-0.9-5.4-1.7-8.2-1.8-4.3-0.1-5-0.5-5.3-2.3-0.5-3.2-2.7-4-14.3-4.7-8.3-0.6-10.7-0.5-11.6 0.6z"/><path class="a" d="m983.3 982.5c-0.8 2.2 2.5 5.5 5.6 5.5 3.1 0 7.1-2.5 7.1-4.4 0-2.8-11.6-3.7-12.7-1.1z"/><path class="a" d="m1165.8 989c-5.6 7.2-6.5 8.6-6.1 9.7 0.9 2.6 4.1 1.2 8.4-3.8 2.4-2.8 4.6-5.2 4.8-5.5 0.7-0.6-2.1-3.4-3.4-3.4-0.7 0-2.4 1.3-3.7 3z"/><path class="a" d="m1115.4 991.7c-1.8 0.2-4 1.3-4.9 2.3-1.6 1.8-1.6 2-0.1 2.6 2.3 0.9 8.2-0.4 9.6-2.1 1.1-1.4 0.6-3.7-0.8-3.3-0.4 0-2.1 0.3-3.8 0.5z"/><path class="a" d="m1024.5 1001.1c-6.1 4.1-7.6 6.1-5.5 7.4 1.6 1 20.7-2.5 22.8-4.1 2.4-1.8 0.4-4.8-3.4-5.2-1.6-0.2-3.3-0.8-3.8-1.3-1.7-1.6-4-0.9-10.1 3.2z"/><path class="a" d="m999 999.2c0 0.7 0.8 2.3 1.8 3.6 1.7 2.2 1.9 2.2 5 0.7 1.9-1 3.2-2.4 3.2-3.6 0-1.6-0.7-1.9-5-1.9-3.3 0-5 0.4-5 1.2z"/><path class="a" d="m1011.5 1002c-3.2 5.1-3.1 5.7 0.5 6.2 3.7 0.6 5-0.8 5.7-6.2 0.5-3.6 0.3-4-1.6-4-1.3 0-2.9 1.4-4.6 4z"/><path class="a" d="m1052.2 1001.2c-7.7 4.8-6.8 7.1 3.2 8.1 4.8 0.5 6.6 0.2 10-1.6 2.3-1.1 6.4-2.4 9.1-2.7 4.8-0.5 5-0.6 5-3.5 0-3.4 0.1-3.4-7.7-1-5.6 1.7-5.7 1.7-8.4-0.4-3.6-2.8-5-2.7-11.2 1.1z"/><path class="a" d="m1085.2 999.2c-2.1 2.1-1.3 3.8 1.8 3.8 2.3 0 3-0.5 3-1.9 0-1-0.7-2.2-1.6-2.5-2-0.8-1.8-0.8-3.2 0.6z"/><path class="a" d="m1110.1 1000.9c-7.3 1.5-8.8 2.2-11.2 5.1-1.6 1.8-5.7 5-9.1 7-5.7 3.2-6.3 3.9-6.6 7.1-0.6 6.5 4.4 7.3 9.7 1.5 1.4-1.4 3.2-2.6 4.2-2.6 0.9 0 2.3-1 3.2-2.3 0.8-1.2 3.4-3.2 5.8-4.4 8.2-4 15.8-7.3 16.8-7.3 1.9 0 1.2-2.8-1.1-4.4-1.2-0.9-2.5-1.6-2.8-1.5-0.3 0-4.3 0.8-8.9 1.8z"/><path class="a" d="m1041.7 1011.4c-0.8 1.9 2.1 5.6 4.3 5.6 1 0 2.8 1.1 4.1 2.5 3.1 3.2 5.7 3.2 6.5 0 0.8-3.3-0.1-5.5-2.3-5.5-1 0-2.3-0.8-3-1.9-1.4-2.2-8.8-2.8-9.6-0.7z"/><path class="a" d="m1076.6 1027.5c-2.3 1.7-1.4 4.5 1.4 4.5 2.4 0 6.3-3.6 5.5-5-0.9-1.4-4.7-1.2-6.9 0.5z"/></svg>