<svg version="1.2" xmlns="http://www.w3.org/2000/svg" viewBox="0 0 1480 1124" width="1480" height="1124"><style>.a{fill:#fdfdfd}</style><path fill-rule="evenodd" class="a" d="m1268.8 13.5c0.6 1.4 1.8 2.5 2.6 2.5 2.2 0 4 2.8 2.7 4.3-0.8 1-0.7 2.2 0.1 4.5 0.7 1.7 0.9 3.4 0.6 3.8-1.1 1-4.4-0.5-7.7-3.6-3.4-3.3-6.3-3.7-10.1-1.5-1.5 0.9-5.4 1.4-9.8 1.5-5.4 0-9 0.7-14.2 2.7-6.8 2.7-8.7 4.7-5.4 6 0.9 0.3 2.5 0.1 3.5-0.5 1-0.7 3.7-1.2 5.8-1.2 3.7 0 4 0.2 4.3 3.2 0.2 2.5 1 3.6 3.1 4.6 1.6 0.8 3.7 2.8 4.7 4.5l1.9 3 1.2-2.6c1.4-3.1 2.4-3.3 6.8-1.1 2.6 1.3 3.2 2.1 2.7 3.7-0.4 1.5 0.3 3 2 4.8 1.9 2 2.8 4.3 3.4 9.2 0.4 3.6 1.1 7.1 1.5 7.7 1.2 1.9-0.3 5.6-4 10-4 4.8-4.2 6.6-1.5 13.8 1.1 2.9 2 7.1 2 9.3 0 5.2-2 12-3.7 12.6-1 0.4-1.3 3.2-1.3 10.6 0 10.7-1.1 13.7-5.2 13.7-1 0-1.8 0.7-1.8 1.5 0 0.8 0.9 1.5 1.9 1.5 2 0 5.3 3.9 6.5 7.7 0.4 1.1 1.3 2.7 2.1 3.3 0.8 0.7 1.5 2.6 1.5 4.2 0 1.6 0.9 3.8 2 5 1.1 1.2 2 3.4 2 4.9 0 1.5 0.6 2.9 1.4 3.2 0.8 0.3 1.7 2.1 2.1 3.9 1.4 7.3 2.7 9.9 5.6 11.3 1.6 0.9 2.9 2.1 2.9 2.8 0 0.7 1.5 2.1 3.4 3 2.6 1.2 3.7 2.6 4.5 5.4 0.6 2.1 1.1 4.3 1.1 4.9 0 0.6 0.9 1.9 2.1 3 2.8 2.5 5.9 8.7 5.9 11.7 0 1.3 1.5 3.7 3.5 5.7 2.7 2.6 3.5 4.2 3.5 6.9 0 3 0.6 4 3.5 5.8 3.7 2.5 5.8 5.8 7 11.2 0.4 1.9 2.3 6.6 4.1 10.5 1.9 3.9 3.4 7.6 3.4 8.3 0 0.7 0.8 1.3 1.8 1.3 3.2 0 13.2 13.4 13.2 17.7 0 1.8 0.6 2.3 2.5 2.3 2.4 0 2.5 0.3 2.5 6.2 0.1 3.6 0.7 7.4 1.5 8.8 2.1 3.6 1.8 4.9-1 5.6-1.4 0.3-3.2 1.9-4 3.4-1.3 2.6-1.3 3 0.6 5.5 2.8 3.4 5.9 11.7 5.9 15.5 0 2.3-0.6 3.3-2.5 4l-2.5 0.9 3 4.5c1.7 2.4 3.7 6.1 4.5 8 1 2.5 2.2 3.6 3.5 3.6 2.3 0 11.5-4.4 12.5-6 0.3-0.5 2.4-1 4.5-1 2.1 0 4.2-0.5 4.5-1 1.2-2 3.8-0.9 7.6 3 4.5 4.6 4.6 5.6 1.9 11-1.1 2.2-2 5.7-2 7.8 0 2.4-0.8 4.9-1.9 6.3l-1.9 2.4-2.6-2.4c-2.5-2.4-2.7-2.4-7.4-1-4.3 1.4-4.7 1.8-5 4.9-0.2 2.7 0.5 4.3 3 7.3l3.3 3.7 9.4-3.3c9.2-3.2 9.5-3.4 12.3-8.5 1.7-2.9 3.8-7.3 4.7-10 1-2.7 2.4-4.8 3.4-5 1.4-0.3 1.7 0.5 1.7 5.6 0 5.8 0.1 6.1 3.6 8.1 2.7 1.6 3.4 2.6 2.8 3.9-0.4 0.9-0.9 4.8-1.2 8.5-0.4 5.7-0.1 7.2 1.5 9 1.1 1.2 2.5 3.5 3.1 5 0.7 1.5 1.9 3 2.7 3.3 0.9 0.4 1.5 1.9 1.5 4.2 0 2.2 1.1 5.3 3.1 8.4 5.1 7.9 8.6 8.7 13.9 3.3 4.5-4.6 8.2-4.8 10.1-0.3l1.3 3.1 2.8-8.3 2.8-8.4-2.2-2.3c-1.2-1.3-2.7-2.3-3.5-2.3-0.9 0-1.3-1.3-1.3-4 0-3.4 0.4-4.2 3-5.5 1.6-0.8 3.9-1.5 5.2-1.5 2.3 0 5.8-4.6 5.8-7.6 0-0.8 0.5-1.4 1-1.4 0.6 0 1 1.3 1 3 0 1.8-0.5 3-1.3 3-0.7 0-2.3 3.2-3.6 7.2-1.3 4-2.6 8-2.9 8.8-0.5 1.3-0.3 1.3 1 0.2 1.4-1.1 1.8-0.8 3.2 1.9 0.9 1.8 1.6 4 1.6 5 0 2.4-5.8 10.9-7.4 10.9-0.8 0-1.9 0.7-2.6 1.5-1.8 2.2 2.5 3.5 11.3 3.5 6.1 0 7.8-0.4 10.9-2.5 2-1.4 4.1-2.5 4.6-2.5 0.4 0 2.3 1.5 4.1 3.4 2.5 2.5 3.5 4.6 3.8 7.9 0.5 4.4 0.3 4.8-4.6 10-3.5 3.7-6.4 5.8-9.3 6.6-5.7 1.7-6.8 2.8-6.8 6.5 0 3.1-0.1 3.2-6.5 4.4-10.2 1.9-12.5 1.6-15.4-1.9l-2.6-3-3.5 2.4c-2.9 2-3.5 2.9-3.2 5.6 0.2 2.6-0.2 3.4-1.8 3.8-1.1 0.3-2 1.4-2 2.4 0 1.5-0.7 1.9-3.1 1.9-1.7 0-3.9-0.5-5-1.1-2.8-1.4-5.2 0.6-4.4 3.8 0.5 2.1 0.2 2.3-3 2.3-2.4 0-3.5 0.5-3.5 1.4 0 0.8-0.6 2.7-1.4 4.3-0.8 1.5-2 4.3-2.7 6.1-0.9 2.5-1.6 3.1-2.8 2.6-1.6-0.7-16.1-4.4-17.2-4.4-0.4 0-0.4 2-0.1 4.5 0.4 4.2-0.7 6-2.3 3.5-0.3-0.6-2.6-1-5-1-2.4 0-4.7-0.5-5-1-0.3-0.6-2.3-1-4.3-1-2.2 0-5.4-1-7.7-2.5-2.2-1.3-5.2-2.5-6.7-2.5-2.2 0-2.9 0.6-3.8 3.5-1.3 4-2 4.3-4.5 1.5-3.6-3.9-8-2.2-11.1 4.4-0.9 2.1-3.1 4.7-4.8 5.7-3 1.8-3.1 1.8-5.7-0.7l-2.6-2.5-1.2 4c-1.4 4.9-11.6 17.1-14.2 17.1-1.6 0-1.9 0.8-1.9 5.4 0 7.1-0.7 8.6-3.7 8.6-1.9 0-2.3 0.3-1.6 1.2 0.5 0.7 1.9 3.9 3.2 7 2.6 6.6 2.2 10.4-1.3 13.7l-2.3 2.2-4.6-3.1c-2.5-1.7-4.8-3.8-5.1-4.8-0.3-0.9-1.5-2.3-2.7-3-2.9-1.9-3.7-0.4-3.1 5.8 0.4 4 0.1 5.1-1.7 6.6-2.6 2.3-2.6 3.5-0.1 6.7 2.2 2.8 2.7 9.6 0.9 11.4-1.3 1.3 2.5 4.3 5.3 4.3 2.9 0 3 1.8 0.3 5.7-1.8 2.7-2.5 5.1-2.5 8.3v4.6l3.9-0.4c5.5-0.5 8.1 1.1 8.1 5.1 0 3.6 1.4 5.9 4.5 7.5 1.5 0.8 2.1 0.6 3-1.1 0.6-1.2 1.9-2.3 3-2.5 1.1-0.2 3-0.8 4.3-1.4 2-1 2.6-0.9 4.5 1.4 1.2 1.4 4.9 4.5 8.2 6.9 3.3 2.3 7.4 5.3 9.2 6.6 2.2 1.6 3 2.8 2.6 4.3-0.3 1.1-1.1 2-1.8 2-0.7 0-1.9 0.7-2.6 1.6-1.1 1.4-1 1.8 0.6 3 1 0.8 3.5 1.4 5.5 1.4 3.4 0 3.8 0.4 5.2 3.8 1.4 3.6 1.4 4.2-0.3 7.3-0.9 1.9-2.3 3.4-3.1 3.4-0.7 0.1-4 2.9-7.2 6.3-4.7 4.9-6.2 6-7.3 5.1-1.6-1.4-1.5-1.4-3.1 3.2-1.5 4.4-1.6 9.6-0.1 10.1 0.7 0.2-0.3 4.3-2.6 11.2-2 5.9-3.5 10.9-3.3 11 0.2 0 1.8 1.1 3.6 2.4 2.4 1.7 3.2 1.9 3.2 0.8 0-2.7 3-2.5 8.2 0.7 7.9 4.8 9.9 7.1 10.5 11.6 0.3 2.4 1.5 4.9 2.9 6.2 1.9 1.7 2.4 3.3 2.4 6.9 0 5.2 1.3 6.7 11.4 13.6 10.1 6.8 14.3 8.9 20.5 10.3 5.2 1.1 6.7 2 10.3 6.1 2.4 2.6 5.1 5.9 6.1 7.4 1.1 1.6 2.7 2.6 4.3 2.6 1.6 0 2.8 0.8 3.6 2.5 0.9 2.1 1.8 2.5 5.2 2.5 2.3-0.1 5.2-0.7 6.6-1.4 3-1.7 6-0.5 6 2.4 0 1.4-0.7 2-2.4 2-1.7 0-3.6 1.4-6.2 4.6-3.3 4-3.6 4.8-2.5 6.6 0.7 1.2 1.1 4.6 0.9 8.9-0.1 4.4 0.2 7.3 1 8.1 1.7 1.7 1.5 10.9-0.3 13.2-1.4 1.9-1.5 1.8-1.6-1-0.2-2.7-0.2-2.7-0.6-0.4-0.3 1.4-1 3.1-1.5 3.7-1.3 1.6 1.3 5.9 4 6.7 1.3 0.4 1.9 1.6 1.9 3.6 0 3.4-0.1 3.4-6.3 1.9-3.4-0.9-5.1-0.9-6.7 0-1.8 1-3.1 0.8-6.9-0.9-5.4-2.3-6.9-4-3.8-4 2.5 0 6-1.7 6-2.9 0-0.4-1.2-2.6-2.6-4.7-1.6-2.3-2.2-4-1.5-4.2 2.1-0.7 1.1-3.8-2.5-7.3-3.4-3.3-3.6-3.3-5-1.5-0.8 1.1-1.4 2.3-1.4 2.8 0 0.4-1.1 0.8-2.6 0.8-2.1 0-3 1-5.5 6.5-1.7 3.5-4.7 7.9-6.7 9.6-2.4 2.1-4 4.7-4.7 7.3-0.9 3.8-1.3 4.2-5.5 4.9-2.5 0.5-8.1 1.1-12.6 1.4l-8.1 0.4-6.4-4.2c-3.5-2.3-7.6-5.5-9.1-7-2.1-2.3-3.6-2.9-6.7-2.9-3.1 0-4.3-0.5-5.2-2.1-0.8-1.5-1.4-1.8-2.2-1-0.6 0.6-3.9 1.1-7.3 1.1-5.6 0-6.5-0.3-8.3-2.7q-4.2-5.3-2.1-9.3c2.7-5.1-3.1-10-11.9-10-2.3 0-3.1-0.5-3.1-1.8 0-2.3-5.5-4.5-8.1-3.1-1 0.5-2.8 1.3-3.9 1.9-1.1 0.5-4.9 1-8.5 1-3.7 0-6.5 0.4-6.5 1 0 0.5-0.9 1-2 1-1.5 0-2-0.7-2-2.5 0-2.9 2.4-8.1 4-8.7 0.5-0.1-1.5-2.9-4.5-6.2-3-3.2-5.9-7.2-6.3-9-0.7-2.7-1.3-3.2-4.8-3.6-3.1-0.4-4-1-4.2-2.7-0.3-1.8-1-2.3-3.2-2.3-1.6 0-3-0.6-3.3-1.3-0.3-0.9-0.9-1-2.6 0-2.5 1.5-4.5 1.6-6.9 0.4-0.9-0.5-4.3-1.5-7.5-2.2-5.2-1.1-6.1-1.7-9.3-6.1-2.8-3.7-4.2-4.8-6.3-4.8-1.5 0-3.6-0.9-4.6-2-1-1.1-2.7-2-3.7-2-2.5 0-7.8-2.8-7.8-4 0-0.6-1.1-1-2.4-1-1.4 0-2.7-0.4-3-0.9-0.3-0.5-2.4-0.7-4.6-0.4-3.2 0.5-4 0.2-4-1 0-2.1-1.7-3-6-3.3-3.9-0.2-12.4-3.6-13.5-5.3-0.3-0.6 0.1-3.2 1.1-5.6 1.3-3.6 2.2-4.5 4-4.5 2.7 0 3.1-1.9 1.2-5-1-1.5-1-2.2 0-3.2 0.6-0.6 1.2-2.4 1.2-3.9 0-3.9 2.2-5.4 4.5-2.9 2.7 3 3.4 2.5 2.8-2.1-0.6-3.9-0.5-4.1 1.7-3.4 1.5 0.5 2 0.4 1.6-0.4-0.4-0.6-1.3-1.1-1.9-1.1-0.7 0-1.7-1-2.2-2.3-0.8-1.6-2-2.3-5-2.5-4.5-0.4-6.5-1.7-6.5-4.1 0-2.9 7.7-5.2 10.9-3.2 0.7 0.5 2.2 0.6 3.3 0.3 1.8-0.4 1.8-0.5-0.3-2.8-2.2-2.3-2.2-2.4-0.4-4.4 1-1.1 3.7-2.9 6.1-4.1 3.4-1.6 4.4-2.6 4.4-4.5 0-4-2.8-4-6.9 0-3.9 3.8-6.8 4.6-7.7 2.1-0.9-2.3-3.3-1.8-4.4 1-0.6 1.7-1.7 2.5-3.4 2.5-1.3 0-2.9 0.7-3.6 1.5-0.7 0.8-1.9 1.5-2.7 1.5-0.7 0-2.3 1.6-3.4 3.5-1.2 2-3 4-4.1 4.6-1.4 0.8-1.7 1.4-0.9 2.3 0.8 1 0.7 1.7-0.3 2.6-1.2 0.9-2.3 0.9-5.2 0-3.4-1.2-3.8-1.1-6.8 1.9-1.8 1.7-3.6 3.1-4.2 3.1-0.5 0-2.8 1.8-4.9 4q-6.6 6.8-8.4 1.8l-0.8-2.1-1.6 2.4c-0.9 1.3-1.7 3-1.7 3.9 0 0.9-0.9 2.3-2 3.3-2.2 1.9-5 2.3-5 0.7 0-1.5-8.7-1.2-9.3 0.2-0.3 1-0.9 1-2.7 0-1.2-0.7-2.5-1.1-2.8-0.8-0.8 0.9 1.9 5.4 3.7 6 0.9 0.3 2.1 0.8 2.7 1.1 0.6 0.3 1.6-0.6 2.3-2.1l1.2-2.7 2.9 2.8c1.7 1.6 3 3.7 3 4.7 0 1.1 0.7 1.8 2 1.8 1.3 0 2.4 1 3 2.5 0.9 2.3 1.2 2.4 3.6 1.3 2.4-1.1 2.9-1 4.8 1.5 2.3 2.8 7.8 3.8 9.1 1.6 0.4-0.6 2.5-2.4 4.7-4 5.1-3.6 12.8-4.2 12.8-1 0 1.1-0.5 2.3-1.1 2.7-0.8 0.4-0.8 0.9 0 1.7 1.8 1.8 1.3 4.5-1.1 6.1-2.5 1.8-13.8 2.2-13.8 0.6 0-1.7-4.6-1.1-6.2 0.7-0.8 1-1.8 3.5-2.1 5.6-0.3 2.2-1.1 4.5-1.8 5.3-1 1.3-1.5 1.2-3.4-0.6l-2.2-2.1-3.1 2.6c-1.7 1.4-3.7 4.4-4.4 6.7-1.2 3.5-2 4.4-4.9 5.1-2.2 0.6-4 0.5-5.1-0.2-1-0.6-3.4-1.1-5.3-1.1-2.7 0-3.5-0.4-3.5-1.8 0-1 0.5-2.3 1.1-2.9 0.8-0.8 0.8-1.7-0.1-3.3-0.8-1.5-0.8-2.5-0.1-3.4 1.9-2.2 0.2-4.3-5.7-7.2-5.5-2.7-9.7-3.2-11.7-1.3-1.4 1.4-2.5 1.1-2.5-0.6 0-2.4 7.2-9.5 9.8-9.5 1.2 0 2.2-0.4 2.2-0.9 0-0.5 1.6-1.8 3.5-3 2.3-1.3 3.5-2.8 3.5-4.3 0-1.7-0.3-1.9-1.2-1-1.9 1.9-3.5 1.4-4.2-1.2-0.5-2.1-1-2.4-3.4-1.7-1.5 0.5-5.3 2.1-8.4 3.7l-5.7 2.8-5.1-2.4c-4.9-2.3-5-2.5-5-6.7 0-3.8 0.3-4.3 2.2-4.3 1.7 0 1.9-0.3 1-1.2-0.7-0.7-1.2-2.2-1.2-3.4 0-1.2-0.7-2.7-1.5-3.4-1.3-1.1-1.5-0.7-1.5 2.9 0 3.4-0.3 4.1-1.9 4.1-1.1 0-2.1-0.6-2.4-1.3-0.3-0.8-1.4-0.4-3.3 1.4-4.6 4.2-7 5.2-9.4 3.7-1.8-1.1-2.3-1-3.6 0.6-0.8 1.1-1.4 3.7-1.4 5.8 0 4.4-2 5.1-5.4 1.9-1.8-1.7-2.3-1.8-4-0.6-1.8 1.4-1.7 1.5 1 2.6 5.4 2.1 5.9 2.6 6.2 6.3 0.3 3.3 0.1 3.6-2.2 3.6-1.4 0-2.8 0.4-3.1 1-0.3 0.5-1.9 1-3.4 1-1.5 0-3.2 0.5-3.9 1.2-0.8 0.8-1.5 0.8-2.5 0-0.8-0.7-1.7-0.9-2-0.5-1.1 1-0.8 4.3 0.3 4.3 0.6 0 1 1.2 1 2.6 0 1.4 0.5 3.5 1.1 4.6 1.1 2.1 1.2 2.1 2.5 0.3 1.2-1.7 1.4-1.1 1.4 4.8 0 6.3-0.2 6.8-3.9 10.8-4.2 4.6-6.7 4.8-7.3 0.4-0.5-3.9-1.8-3.5-3.4 1-1.8 5.2-1.8 5.5 0.6 5.5 2.6 0 2.5 1.2-0.1 3.6-1.7 1.5-2 2.6-1.5 6.4 0.3 2.5 0.6 5.4 0.5 6.5-0.4 13.2-1 14.5-7.5 14.5h-4.4v4.5c0 2.5-0.4 4.5-1 4.5-1.3 0-1.3 3.3 0 4.6 1.4 1.4-1.5 7-4 7.7-1.3 0.3-2 1.4-2 2.9 0 2.2 0.4 2.4 3 2 2.4-0.3 3.1 0 3.9 2.1 0.5 1.3 1.9 2.7 3 3 1.6 0.4 2.1 1.3 2.1 4 0 1.9 0.7 4 1.5 4.7 0.8 0.7 1.5 2.3 1.5 3.6 0 1.9 0.5 2.4 2.4 2.4 1.3 0 2.9 0.7 3.6 1.5 1.4 1.7 9.5 5.5 11.6 5.5 1.8 0 1.9 5.4 0.2 6.8-0.7 0.5-5 1.2-9.5 1.3-6.7 0.3-8.7 0.8-11 2.7-1.5 1.2-4.7 3.7-7 5.4-2.4 1.8-4.3 3.8-4.3 4.5 0 1.5-6.2 5.6-13.4 9.1-4.2 1.9-5.2 2.1-6.3 0.9-1.2-1.2-0.9-1.9 2.1-4.5 2-1.7 3.6-3.3 3.6-3.4 0-0.2-2-0.2-4.5 0-3.6 0.3-5.2-0.1-7.8-2.1-1.8-1.4-5.2-2.7-7.7-3-2.5-0.3-5.8-0.9-7.5-1.2-2.5-0.5-3.2-0.3-4 1.7-1.4 3.2-7.4 3.7-10 0.8-2.5-2.8-3.5-2.5-3.5 1v3h-6c-3.3 0-6 0.4-6 0.9 0 2.3 7.7 7 15.5 9.6 1.9 0.6 1.8 0.8-0.9 3.1-1.5 1.4-4.1 2.8-5.7 3.1-2.3 0.4-2.9 1.1-2.9 3 0 2-0.4 2.4-1.7 1.8-4.5-1.8-5.3-1.8-5.3 0.4 0 2.7-0.5 2.6-6.4-0.7-3.5-1.9-5.6-3.9-7.1-6.9-1.1-2.3-2.8-5-3.8-6-0.9-1.1-1.7-2.9-1.7-4.1 0-2.7-0.4-2.7-4.2-0.1-2.1 1.5-2.6 2.5-1.9 3.2 0.6 0.6 1.1 3.2 1.1 5.9 0 3.9 0.4 5 2.6 6.5 2.8 2 3.4 2.6 9.5 9.6 2.3 2.6 4.8 4.7 5.5 4.7 1.8 0 1.7 0.4-0.2 4.1-1.7 3.5-3.7 3.4-4.2-0.2-0.2-1.3-0.9-3-1.4-3.7-1.2-1.4-7.4-1.6-8.3-0.2-1 1.6 0.5 5 2.1 5 2 0 1.7 2-0.6 5-2.6 3.4-2.5 4 0.8 4 1.6 0 5.2 1.1 8 2.5 2.9 1.4 5.5 2.5 5.9 2.5 0.4 0 2.1 1.6 3.9 3.5 1.7 1.9 4.1 3.5 5.3 3.5 2 0 2.1 0.5 2.1 8 0 4.4-0.3 8-0.6 8-1.4 0-5.1-2.5-7.1-4.9l-2.2-2.6-3.6 3.6c-2.5 2.5-3.4 4-2.9 5.3 0.7 1.8 1.6 1.8 7.2 0.1 1.9-0.6 2.2-0.4 2.2 2.2 0 2.6-0.7 3.3-5.9 5.7-6.7 3.3-9.4 2.9-11-1.4-0.9-2.8-3.1-4.2-3.1-2 0 1.9 5.2 9 6.6 9 0.8 0 1.4 1 1.4 2.3 0 3.5 2.7 8.4 5 9 1.1 0.3 2 1.2 2 2.1 0 1.3-1.3 1.6-7 1.6-6.3 0-7-0.2-7-2 0-1.1-0.7-2-1.5-2-1 0-1.5 1.1-1.5 3.5 0 4.2-2.4 4.8-4.2 1-0.6-1.4-1.9-2.5-2.9-2.5-2.3 0-3.1-1.4-3.4-6.2-0.3-4.4-1.1-5.6-2.6-4.1-0.8 0.8-0.7 1.7 0.2 3.1 1.7 2.7-0.3 5.2-4.2 5.2-3.1 0-5.9-3.9-5.9-8.3 0-1.2-0.5-2.8-1.2-3.5-0.9-0.9-0.9-1.5 0-2.4 2.9-2.9 0.3-11.8-3.4-11.8-1.6 0-4.4-5-4.4-7.8 0-3 2.1-4.2 7.6-4.2 2.9 0 5.6-0.5 5.9-1 0.4-0.7 3.9-1 8.8-0.8 7.3 0.3 8.3 0.5 9.3 2.6 1.6 3.3 1.9 3.4 4.6 1.9l2.6-1.3-3.8-3.2c-4.1-3.4-6.5-4-7.3-2-0.3 0.9-1.1 0.6-2.8-0.9-2.7-2.4-10.5-3.3-14.9-1.6-1.8 0.8-2.7 0.7-3.5-0.3-0.8-1.2-1.4-1.2-3.6 0-1.6 0.8-3.2 1-4 0.5-0.8-0.5-2.4-0.9-3.6-0.9-1.7 0-2.4-0.8-2.8-2.8-0.4-1.5-1-3.4-1.5-4.3-1.2-2.3 1.8-4.9 5.8-4.9 2.2 0 3.2-0.5 3.2-1.5 0-1.8-6-2.1-7.8-0.3-1.8 1.8-4.2-0.9-4.2-4.8 0-2.9-0.3-3.4-2.4-3.4-2.9 0-5.6-3.2-8-9.4-1.2-3.1-2.4-4.6-3.6-4.6-0.9 0-2.3-0.6-3-1.4-0.6-0.8-2.3-1.6-3.7-1.8-3-0.3-3.9-3.1-1.7-5.2 1.1-1.2 1.1-1.5-0.2-2-1.2-0.4-1.3-1-0.4-2.6 0.6-1.1 0.8-2.5 0.5-3.1-1.3-2-1.2-5.9 0.1-7 1-0.8 1.4-3.8 1.4-10 0-5.3 0.4-8.9 1-8.9 1.4 0 1.3-3.3-0.2-4.8-0.7-0.7-2.1-1.2-3.3-1.3-2.4-0.1-7.8-3.1-7.5-4.3 0.1-0.4-0.9-2-2.3-3.4-1.3-1.5-2.7-3.5-3-4.5-0.5-1.2-1.7-1.7-4.5-1.7-2.3 0-4.5-0.6-5.2-1.5-0.7-0.8-1.9-1.5-2.7-1.5-0.7 0-1.6-0.7-2-1.6-0.3-0.8-2.3-2.2-4.4-3.1-2.2-0.8-4.7-2.8-5.6-4.4-1.1-1.8-2.6-2.9-4-2.9-1.4 0-2.8-1-3.7-2.8-0.8-1.5-3.5-4.7-6-7.1l-4.6-4.5-3.3 1.6c-2.9 1.4-3.6 1.4-6 0.2-1.5-0.8-2.7-2-2.7-2.6 0-1.6-4.1-5.8-5.7-5.8-0.7 0-1.3-0.4-1.3-0.8 0-0.5-1.6-2.7-3.5-4.9-1.9-2.3-3.5-4.4-3.5-4.7 0-0.3 1.2-0.6 2.6-0.6 2.2 0 2.5-0.2 1.4-1.5-0.7-0.8-1.9-1.5-2.7-1.5-0.7 0-1.6-0.7-1.9-1.5-0.4-0.8-1.5-1.5-2.5-1.5-1.6 0-1.9-0.8-1.9-4.8 0-2.6 0.4-5.3 0.9-6.1 1.2-1.9-0.7-5.6-4.7-9.5l-3-2.8-1.8 3.3c-2.1 4.1-5.5 9.1-6.9 10.1-1.3 0.9-3.5-1.1-3.5-3.2 0-1-0.7-2.3-1.5-3-0.9-0.7-1.5-2.9-1.5-5.1 0-2.1-0.5-4.1-1-4.4-1.4-0.9 0.7-3.4 3.7-4.6 1.6-0.6 2.3-1.7 2.3-3.4 0-2.3-0.4-2.6-2.7-2.3-2 0.2-2.9 0.9-3.1 2.5-0.4 2.9-2.6 3-4.5 0.2l-1.5-2-3.6 2c-2.5 1.4-5.5 2.1-9.1 2.1-5.2 0-5.5 0.1-5.5 2.5 0 1.6-0.6 2.5-1.6 2.5-1.1 0-1.4 0.5-1 1.6 0.3 0.9 0.6 2 0.6 2.5 0 0.5 0.6 0.9 1.4 0.9 0.7 0 1.9 0.7 2.6 1.5 1.1 1.3 0.9 2-1.3 4.3-1.5 1.6-2.7 3.9-2.7 5.3 0 1.4-0.5 3-1.1 3.6-1.1 1.1 0.9 9.3 2.3 9.3 0.5 0 0.8 0.9 0.8 2 0 1.3 0.9 2.1 2.8 2.5 1.5 0.3 5 1.6 7.7 2.9 2.8 1.3 5.8 2.6 6.7 3 1.1 0.3 1.8 1.5 1.8 2.9 0 1.4 0.7 3 1.5 3.7 0.8 0.7 1.5 1.9 1.5 2.7 0 0.7 1 3.2 2.1 5.5 1.7 3.3 1.9 4.6 1 6-0.6 1-1.1 2.5-1.1 3.3 0 1.9 4.7 8.6 11.1 16 2.6 2.9 5.1 6.1 5.7 7.1 0.8 1.4 2.8 1.9 10.8 2.4 5.5 0.4 11.2 1.2 12.7 1.9 2.4 0.9 2.8 1.6 2.5 4.3-0.2 2.2-1 3.6-2.6 4.4l-2.3 1.2 3.4 2.1c1.9 1.1 5 2.1 6.9 2.1 2.4 0 4.2 0.8 5.8 2.5 1.3 1.4 4.1 3 6.2 3.7 2 0.6 4.7 2.2 5.9 3.4 1.4 1.5 3.4 2.4 5.1 2.4 4.1 0 8.5 2.6 10.3 6 0.8 1.6 2.5 3.5 3.8 4.1 3.3 1.8 3.7 2.8 3.7 9.3 0 12.3-8.9 13.2-13.1 1.4-1.2-3.5-1.6-3.8-5.2-3.8-4 0-9.3-2.2-9.9-4.1-0.6-1.7-5.8-0.2-5.8 1.6 0 1.9-2.1 5.8-3.7 6.8-1.4 0.9-1.7 7.5-0.5 9.5 0.7 0.9 1.5 1 3.5 0.3 4.2-1.6 5.7 1.5 5.7 12.1v8.8h-3.5c-2.4 0-4.5 0.9-7 3.1-2.9 2.6-3.5 3.8-3.5 7 0 3.2-0.5 4.1-2.5 5.1-1.4 0.6-2.5 1.7-2.5 2.5 0 0.7-0.6 1.3-1.4 1.3-0.7 0-1.9 0.7-2.6 1.5-0.8 0.9-2.9 1.5-5.6 1.5-3.5 0-4.6-0.4-5.5-2.2l-1.2-2.3-1 2.2c-0.5 1.2-1.8 2.3-2.8 2.6-1.5 0.4-1.9 1.4-1.9 4.5 0 2.3-0.6 4.5-1.5 5.2-1.7 1.4-2 4.7-0.5 5.2 0.6 0.2 1.3 2 1.6 4 0.6 3.3 0.4 3.9-2 4.9-1.6 0.8-2.6 2-2.6 3.4 0 3-0.8 3.5-3.5 2.3-1.5-0.7-2.9-0.7-4.1 0-3.5 1.9-9.4-3.2-9.4-8.1 0-1.8-2.1-2.7-6-2.7-1.6 0-3.2-0.4-3.5-1-0.3-0.5-1.9-1-3.5-1-2.1 0-3.3-0.8-4.9-3.5-1.4-2.5-3.7-4.2-7.7-6-3.1-1.4-6.1-2.5-6.5-2.5-0.5 0-2.7-1.1-4.9-2.5-4.2-2.7-5.1-5.3-2.5-7.5 0.8-0.7 1.5-2.4 1.5-3.9 0-2 0.7-2.9 3-3.8 2.6-1 3.2-0.9 4.2 0.6 0.9 1.4 2 1.7 5.7 1.3 3.8-0.3 5.4 0.1 8.3 2 7 4.8 9.5 5.4 14.8 3.5 2.6-0.9 6-1.7 7.4-1.7 1.4 0 3.5-0.6 4.6-1.2 1.6-1 2.4-1 4-0.1 1 0.7 2.2 0.9 2.4 0.4 0.3-0.5 2.3-1.1 4.3-1.3 2.1-0.3 4.6-0.8 5.6-1.2 1.3-0.6 1.7-0.3 1.7 1.3 0 2.5 0.7 2.6 3.2 0.4 1.3-1.2 1.8-3 1.8-6.9 0-5.2 0-5.3 3.3-5.6 2.8-0.3 3.2-0.7 3.5-3.6 0.4-3.6-4.4-19.2-5.9-19.2-0.5 0-0.9-0.9-0.9-2 0-2.6-5.5-6-9.5-6-4.9 0-7.5-2.5-7.5-7 0-5-0.8-7-2.9-7-1 0-2.8-1.1-4.1-2.5-1.3-1.4-2.9-2.5-3.6-2.5-0.7 0-3.8-2.4-6.9-5.4-3.8-3.6-6.3-5.2-7.5-4.9-1.2 0.3-2-0.2-2.5-1.5-0.3-1.3-1.6-2.2-3.3-2.4-1.6-0.2-3.1-1.2-3.7-2.5-0.5-1.2-1.9-2.4-3-2.7-2.5-0.6-26.8-25.5-30.7-31.5-1.6-2.4-3.6-4.1-4.7-4.1-1.3 0-2.4-1.6-4-5.7-1.2-3.2-2.8-6.4-3.5-7.3-0.8-0.8-2.4-5.8-3.7-11-1.7-6.7-3.2-10.4-5.2-12.7-1.7-1.9-2.4-3.4-1.7-3.8 0.7-0.4 0.7-1.3-0.1-2.6-0.6-1.1-0.8-2.7-0.5-3.5 0.3-0.8 0.1-1.4-0.5-1.4-0.5 0-1.4 1.2-1.9 2.6l-1 2.6-3.5-2.2c-2-1.2-4.3-1.9-5.1-1.6-0.9 0.4-2.8-0.4-4.6-1.9-1.6-1.4-4.1-2.5-5.4-2.5-2.8 0-7.4 4.1-7.4 6.5 0 1.9-5.7 5.5-8.8 5.5-1.4 0-4.4 1.8-6.9 4-4.6 4-6.3 4.8-6.3 3 0-0.6-0.7-1-1.5-1-0.8 0-1.5 0.4-1.5 1 0 0.5-1.6 1-3.5 1-3 0-3.5 0.3-3.5 2.4 0 3.7-2.1 4.7-9.6 4.4-5.8-0.3-7-0.6-7.9-2.4-1.9-3.9-3.8-5.5-5.9-5.2-1.5 0.2-2-0.2-1.8-1.3 0.1-1.1-0.7-1.8-2.8-2.2-2.1-0.5-3-1.2-3-2.7 0-2.5-0.1-2.5-4.5 0-4.4 2.5-4.5 2.5-4.5 0 0-1.6-0.7-2-3.3-2-2.3 0-4.1-0.8-5.7-2.5-2.9-3.1-4.1-3.1-7 0-1.7 1.8-3.4 2.5-6.1 2.5-5.3 0-8.9 2.2-10.9 6.9-1.6 3.4-1.6 4.1-0.4 5.2 0.7 0.6 1.1 1.6 0.7 2.2-0.3 0.6-0.5 3.8-0.4 7.3 0.1 3.5-0.2 6.5-0.8 6.9-0.6 0.3-1.1 1.3-1.1 2.2 0 2.3-3.9 6.3-6.1 6.3-1 0-2.1 0.5-2.4 1-0.3 0.6-2.3 1-4.4 1-2.1 0-4.4 0.6-5 1.4-1.8 2.2-5.6 2.8-20.1 3.5-12.8 0.6-13.6 0.7-14.5 2.9-0.5 1.2-1.3 2.2-1.8 2.2-0.4 0-0.6 0.4-0.3 0.9 0.3 0.5-0.7 1.4-2.3 2-1.5 0.7-5 3.4-7.7 6.2-2.6 2.7-5.5 4.9-6.2 4.9-0.8 0-3.2 1.5-5.3 3.2-2.1 1.8-5.2 4.3-6.8 5.6-2.8 2.2-3.1 2.8-3.1 8.3 0 3.3 0.5 6.8 1 7.9 0.6 1.1 1.5 2.9 2 4 1.5 3 1.2 4.1-1.7 7.2-2.1 2.2-3.6 2.8-6.7 2.8-4.5 0-5.6 0.5-7.2 3.5-0.6 1.1-2.2 2.6-3.7 3.3-1.5 0.7-2.8 2.4-3.2 4.1-0.4 1.8-2 3.7-4.4 5.3-3.4 2.2-4.1 2.4-6.2 1.2-3.2-1.8-8.4-1.7-9.9 0.1-0.7 0.8-2.1 1.5-3.1 1.5-2.5 0-6.4 3.8-8.2 8.3-1.9 4.3-3.8 4.7-7.5 1.2-3-2.8-5.4-3.2-7.2-1-1.1 1.3-1.5 1.3-4.1 0-1.7-0.9-5.6-1.5-10.2-1.5-6.9 0-7.5-0.2-8.5-2.5-0.7-1.5-2-2.5-3.2-2.5-1.1 0-3.4-0.9-5.2-2-4.6-2.8-8.2-2.6-9.6 0.5-1.4 3-2 3-6.6 0.8-3.3-1.5-3.7-1.5-5.4 0-1 0.9-3.1 1.7-4.6 1.7-3.4 0-6.6 1.6-6.6 3.4 0 0.8-0.6 1.9-1.3 2.5-1.1 0.8-1.9 0.3-3.8-2.6-1.3-2.1-3.5-4-4.9-4.3-1.9-0.4-2.6-1.3-2.8-3.5-0.2-1.7-1.1-3.8-1.9-4.8-1.5-1.6-1.4-1.7 0.8-1.7 1.8 0 2.8-0.8 3.6-3 1-2.7 0.9-3-0.8-3-2 0-2.6-1.5-0.9-2.5 2-1.2 0.9-3.6-2.5-5.6-1.9-1.2-3.5-2.6-3.5-3.3 0-0.7-1.8-2.9-3.9-5-3.7-3.6-4.1-3.8-7.3-2.8-6.5 2.1-9.1 1.8-14.1-1.6-2.7-1.8-5.9-3.2-7.1-3.2-1.5 0-2.6-0.7-2.9-1.9-0.4-1.6-1.1-1.8-5.1-1.4-5.5 0.7-5.9-0.6-2.1-6.3 1.4-2 2.5-4.5 2.5-5.6 0-1 1-2.2 2.4-2.7 2.5-1 3.9-5.2 3-8.8-0.3-1.2-0.1-2.4 0.5-2.7 0.6-0.4 1.1-1.4 1.1-2.2 0-0.8 0.9-2.3 2-3.4 3-3 2.7-8.2-0.7-9.7-1.5-0.7-3.5-1.3-4.5-1.3-2.8 0-2.3-5.1 0.7-8 1.7-1.6 2.5-3.5 2.7-6.9l0.3-4.6 4.2-0.3c3.5-0.3 4.5-0.8 6.7-4.2 1.4-2.2 2.6-4.3 2.6-4.8 0-0.5 0.9-1.7 2-2.7 2.8-2.6 7-10.3 7-13.1 0-1.2 1.1-3.1 2.5-4.2 1.4-1.2 2.5-3 2.5-4.4 0-1.4 1.1-3.5 2.5-4.8 1.9-1.8 2.5-3.4 2.5-6.6 0-2.4 0.5-4.6 1.1-5 0.7-0.4 0.9-2.5 0.5-5.8-0.6-4.4-0.4-5.5 1.3-7 1.1-1 2.7-1.6 3.6-1.3 0.8 0.4 1.5 0.2 1.5-0.3 0-0.6-0.5-1-1.2-1-0.9 0-0.9-0.3 0-1.2 0.7-0.7 1.2-1.9 1.2-2.7 0-0.8 0.7-2.3 1.7-3.3 1.4-1.6 1.5-1.8 0-1.8-0.9 0-1.9 0.5-2.2 1-0.3 0.6-1.3 1-2.1 1-1.8 0-1.8-2.9 0-3.6 1.5-0.6 1.1-3.9-0.7-6.2-1.4-1.7 3.1-6.5 5.5-5.8 1.1 0.2 2.2-0.4 2.9-1.6 0.8-1.5 1.4-1.7 2.2-0.9 0.6 0.6 2.2 1.1 3.6 1.1 1.3 0 3.3 0.8 4.3 1.7 2.4 2.2 4.9 0.3 2.8-2.2-1.1-1.3-0.8-1.5 2.3-1.5 1.9 0 3.7-0.6 4-1.3 0.3-0.9 0.9-0.9 2.9 0.2 2 1 3 1.1 4.8 0.1 2.6-1.4 5.2-0.6 4.4 1.4-0.3 0.8 0.5 2.9 1.7 4.6 1.8 2.4 2.9 3 4.6 2.5 1.6-0.4 2.8 0.1 4 1.5 1.2 1.3 3 2 5.3 2 2 0 4.5 0.7 5.6 1.5 1 0.8 2.9 1.5 4.1 1.5 1.2 0 2.6 0.6 3 1.4 0.8 1.5 8.5 4.6 11.4 4.6 0.8 0 2.6 1.1 3.9 2.5 1.4 1.5 3.5 2.5 5.1 2.5 1.5 0 3.1 0.5 3.4 1 0.3 0.6 2.7 1 5.3 1 2.6 0 5.6 0.7 6.6 1.5 1.1 0.8 3 1.5 4.3 1.5 1.6 0 3 1.1 4.4 3.5 1.9 3.2 2.5 3.5 6.7 3.5 3.2 0.1 6 0.9 8.7 2.5 2.2 1.4 5.2 2.5 6.7 2.5 1.5 0 3 0.5 3.3 1 0.3 0.5 1.4 1 2.3 1 1.9 0 8.2-5.8 8.2-7.6 0-0.7 1.1-2.1 2.5-3.2 1.4-1.1 2.5-2.6 2.5-3.3 0-0.8 0.9-2.5 2-3.9 1.1-1.4 2-3.4 2-4.5 0-2.8 1.9-4.5 4.9-4.5 2.4 0 2.4 0 0.5-2.1-1.4-1.6-1.5-2.3-0.6-2.6 0.6-0.3 1.2-1.3 1.2-2.3 0-1 0.5-2.2 1-2.5 0.6-0.3 1-3 1-5.9 0-6.8 2-9 5-5.5 1 1.3 1.9 3.1 2 3.9 0 0.9 0.4 2 0.9 2.5 0.5 0.6 1.1 2.1 1.4 3.5q0.5 2.8 0.6-1.2c0-2-0.3-4-0.9-4.3-0.5-0.3-1-1.7-1-3 0-1.2-0.7-2.5-1.5-2.9-1.9-0.7-1.9-3 0-4.6 1-0.8 1.5-3.1 1.5-6.6 0-2.9 0.5-5.6 1-5.9 0.5-0.3 1-1.1 1-1.7 0-0.6-0.3-0.9-0.6-0.5-1 1-6.4-2.2-6.4-3.7 0-0.7-0.7-1.9-1.5-2.6-0.8-0.7-1.5-1.9-1.5-2.7 0-0.8-0.9-2.6-2-4-2.6-3.3-2.5-6.1 0.1-8.9 2-2.1 2-2.2 0.1-5.5-1.1-1.9-2.5-3.3-3.2-3.1-0.9 0.2-1.1-0.7-0.6-3.3 0.6-3.1 0.4-3.7-1.3-4.2-1.2-0.3-1.8-0.9-1.5-1.4 0.3-0.5-1.3-0.9-3.5-0.9-3.5 0-4.1-0.3-4.1-2.1 0-2-2.1-4.9-3.6-4.9-0.4 0-2.1-1.2-3.6-2.7-1.9-1.9-3.9-2.7-6.2-2.7-2.9 0-3.7-0.5-5-3.3-1-2.1-2.3-3.3-3.6-3.3-1.1 0-2-0.4-2-0.8 0-1.4 2.4-3.2 4.2-3.2 2.5 0 6.5-3.7 5.2-4.9-0.5-0.5-2.2-1.1-3.9-1.3-4.1-0.4-3.8-2.2 0.5-2.6 1.9-0.2 4.3-1.1 5.3-1.9 1.5-1.5 1.9-1.5 3.5 0 1 1 3.5 1.7 5.4 1.7 2 0 3.8 0.6 4 1.2 0.3 0.8 1.4 0.2 2.9-1.6 2.2-2.5 2.8-2.7 4.8-1.7 1.7 1 2.6 1 3.7 0 1.3-1.1 1.4-0.9 0.9 1.4-0.6 2.3-0.4 2.7 1.4 2.7 1.7 0 2.1 0.6 2.1 3.5 0 3.5 2.3 5 3.3 2.2 0.4-1 0.7-1 1.8 0 0.7 0.7 3.7 1.3 6.7 1.3 2.9 0 5.1 0.4 4.8 0.9-0.7 1 3.7 3.1 6.6 3.1 2 0 2-0.1 0.3-2-1.2-1.4-1.6-2.7-1.1-4.7 0.8-3.2 0.8-4.3 0-10.1-0.4-2.9-0.1-5.3 1-7.7 1.9-4 1.7-3.9 6.5-2.4 2 0.7 4.2 1.4 5 1.6 1.1 0.3 1 0.7-0.4 2.3-1.7 1.9-1.7 2.1-0.2 3.8 1.3 1.5 1.4 2.1 0.4 3.1-1 1.1-0.8 1.2 1 0.7 1.5-0.5 3.8 0.2 7 1.8 2.6 1.5 5.8 2.6 7 2.6 1.3 0 2.3 0.4 2.3 1 0 0.5 2.1 1 4.6 1 2.5 0 5.4 0.5 6.4 1 1.3 0.7 2.1 0.7 2.5 0 0.4-0.6-1.1-1.8-3.4-2.8-6-2.5-5.1-4.6 2.4-5.3 5.5-0.5 9.4-1.8 16.7-5.5 1.4-0.8 3.3-1.4 4.2-1.4 1.2 0 1.6-1 1.6-4.4 0-2.5 0.5-4.8 1-5.1 0.6-0.3 1-1.8 1-3.2 0-4.9 2.5-6.3 11.1-6.3 8.4 0 10.9-0.6 10.9-2.4 0-0.8 1.6-1.3 4.5-1.4 2.5 0 4.5 0.3 4.5 0.8 0 0.4 0.9 1 2.1 1.3 1.1 0.3 2.3 1.5 2.6 2.6 0.8 3.3 7.4 3 9-0.4 0.9-2.1 0.9-2.5-0.3-2.5-1.2 0-1.4-1.2-1.2-5.7 0.3-5.8 2.4-8.5 3.5-4.4 0.9 3.5 2 2.3 1.9-2.1-0.1-4.1 0-4.3 3.1-4.6 2-0.2 3.3-0.9 3.3-1.7 0-0.8 1.1-2.5 2.5-3.9 1.4-1.4 2.5-3.6 2.5-4.9 0-1.4 0.7-4.1 1.5-6 1.4-3.4 1.6-3.5 4.7-2.7 1.7 0.6 3.5 1.5 4 2.2 1.1 1.8 1 5.6-0.1 6.3-1.1 0.6-4.1 6.3-4.1 7.7 0 1.4 4.3 0.9 6.2-0.9 1.4-1.3 1.8-3.1 1.8-8.9 0-6.8 0.2-7.4 3.1-9.8 1.8-1.6 4.3-2.6 6.1-2.6 1.7 0 4-0.7 5-1.7 1.7-1.5 1.8-1.5 1.8 0.5 0 2.7 2.1 2.8 4.5 0.2 1-1.1 3.1-2 4.7-2 2.7 0 2.8 0.2 2.8 4.5 0 3.3 0.4 4.5 1.4 4.5 2.4 0 2.9-2 1-3.5-1.6-1.2-1.7-1.7-0.6-3.2 0.7-1 1.5-2.6 1.8-3.6 0.5-1.4 1.8-1.7 7-1.7 6.8 0 11.4 1.5 11.4 3.7 0 0.7 0.6 1.2 1.3 1.1 0.7-0.2 1.3 1 1.5 3 0.5 5.2 2.7 3.3 3-2.6 0.3-5.2 0.3-5.2 3.6-5.2 4 0 5.5-3 2.5-4.9-1.1-0.6-1.9-2-1.9-3 0-1.1-0.4-2.3-1-2.6-2-1.2-0.9-3.1 2.5-4.4 3.4-1.2 4.5-3.3 2.5-4.6-0.6-0.3-1-5-1-10.5v-9.8l-3.5-3.3c-3.1-3-3.3-3.5-2-4.9 1.1-1.2 1.5-4.1 1.5-10.7 0-11.2 2.9-18.4 5.7-14.1 0.7 1.2 4.7 3.8 5.7 3.8 0.2 0 0.6-0.9 0.9-2 0.7-2.8 3.7-3.7 5.2-1.7 1.6 2.3 2.2 2.1 2.1-0.6-0.1-1.9 0.5-2.2 3.9-2.5 2.2-0.2 4.4-1 4.8-1.8 1.5-2.6 5.4-1.7 7.1 1.8 2 3.8 2 3.5-0.5 4.1-1.8 0.5-1.9 0.8-0.7 2.6 0.7 1.2 2.2 2.1 3.3 2.1 1.2 0 2.6 0.5 3.3 1.2 1.6 1.6 1.6 7 0 8.6-1.5 1.5-4.5 1.6-5 0-0.2-0.6-1-0.8-1.7-0.4-0.9 0.6-0.9 1.1-0.1 2.1 1.5 1.8-1.2 7.1-4 8-1.1 0.3-2 1.2-2 2 0 0.7-0.8 1.6-1.7 1.9-5.9 2.2-7.1 4-6.4 9.4 0.1 0.8-0.5 1.9-1.4 2.6-1.5 1.1-1.5 1.3-0.1 2.5 2.2 1.8 2.1 5.1-0.1 5.1-1.4 0.1-1.2 0.6 1.1 2.6 2.5 2.2 2.8 2.9 1.8 4.5-1.7 2.6-1.5 2.9 1.3 2.9 1.4 0 2.5 0.4 2.5 1 0 0.5 0.9 1 2 1 1 0 2.3 0.8 2.9 1.7 0.7 1.3 2 1.7 5 1.4 4-0.2 4.1-0.2 4.1 2.8 0 1.7-0.4 3.1-1 3.1-0.5 0-1 0.7-1 1.5 0 1.9 9.6 2.2 10.3 0.2 0.3-0.9 0.7-0.9 2 0.1 1.3 1.1 2.2 1 5.6-0.7 2.2-1.2 5.3-2.1 6.9-2.1 1.6 0 3.5-0.7 4.2-1.5 2-2.4 3.8-1.8 5.5 1.9 1.3 2.7 2.4 3.6 4.8 3.8 3.1 0.3 3.2 0.5 3.5 5 0.3 4.7 0.4 4.8 3.5 4.8 2.8 0 3.4 0.4 4.2 3.2 0.6 1.9 1.8 3.4 2.8 3.6 1.6 0.3 1.6 0.1 0.7-1.5-1-1.6-0.8-2.6 1.5-5.8 3.4-5.1 5.8-6.4 11.8-6.5 2.6 0 4.7-0.4 4.7-1 0-0.5 2.4-2 5.4-3.4 2.9-1.3 6.3-3.7 7.4-5.3 1.6-2.2 2.3-2.5 3.3-1.6 0.9 1 1.9 0.7 4.3-1 5.4-3.9 6.9-4.4 9.9-3.3 2 0.8 3.3 0.7 4.7-0.2 1.1-0.6 3.7-1.2 5.8-1.2 3.4 0 3.9 0.4 5 3.3 0.7 1.8 1.2 4.7 1.2 6.5 0 4.1 1.2 4.7 6.8 3.1 3.5-1 4.7-1 5-0.1 0.2 0.7 1.5 1.2 2.8 1.2 2 0 2.4-0.5 2.4-2.9 0-2 0.6-3 2-3.4 2.7-0.7 2.5-3.3-0.2-4.1l-2.3-0.6 2-1.8c1.2-0.9 2.4-2.5 2.8-3.4 0.5-1.5 7.7-6.8 9.2-6.8 0.3 0 0.5 1.4 0.5 3 0 1.9 0.6 3.3 1.6 3.7 2.3 0.9 4.5-2.4 3.7-5.5-0.7-2.9 0.9-4.2 5.2-4.2 1.9 0 3.5 0.7 4.3 2 0.8 1.4 2.2 2 4.5 1.9 2.9-0.1 3-0.2 0.7-0.8-1.4-0.4-2.9-1.7-3.5-2.9-0.6-1.3-1.9-2.2-3.1-2.2-2.3 0-2.6-1.2-4.3-19.5-0.9-10.1 0.8-21 4.3-27 1.4-2.4 2.6-5.8 2.6-7.5 0-4.6 1.4-6.5 7-9.4 6.4-3.4 9.7-3.4 11-0.1 0.5 1.4 1.5 2.5 2.2 2.5 2.3 0 6.8 5.3 6.8 8 0 1.7 1.3 3.8 3.5 6l3.5 3.4 2.5-2.4c2.3-2.2 2.5-3 2.5-12.2 0-8 0.3-9.8 1.5-9.8q1.5 0 1.5-3c0-1.6 0.5-4.1 1.2-5.5 0.9-2 0.9-2.8-0.1-3.8-1-0.9-1.7-0.6-3.5 1.5-2.6 3.4-3.3 3.4-6.3 0.6-1.9-1.8-2.3-3.2-2.3-8 0-3.2 0.4-5.8 1-5.8 0.6 0 1-0.7 1-1.5 0-0.9-0.9-1.5-2.5-1.5-2.2 0-2.5-0.4-2.5-3.7 0-4.5 2.4-7.3 6.2-7.3 2.1 0 2.8-0.5 2.8-2 0-1.8 0.7-2 7.4-2 5.3 0 7.7-0.4 8.6-1.5 1.4-1.7 13.5-2.2 14.4-0.6 0.4 0.5 1.8 0.5 3.6-0.2 2.4-0.9 3.2-0.8 4.8 0.6 1.3 1.2 3.6 1.7 7.5 1.7h5.7v-4.8c0-3.6 0.5-5.4 1.9-6.6 1.9-1.7 2-1.7 3.5 1.1l1.5 2.8 0.1-3.6c0-4.2 2.6-7.2 4.1-4.8 0.6 1 0.9 1 0.9 0.1 0-0.9 2.6-1.2 9.5-1.2 9.7 0 11.4-0.8 7.8-3.6-2.1-1.5-9.9-1.9-10.8-0.4-0.6 1-7.5-1.8-7.5-3.2 0-0.4-1.1-0.8-2.5-0.8-3.2 0-4.1-2.2-2.5-6.1 1.6-3.9 0.9-4.4-3-2.4-2 1-4.4 1.5-6.1 1.1-1.8-0.3-3.2 0-4 1-0.9 1.1-2.7 1.5-6.5 1.2-4.1-0.2-5.5 0.1-6.3 1.4-0.6 1-1.7 1.8-2.5 1.8-0.7 0-2.1 0.9-3.1 2-2.2 2.5-4 2.6-5.1 0.2-0.6-1.4-0.8-1.1-1.3 1.3-0.5 2.7-1.1 3-5.2 3.6-5.3 0.8-11.6 3.8-14.3 6.8-2.4 2.6-3.1 2.6-4.3-0.1-0.9-2.1-1-2.1-2.8 1-1.8 3-2.3 3.2-7.4 3.2-6.2 0-10.1-2.6-10.1-6.6 0-1.3-0.5-3.5-1.2-4.9-0.9-2-1.8-2.5-4.9-2.5-2.1 0-4.1-0.5-4.4-1-0.3-0.6-2.4-1-4.5-1-5.4 0-9-4.6-9-11.4 0-4 0.4-4.8 2.5-5.8 2.4-1.1 2.5-1.5 2.5-10 0-8.5-0.1-8.9-2.5-10-2.6-1.1-3.5-5.1-1.5-6.3 0.6-0.3 1-1.7 1-3 0-1.3-0.4-2.7-1-3-0.5-0.3-1-2.8-1-5.4 0-3.5 0.5-5.3 2-6.6 1.1-1 2-2.9 2-4.2 0-2.8 2.4-4 4.5-2.3 0.8 0.6 2.3 0.9 3.5 0.5 1.5-0.5 2-1.5 2-4.5 0-3.1 0.6-4.4 3.5-6.9 2-1.7 4-3.1 4.5-3.1 0.6 0 1-1 1-2.1 0-1.2 1.8-4.1 4-6.5 2.2-2.4 4.5-5.6 5.1-7.2 0.6-1.5 2.3-5.1 3.8-7.9 2.2-4.5 3-5.3 5.4-5.3 2.7 0 3.6-1.3 1.7-2.5-0.5-0.3-1-3.6-1-7.3 0-3.7-0.6-7.4-1.3-8.2-1.9-2.4-9.1-4.4-11.3-3.2-1 0.5-2.5 0.6-3.3 0.2-5.4-2.6-7.9-2.8-10-0.7-1.6 1.7-2.3 1.9-3.3 0.9-2.2-2.2-2.8-1.3-2.8 4.3 0 5.2-0.1 5.5-2.4 5.5-2.8 0-3.9 1.3-4.1 4.9 0 1.3-0.6 2.6-1.3 2.9-1.5 0.5-1.6 12.4-0.1 13.9 1.1 1.1-2.6 7.5-5.8 9.9-1.3 0.9-1.9 3.1-2.3 7.6l-0.5 6.3-4.2 1.3c-3.8 1.2-4.2 1.7-3.7 3.7 0.4 1.8 0.1 2.5-1.8 3.1-1.2 0.4-3 0.7-3.9 0.5-0.9-0.1-1.9 0.5-2.2 1.4-0.4 0.8-1.3 1.5-2.2 1.5-0.8 0-1.5 0.6-1.5 1.3 0 0.8-0.9 2.2-2 3.2-1.4 1.3-1.7 2.2-1 2.9 1.6 1.6 1.2 2.3-2.2 3.6-1.8 0.7-5.1 2.1-7.4 3.2-2.2 1-5.3 1.8-6.9 1.6-2.1-0.2-3 0.2-3.3 1.4-0.3 1.4 0.3 1.8 2.7 1.8 4 0 5.2 3.8 2.7 8.1-0.9 1.6-1.8 4.7-1.9 6.9-0.1 2.2-0.5 4-0.9 4-0.4 0-0.8 2.6-0.8 5.7 0 3.8-0.5 6.2-1.6 7.4-1.5 1.6-1.5 2 0 5 0.9 1.8 1.6 4.1 1.6 5.2 0 3.3 2.9 5.8 5.2 4.6 2.6-1.4 4.8-0.4 4.8 2.2 0 2.6 4.7 8.4 6.9 8.4 0.9 0 1.7 0.9 1.9 2 0.2 1.1 0.8 3 1.4 4.3 1.6 3.1-1.5 9.1-5.4 10.4-3.3 1.2-3.6 2.4-0.9 3.3 3.3 1 3.3 3.4 0 5.1-1.7 0.8-3.9 3-5 4.9-1.9 3.2-2.1 3.3-4.6 2-3-1.6-4.3-1.2-4.3 1.3 0 1.9-4.9 7.2-6.7 7.2-0.7 0-1.2 0.4-1 0.9 0.1 0.5-0.6 1.6-1.7 2.4-1.5 1.1-1.7 1.7-0.7 3.5 1.9 3.5 1.2 7.1-3 15.4-1.2 2.5-1.1 5.2 0.3 6.6 0.9 0.9 0.7 1.6-0.6 3.1-1.3 1.4-1.6 2.8-1.2 4.8 0.5 2.3 0.1 3.4-1.9 5.3-1.4 1.3-2.5 3.5-2.5 4.9 0 1.5-1.1 4.3-2.5 6.3-1.5 2.2-2.5 5.1-2.5 7.2v3.6h-5.5c-4.1 0-5.5-0.4-5.5-1.4 0-1.7-3.3-3-5.8-2.2-1 0.3-2.3 1.9-2.9 3.6-0.9 2.4-1.7 3-4 3-4.2 0-5.3 1.7-5.3 8.2 0 5.8 0 5.8-2.9 5.8-1.7 0-3.3-0.5-3.7-1.1-0.3-0.6-1.6-0.8-2.8-0.4-6.9 2.2-14.9 0.4-11.8-2.7 2.4-2.4 0.4-12.3-2.9-14.3-1.4-1-1.1-6.1 0.6-7.5 0.8-0.7 1.5-1.9 1.5-2.6 0-0.8 0.5-1.4 1-1.4 2.2 0 0.9-3.8-1.5-4.4-2-0.5-2.5-1.3-2.5-3.7 0-2.1-0.8-3.7-2.5-5.1-2.6-2-3.5-7.1-1.5-8.3 0.8-0.5 0.7-1.1 0-2-1.3-1.5-0.9-15.3 0.5-19.4 0.7-2.1 0.6-2.3-1.4-1.6-1.8 0.5-2.1 0.2-2.1-1.9 0-1.4-0.4-2.6-1-2.6-0.6 0-1-4.4-1-11.2 0-9.9 0.2-11.4 2.1-13.4l2-2.2-3.4-2.1c-1.9-1.1-3.9-2.1-4.6-2.1-2.1 0-1.2-5.5 1.1-6.5 2.2-1 3.4-4.5 1.6-4.5-1.9 0-8.8 8.4-7.8 9.4 1.8 1.8 1 6.2-1.5 8.6-1.5 1.4-2.5 3.5-2.5 5.1 0 2-0.7 3-3 3.9-3.3 1.4-6 0.1-6-2.7 0-2.2-3.4-1.1-4.5 1.5-0.6 1.3-2.6 2.7-5 3.5-3 1-4.6 2.4-6.3 5.5-3.4 6.2-4.5 6.6-19.1 7.8-4.9 0.5-6.7 0.3-7.5-0.8-0.6-0.8-2.6-2-4.3-2.7-3.7-1.5-4-2.6-1.7-5.2 1.4-1.6 1.4-1.8-0.8-2.4-1.3-0.4-3.5-1.9-5.1-3.3-2.3-2.2-2.7-3.3-2.7-8.3 0-5.3 1.7-8.9 3.3-7.2 0.4 0.3 0.7-0.4 0.7-1.7 0-1.3 0.7-3.1 1.6-4.1 1.9-2.1 1.2-4.9-1.1-4.9-0.8 0-2.5 1.6-3.7 3.5-2.5 3.8-4.2 4.4-5.2 1.9-0.6-1.5 0.1-4.4 2.7-11.7 0.9-2.6 3.4-3.5 5.2-1.9 0.6 0.5 2 0.3 3.3-0.3 1.5-0.8 2-1.5 1.3-1.9-1.7-1.1-1.3-3.8 1.1-6.3 2.1-2.2 2.1-2.3 0.2-2.3-1.1 0-3.3-1.3-4.8-2.9-2.3-2.4-2.7-3.5-2.4-7.7 0.3-4.6 0.5-4.9 3-4.7l2.6 0.2-1.8-3.2c-1.4-2.4-1.8-5.2-1.8-10.7 0-4.1 0.2-7.8 0.5-8.3 0.2-0.4 1.4-0.2 2.6 0.4 1.8 0.9 2 0.9 0.9-0.2-0.6-0.7-1.2-2.3-1.2-3.6 0-1.9 0.5-2.3 2.9-2.3 3.7 0 4.8-1.6 2.7-3.9-2.9-3.1-1.7-8.1 1.9-8.1 1.2 0 2.8 0.7 3.5 1.5 1.1 1.4 1.5 1.4 3.2-0.2 1.7-1.5 2.1-1.5 2.9-0.3 0.8 1.1 1.2 1.2 1.6 0.2 0.2-0.6 2.1-1.2 4-1.2 3.4 0 3.5-0.1 1.9-1.8-1.5-1.8-1.5-2 0.4-3.7 1.8-1.6 2.5-1.7 5.4-0.7 4.8 1.8 5.4 1.5 5.2-2.1-0.1-3 0.1-3.2 3.9-3.5 2.2-0.2 4.5-0.8 5.1-1.3 0.8-0.7 1.4-0.6 1.9 0.1 0.3 0.5 1.1 1 1.8 1 0.8 0 0.8-0.3-0.1-1.2-1.8-1.8-1.4-2.8 1.2-2.8 1.3 0 2.6-0.7 3-1.5 0.3-0.8 1.2-1.5 1.9-1.5 0.8 0 2.2-0.9 3.2-2 1-1.1 2.6-2 3.4-1.8 2.4 0.4 7.1-3.2 7.1-5.3 0-1.2 1-2.1 2.8-2.5 3.2-0.8 7.1-5.1 7.2-8 0-2.6 1.9-4.4 4.5-4.4 1.2 0 3-0.9 4-2 2.5-2.7 4.1-2.5 5.7 0.7 1.6 3.5 4.8 4.3 4.8 1.4 0-1.2-0.6-2.1-1.5-2.1-2.4 0-1.7-2.9 1-4.2 1.7-0.8 2.5-1.9 2.5-3.7 0-1.8 0.7-3 2.3-3.6 1.8-0.9 2.2-1.7 1.9-5-0.2-3.9 1.3-8.5 3-8.5 0.4 0 0.8 0.7 0.8 1.5 0 0.8 0.4 1.5 0.9 1.5 1.5 0 2.3-1.8 1.1-2.5-2.7-1.7 1.4-8.5 5.1-8.5 1.5 0 1.7-0.6 1.2-3.5-0.5-3.3-0.4-3.5 2.3-3.5h2.8l-2.7-2.8c-3.4-3.5-3.4-4.2 0.1-4.2 3.6 0 4.5-0.9 3-2.8-1-1.1-0.8-1.8 1-3.2 1.2-1 2.2-2.7 2.2-3.8 0-3.2 2.6-4.7 5.7-3.3 2.2 1 2.9 0.9 4.8-0.9 1.2-1.1 3.1-2 4.3-2 1.5 0 2.2-0.6 2.2-2 0-1.5-0.7-2-2.5-2-1.4 0-2.5-0.5-2.5-1.2 0-2.4 3.4-4.8 6.8-4.8 2.9 0 3.3-0.2 2.2-1.5-1-1.3-1.6-1.3-4.6 0-3.6 1.5-5.4 0.6-2.9-1.5 0.8-0.7 1.5-2.5 1.5-4.1 0-3 1.7-3.8 3.8-1.7 0.9 0.9 1.5 0.9 2.4 0 0.9-0.9 0.9-1.2 0-1.2-0.7 0-1.2-0.6-1.2-1.4 0-1.5 2.1-2.6 5-2.6 0.9 0 2.3-0.7 3-1.5 1.1-1.3 1.5-1.3 2.1-0.3 0.7 1 0.9 0.9 0.9-0.3 0-0.9 0.9-2.7 2-4 1.6-2 1.9-2.1 2-0.7 0 1.4 0.8 1.8 3.6 1.8 3.5 0 3.5-0.1 2.9-3.1-0.5-2.4-0.2-3.6 1.5-5.5 1.8-1.9 2.1-2.6 1.1-3.8-0.9-1.1-0.6-1.8 1.5-3.5 1.5-1.2 3.1-2.1 3.5-2.1 0.5 0 0.9-1 0.9-2.2 0-2.2 2.6-5.8 4.2-5.8 0.4 0 0.8 0.9 0.8 1.9 0 1.1 0.4 2.2 0.9 2.5 1.1 0.7 2.1-1.7 2.1-5 0-1.3 0.5-2.4 1-2.4 0.6 0 1-1.1 1-2.3 0-1.3 0.9-3.2 2-4.2 2-1.8 2.1-1.8 3.4 0.1 1.4 1.8 1.5 1.8 2.1 0.1 0.9-2.2 3.3-2.2 5.7 0 1 0.9 1.8 1.1 1.8 0.6 0-0.6-0.7-1.6-1.5-2.3-2.6-2.2-1.7-5.4 2.8-9.7 3.5-3.5 4.9-4.1 8.2-4.1 2.2 0 4.6 0.5 5.3 1 0.9 0.8 1.2 0.3 1.2-1.9 0-3.8 3.6-7.5 5-5.3 0.6 0.8 1 1.9 1 2.5 0 0.5 0.7 0.2 1.7-0.7 1.3-1.3 1.4-2 0.4-3.1-0.9-1.2-0.8-1.6 0.4-2.1 0.8-0.3 1.5-1.3 1.5-2.2 0-1 0.7-2.5 1.6-3.5 1.3-1.4 2-1.6 3.5-0.6 1.4 0.9 2.1 0.9 3.1-0.1 0.9-0.9 0.9-1.2 0-1.2-1.8 0-1.4-3.5 0.6-5.3 1.3-1.2 2.1-1.4 2.9-0.6 0.8 0.8 2 0.5 4.4-1.1 4.4-3.2 6.3-1.8 6.7 4.8 0.2 2.9 1 6.4 1.7 7.9l1.5 2.8v-4.6c0-3.9 0.4-4.7 2.5-5.7 1.4-0.6 2.5-1.8 2.5-2.5 0-0.7 1.1-2.4 2.5-3.7 2-1.9 3-2.2 4.3-1.4 2.4 1.5 2.8 8.1 0.7 10.4-1.3 1.4-1.4 2.3-0.7 3.7 1 1.7 1.1 1.6 2-0.7 1.3-3.4 5.8-7.5 6.7-6.1 0.3 0.6 1.7 1.1 3.1 1.1 1.3 0 2.9 0.9 3.6 1.9 0.9 1.5 1.9 1.8 4.5 1.4 2.6-0.5 3.9-0.1 5.8 1.7 2.8 2.7 3.3 7.1 1 9-2.3 1.9-2 7 0.4 7 3 0 4.2 2.2 3.1 5.8-0.7 2.6-0.6 3.2 0.7 3.2 0.9 0 2.4 0.7 3.4 1.6 2.6 2.3 4.9 1.1 4.9-2.6 0-2.3 0.4-3 1.9-3 1.1 0 2.3 0.9 2.6 2 0.3 1.1 1.2 2 2 2 0.8 0 1.7-0.9 2-2 1-3 3.1-2.4 7.4 2 2.4 2.5 4.5 3.8 5.4 3.4 0.9-0.3 2.1 0.3 2.9 1.5 0.9 1.3 1.8 1.7 2.8 1.1 0.8-0.5 2.1-0.3 3.4 0.6 2.9 2 17.7 1.9 21.8-0.2 3.4-1.7 6-1.1 13 3.3 2.2 1.4 5.3 2.3 7.6 2.3 2.8 0 4.5 0.7 6.2 2.5 1.3 1.4 2.8 2.5 3.4 2.4 2.5-0.3 3.7 0.3 7 3.2 2.8 2.4 3.9 2.8 5.4 2 2.4-1.3 10.2 0.6 10.2 2.5 0 0.9 1.2 1.4 3.4 1.4 3 0 3.5 0.3 3.8 2.7 0.2 2.2 0.8 2.8 2.6 2.6 1.6-0.2 2.2 0.2 2.2 1.7 0 1.1 0.5 2 1 2 0.6 0 1 1 1 2.2 0.1 1.3 0.6 3.6 1.3 5.2 1.5 3.4-0.1 13.7-2.1 14.4-0.7 0.2-1.2 1.2-1.2 2.2 0 1-0.9 2-2 2.3-1.2 0.3-2 1.4-2 2.5 0 1.5-1.5 2.8-5.4 4.7-3 1.5-6.2 3.5-7.2 4.6-1.4 1.6-3.1 1.9-9.6 1.9-7.1 0-7.8-0.2-7.8-2 0-2.6-1.7-2.6-3.8 0-1.6 2-1.9 2-6.1 0.5-2.4-0.8-6.5-1.5-9.2-1.5-2.6 0-5.1-0.5-5.4-1-0.3-0.6-1.8-1-3.3-1-1.5-0.1-4.3-0.9-6.2-1.9-2.6-1.4-3.8-1.6-5.1-0.8-1.4 0.9-2.5 0.4-5.8-2.6-2.8-2.5-5-3.7-6.9-3.6-1.6 0.1-2 0.3-0.9 0.6 2 0.5 2 0.5 0.6 3.6-1.6 3.5 1.3 7.7 5.2 7.7 1.9 0 2.9 0.5 2.9 1.5 0 0.9 1 1.5 2.6 1.5 2 0 2.5 0.4 2.2 2.2-0.3 2.1 0.1 2.3 5.7 2.6 6.5 0.3 8.5 1.6 11 6.5 1.7 3.5 2 8.8 0.4 10.4-0.7 0.7-0.3 2.1 1.5 4.8 1.4 2.1 2.6 4.6 2.6 5.6 0 1 0.5 2.1 1 2.4 0.6 0.3 1 1.5 1 2.6 0 1.1 0.7 2.2 1.5 2.5 0.8 0.4 1.5 1.7 1.5 3 0 1.3 0.6 2.4 1.3 2.4 0.6 0 2.4 0.7 3.9 1.4 2.6 1.4 2.9 1.3 3.9-0.6 1-1.9 1.3-1.8 6 2.8 4.1 4.1 5.4 4.8 9.4 5 2.5 0.2 5 0.6 5.6 1 0.6 0.3 2.6-0.2 4.5-1.2 3.3-1.8 3.5-2.2 2.9-5.4-1.1-6.2-5.6-11-7.5-8-1 1.6-4.9 0.3-10.4-3.4-2.1-1.4-4.3-2.6-4.7-2.6-1.2 0-1.1-3.7 0.1-4.5 0.6-0.3 1-2 1-3.7 0-2.7 0.3-3 2.3-2.4 1.2 0.4 4.9 0.9 8.2 1.2 3.3 0.3 6.9 0.9 8 1.4 8.7 3.7 15.7 6 16.7 5.4 0.7-0.5 3.5-0.9 6.2-1.1 2.7-0.1 5.1-0.5 5.3-0.7 0.8-0.8-2.4-7.1-4.6-9-1.1-1.1-2.1-2.4-2.1-3 0-0.6-2.8-2.7-6.1-4.6-8.5-4.9-8.6-5.2-4.9-9.8 2-2.5 3.4-5.6 3.7-8.2 0.5-3.4 1.2-4.6 3.8-6.2 2.4-1.3 4-3.5 5.6-7.6 1.3-3.1 2.4-6.2 2.4-6.7 0-1 1-1 5.8 0.1 1.7 0.4 3.8 0.1 5.3-0.6 2.2-1.2 2.7-1.1 5.4 1.5 3.3 3.2 3.8 4.5 1.5 4.5-0.8 0-1.5 0.4-1.5 1 0 1.3 1.6 1.3 4.1-0.1 1.5-0.7 2.4-0.7 3.4 0.1 0.9 0.8 2 0.8 3 0.2 1.5-0.8 1.1-1.3-2.2-4.1l-3.8-3.1 4.4-7.8-2.5-5.1c-2.5-5-2.7-5.1-7-5.1h-4.5l0.3-8.7c0.2-6.2-0.1-8.8-1-9.1-0.7-0.2-1.2-2-1.2-4.2 0-4.2-3.7-9.1-7.9-10.5-2.9-0.9-2.7-2.5 0.4-2.5 1.4 0 2.5-0.5 2.5-1 0-0.6 1.1-1 2.4-1 1.3 0 4.3-0.7 6.6-1.5 5.6-2 5.7-2 7.5 1.5 0.9 1.8 2.3 3 3.5 3 1 0 4.2 1.7 6.9 3.7 4.7 3.5 4.9 3.9 3.4 5.5-0.9 1-2.4 1.8-3.5 1.8-1 0-1.8 0.4-1.8 0.9 0 0.5-1.6 1.5-3.5 2.1-3.2 1.1-3.5 1.5-3.5 5 0 4.4 1.8 6 6.7 6 1.6 0 5.1 1.5 8 3.5 5.6 3.8 4.7 3.9 15.7-1.5l5.1-2.5 0.3-5.9c0.3-4.9 0-6.2-1.9-8.2l-2.3-2.4 4.3-3.6 4.2-3.7-2.2-2.3-2.3-2.4 2.6-2.8c1.4-1.5 3.8-5.1 5.2-8 1.5-2.8 3.3-5.2 4-5.2 0.8 0 1.7-0.8 2.1-1.9 0.3-1 1.4-2.6 2.5-3.6 1.9-1.7 2-1.7 2.9 0.9 0.6 1.4 1.7 2.6 2.6 2.6 2 0 1.9-0.7-0.5-3.7-2.7-3.4-2.7-8.3-0.1-8.3 1.1 0 2.2 0.6 2.4 1.2q0.6 1.2 0.6-0.3c0.1-0.9-0.6-1.9-1.4-2.3-1.2-0.4-1.3-1-0.3-3.3 1.7-4.1 2.6-4.9 4-3.5 0.7 0.7 2.5 1.2 4 1.2 2.4 0 2.8 0.4 2.8 2.9 0 1.7 0.5 3.3 1 3.6 0.7 0.4 0.7 1.2 0 2.5-0.5 1-1 2.9-0.9 4.2v2.3l1.6-2.3c1.5-2.1 1.7-2.2 3.4-0.6 1.6 1.4 1.9 1.5 1.9 0.2 0-0.8 1.1-2.5 2.5-3.8 1.4-1.3 2.5-3.1 2.5-4.1 0-1 0.5-4 1.2-6.8l1.1-5.1h5.8c6.9 0 7.9-1.1 7.9-9 0-5.1 1.6-9.6 4.3-11.8 1.1-0.9 1.8-0.7 3.4 1.1 3.3 3.6 4.4 6.2 3.1 7.5-1.7 1.7 0.9 4.2 4.2 4.2 1.5 0 3.5-0.9 4.5-2 1.8-2 1.8-2.1-0.3-2.7-1.2-0.3-2.2-0.9-2.2-1.3 0-2 2.5-7.7 4.1-9.6 2.6-2.8 2.4-3.4-1-3.4-2.1 0-3.2-0.6-3.6-2.1-0.4-1.1-2-3.6-3.7-5.5-2.5-2.8-2.8-3.7-1.8-4.9 1.2-1.5 1-6.4-0.5-9.8-0.6-1.5 0-1.7 6.1-1.7 5.8 0 7.6-0.5 13.2-3.5 5.8-3.2 7.1-3.6 13.1-3.3l6.6 0.3-0.1 3.2c-0.1 1.8 0.2 3.3 0.7 3.3 0.5 0 0.9-0.6 0.9-1.3 0-0.7 0.6-2.1 1.3-3.1 1.3-1.7 1.5-1.7 3.8-0.3 2.2 1.5 2.9 1.4 8.9-0.7 9.7-3.4 26-10.8 26-11.7 0-1.8 1.7-0.8 2.8 1.6zm-404.7 92.5c-1.6 0-3.3 2.9-2.9 5.1 0.3 1.9 0.5 1.7 2-1.4 1-2.1 1.4-3.7 0.9-3.7zm-86.4 68.7c-0.3-0.6-0.5-0.1-0.5 1.3 0 1.4 0.2 1.9 0.5 1.2 0.2-0.6 0.2-1.8 0-2.5zm290.8 64c-4.8 1-4.6 1.7 0.5 2.3 6.3 0.8 6.8 0.6 5-1.5-1.3-1.5-1.9-1.6-5.5-0.8zm-173.1 647.3c-0.2 0-0.4 0.4-0.4 1 0 0.5 0.5 1 1.1 1 0.5 0 0.7-0.5 0.4-1-0.3-0.6-0.8-1-1.1-1zm-9.7 2c-0.6 0-0.2 0.9 0.8 2 1 1.1 2.3 2 2.8 2 0.6 0 0.2-0.9-0.8-2-1-1.1-2.3-2-2.8-2z"/><path class="a" d="m378.9 89.7c1.5 2.2 1.8 3.8 1.2 7.6-0.7 5.4-2.3 6.5-3.2 2.1-0.3-1.6-1-2.8-1.7-2.7-0.8 0.2-1.2-1.2-1.2-3.8 0-3.6-0.2-4-1.5-2.9-1.2 1-1.8 1-3 0-1.3-1.1-1.5-0.7-1.5 2.4 0 3.3-0.2 3.6-1.9 2.6-3.5-1.8-4.5-1.1-2.1 1.6 2.1 2.1 2.2 2.7 1 3.4-2.3 1.5-3 1.2-3-1.3 0-1.2-0.9-2.8-2-3.5-1.7-1.1-2-1-2 0.8 0 1.2-0.5 1.7-1.3 1.4-1.8-0.7-4.1 2.2-3.3 4.1 0.3 0.8 1.6 1.5 2.9 1.5 1.3 0 2.7 0.4 3.3 0.9 0.5 0.5 2.4 1.1 4.3 1.3 2.7 0.2 3.8 1 5 3.5 1.1 2.2 2.3 3.3 3.9 3.3 1.3 0 2.2 0.6 2.2 1.6 0 1.1-0.5 1.4-1.7 0.9-1-0.4-3.8-1-6.3-1.2l-4.5-0.5 3.9 4c3.4 3.5 3.7 4.2 2.2 4.8-1.1 0.4-2.5-0.1-4-1.5-1.2-1.1-2.9-2.1-3.6-2.1-0.8 0-3.8-1.2-6.7-2.8-5-2.5-5.5-2.6-8-1.2-4.6 2.6-3.6 4.4 2.7 5 4.5 0.4 5.7 0.9 6.5 2.7 0.5 1.3 1.3 2.3 1.7 2.3 1.2 0 0.9 3.8-0.3 4.5-0.6 0.4-0.9 2.4-0.8 4.4 0.4 5.1-0.5 6.1-5.6 6.1-2.4 0-4.7 0.5-5 1-0.4 0.6-1.5 0.8-2.6 0.5-2.6-0.9-4.8 3.7-2.9 6 0.7 0.8 2 1.5 2.9 1.5 1 0 3.2 1.6 5.1 3.5 1.9 2 4.4 3.5 5.7 3.5 2.1 0 2.3 0.5 2.3 4.6 0 5.7 4.6 12.4 8.6 12.4 1.7 0 2.4 0.6 2.4 1.9 0 1.1 1.5 2.9 3.8 4.2 5.1 3.3 5.2 3.3 5.2 1.4 0-1.2 0.6-1.5 2-1 1 0.3 3.3-0.1 5.1-1 2.6-1.4 3.6-1.5 5.5-0.5 1.2 0.7 3 1 3.9 0.6 0.9-0.3 3.5 0.3 5.7 1.4l4.2 2 3.4-2.1c2.9-1.6 4-1.8 6.5-0.9 2.1 0.7 3.4 0.7 4.3-0.1 1.6-1.3 3.4-0.4 3.4 1.7 0 0.8 0.1 1.4 0.3 1.4 1.4 0 10.9-5.3 11.3-6.4 0.3-0.9 2-1.1 5.9-0.8 5.3 0.4 5.3 0.4 5.7-2.4 0.2-1.8 1.1-3.3 2.6-3.9 1.3-0.6 2.2-1.8 2.2-3.3 0-1.2 0.6-3.1 1.2-4.2 1-1.6 1-2.4 0-4-0.6-1.1-1.2-3.1-1.2-4.5 0-2-0.5-2.5-2.5-2.5-1.4 0-2.5-0.4-2.5-0.8 0-1.7 1.3-2.1 3.1-1.1 1.6 0.8 1.9 0.6 1.9-1 0-1.1-0.4-2.3-1-2.6-1.9-1.2-1-5.2 1.5-6.9 1.4-0.9 2.5-2.3 2.5-3.1 0-1.7-1.6-2-2.5-0.5-1.1 1.8-4.5 1.1-4.5-0.9 0-1.1 0.5-2.3 1-2.6 0.6-0.3 1-2 1-3.6 0-1.7-0.4-2.8-1-2.4-0.5 0.3-1.9 0.1-3-0.5-1.5-0.8-2-0.8-2 0.3 0 2-5.7 7-7 6.2-0.6-0.4-1.4-1.5-1.8-2.5-0.7-1.8-1-1.7-5.7 0.5-2.7 1.2-5.1 2.2-5.2 2.1-0.2-0.1 0.2-1.7 0.7-3.6 0.7-2.3 0.6-3.8-0.1-4.7-1.4-1.6-2.9-1.7-2.9-0.1 0 2.4-3.5 9.8-4.5 9.5-1.7-0.6-1.7-4.3 0-5.7 2.1-1.7 1.9-6.3-0.3-8.3-1.4-1.3-2.1-1.4-3-0.5-0.9 0.9-1.5 0.9-2.4 0-0.8-0.8-1.5-0.3-2.8 2.1-1 1.8-2.5 3.3-3.4 3.5-1.3 0.3-1.6-0.5-1.6-4.1 0-2.8-0.6-4.9-1.5-5.7-1.8-1.5-1.7-1.6-4.8 3.8-1.4 2.5-2.8 3.9-3.1 3.3-1.4-2.1-6.2-1.2-7.6 1.4-0.7 1.4-1.9 2.5-2.7 2.5-1.5 0-1.7-1.6-0.3-2.5 0.6-0.3 1-2.8 1-5.6 0-4.5 0.2-4.9 2.3-4.9 2.9 0 5.6-4.8 3.5-6.1-1-0.7-1-1.1 0-2.1 0.6-0.6 1.2-3.3 1.2-5.8 0-5.7-2.9-9-7.8-9h-3.3z"/><path class="a" d="m1089.3 91.9c-2 6.2-1.7 8.6 1.2 9.9 1.4 0.6 2.5 1.6 2.5 2.2 0 1.3 9.9 6.3 11.4 5.7 1.5-0.6 1.9-13.4 0.5-16.9-0.8-2-2-2.7-4.7-3.1-2-0.3-5-0.9-6.7-1.2-2.8-0.6-3.1-0.4-4.2 3.4z"/><path class="a" d="m790 141c-0.8 0.5-2.3 1.1-3.3 1.4-1 0.3-1.7 1.4-1.6 2.3 0.2 1-0.2 2.8-0.9 3.9-0.9 1.8-0.9 2.4 0.3 3.4 0.8 0.7 1.2 1.6 0.9 2.1-0.3 0.5 0.2 0.9 1.1 0.9 0.9 0 1.9-0.9 2.2-2 0.3-1.3 1.4-2 2.8-2 1.7 0 2.7-1 3.8-3.8 1.4-3.3 1.3-3.9-0.1-5.5-1.7-1.9-2.9-2-5.2-0.7z"/><path class="a" d="m537.2 327.3c-0.6 1.5-1.5 3.9-1.8 5.2-0.4 1.6-1.3 2.5-2.5 2.5-2.1 0-2.6 2.9-0.8 4.7 0.8 0.8 0.6 1.8-0.6 3.7-1.9 2.9-1.7 3.1 2 1.4 3.9-1.7 5.7-6.5 5.3-13.9-0.3-6-0.4-6.2-1.6-3.6z"/><path class="a" d="m501.7 354.7c-0.5 0.7-1.7 1.3-2.8 1.3-2.6 0-2.4 1.2 0.6 4 3.1 2.9 3.7 2.3 3.3-2.6-0.2-2.5-0.6-3.4-1.1-2.7z"/><path class="a" d="m452.5 358c-0.3 0.5-2.1 1-4 1-2.2 0-3.8 0.6-4.4 1.7-1 1.7-1 1.7-1.1 0 0-2.8-1.7-1.1-4 4-2.1 4.7-2.7 10.3-1.1 10.3 0.5 0 1.4-1.4 2.1-3 1.3-3.2 4-4.1 4-1.4 0 2.4 2.3 1.1 3.9-2 0.7-1.6 2.1-3 3-3.3 1.6-0.4 4.1-4.6 4.1-7 0-1.5-1.6-1.7-2.5-0.3z"/><path fill-rule="evenodd" class="a" d="m475 363.4c6 1.9 9.2 3.5 10.4 5.1 1.2 1.6 1.8 1.7 4 0.7 2.1-0.9 3.3-0.8 7 0.9 5.6 2.5 5.9 2.9 4 6.8-1 2.1-2.3 3.1-3.8 3.1-1.2 0-3.3 1.1-4.6 2.5-1.5 1.6-3.4 2.5-5.3 2.5-2 0-3 0.6-3.4 1.8-0.2 1-2 2.4-4 3.1-2.7 1-3.2 1.5-2.2 2.3 1.1 0.7 1.1 1.1 0.2 1.5-0.7 0.2-1.3 0.9-1.3 1.4 0 0.6 0.9 0.5 2.1-0.2 1.4-0.7 5.8-1 12.2-0.7 8.7 0.3 10.2 0.7 11.7 2.5 0.9 1.2 3 2.3 4.6 2.5 4.3 0.5 4.5 4.5 0.5 8.1-1.7 1.5-3.5 2.7-4 2.7-1.8 0-2.2 1.9-0.9 3.9 1 1.7 0.9 2.3-0.7 4.2-1.1 1.2-3 2.5-4.2 3-1.3 0.5-2.3 1.5-2.3 2.4 0 1-1 1.5-2.8 1.5-1.5 0-3.3 0.5-4 1.2-0.9 0.9-1.5 0.9-2.4 0-0.7-0.7-2.3-1.2-3.8-1.1l-2.5 0.1 2.8 1.1c2.9 1.2 3.3 3.5 0.7 4.7-0.8 0.4-2.5 1.2-3.7 1.8-1.3 0.7-3.1 1.3-4 1.4-1 0.1 0.7 0.4 3.7 0.7 5.4 0.6 5.6 0.7 10.2 7.1 2.6 3.6 5.3 7.1 5.9 7.8 0.8 1 0.9 2 0 3.8-1.4 3.2-1.4 6.9 0.1 9.4 1 1.5 1 2.2 0 3.2-0.6 0.6-1.2 3.2-1.2 5.6 0 4.7 1.8 7.1 5.3 7.2 1 0 1.7 0.8 1.7 1.9 0 1.1 0.5 2.3 1 2.6 1.3 0.8 1.3 19.2 0 20-0.5 0.3-0.1 2 1 4.1 1.1 1.9 2 5.3 2 7.7-0.1 3.6-0.5 4.5-3.5 6.7-3.2 2.3-4.3 4.8-2.9 6.3 0.6 0.5 1.3 0.3 6.5-2.4 1.5-0.8 2.4-0.8 3.2 0 0.6 0.6 2.3 1.1 3.8 1.1 1.4 0 4.1 1 6 2.3 2.9 1.9 3.4 3 3.7 6.6 0.2 2.6-0.3 5.2-1.2 6.6-0.9 1.4-1.6 3-1.6 3.8 0 1.9-5.3 6.7-7.3 6.7-0.9 0-1.7 0.4-1.7 1 0 0.5-1.7 1-3.9 1-3.5 0-3.8 0.2-3.4 2.3 0.6 3.2-2.2 5.5-4.8 3.9-1-0.7-2.6-1.2-3.5-1.2-1.6 0-1.5 0.2 0.1 2 3 3.4 7.4 5.1 9.4 3.8 2.2-1.3 4.9-0.5 5.7 1.7 0.8 1.9-3.2 6.5-5.5 6.5-0.8 0-2.7 1.2-4.3 2.7-2.3 2.2-3 2.4-4.3 1.3-0.9-0.7-2.7-1-4.5-0.6-1.7 0.3-4 0.1-5-0.4-1.1-0.6-2.9-1.5-4-2-1.1-0.6-4.7-1-8-1-4.5 0-6.2-0.4-6.6-1.5-0.4-0.8-1.5-1.5-2.7-1.5-1.1 0-2.8-0.7-3.8-1.6-1-0.9-2.3-1.3-2.8-0.9-1.8 1.1-1.2 2.3 1.2 2.7 3.2 0.4 2.8 3.2-0.6 3.6-1.9 0.2-3.9-0.6-6.6-2.7-4.3-3.4-6.3-3.8-8.1-1.6-1.9 2.3-4.7 1.8-5.4-1-0.9-3.5-4.2-5.2-10.8-5.7-5.4-0.4-5.8-0.3-5.8 1.6 0 6-7 8.9-10.7 4.3-1-1.2-3.1-2.7-4.8-3.3-1.6-0.6-3.7-1.5-4.6-1.8-1-0.4-2.7 0.2-4.5 1.7-1.9 1.5-4.4 2.4-7.1 2.6-4 0.2-4.3 0-4.3-2.4 0-1.8-0.5-2.5-2-2.5-1.1 0-2-0.5-2-1 0-0.6 1.5-1 3.4-1 1.9 0 4.9-1.1 7.1-2.6 2-1.4 6-3.1 8.9-3.8 4.4-1.1 5.2-1.7 6.1-4.4 1-3.4 3.1-4.1 5.4-2 1.1 1.1 1.2 0.9 0.6-1-0.6-2-0.3-2.2 3.5-2.2 2.7 0 4.8 0.7 6.2 2 1.6 1.5 3.6 2 7.7 2 5 0 5.7-0.3 6.8-2.5 1.1-2.5 1-2.5-3.1-2.5-3 0-4.8-0.7-6.9-2.6-1.5-1.4-2.5-2.9-2.2-3.5 0.4-0.5-0.8-0.9-2.4-0.9-2.9 0-3.1-0.3-3.1-3.5 0-2.7-0.4-3.5-1.8-3.5-1 0-2.3 0.5-2.9 1.1-1.7 1.7-6.8 0.7-6.7-1.4 0.1-1.2-0.5-1.7-2.2-1.7-2.4 0-3.2-1.4-1.4-2.5 0.6-0.3 1-1.4 1-2.4 0-2.7 2.8-4.7 4.2-3.3 1.5 1.5 8.1 1.5 9.6 0 0.8-0.8 1.5-0.8 2.5 0 1.1 0.9 1.8 0.7 3.3-0.9 1-1.2 3-2.5 4.3-3 1.9-0.8 2.1-1.2 1.1-2.4-0.9-1-0.9-1.5-0.1-1.5 0.6 0 1.1-1 1.1-2.2 0-1.2 0.7-3 1.7-4 0.9-1 1.1-1.8 0.5-1.8-0.6 0-1.3 0.4-1.6 0.8-0.9 1.5-9.6 1.2-9.6-0.3 0-2.9 20.2-9.5 23.2-7.6 1 0.6 2.5 1.1 3.3 1.1 0.8 0 1.5 0.7 1.5 1.6 0 1.1 0.5 1.4 1.7 1 0.9-0.4 2-0.1 2.5 0.6 0.5 0.9 0.8 0.4 0.8-1.4 0-1.5-0.7-3.1-1.6-3.6-2.1-1.2-1-4.9 1.7-5.7 1.1-0.4 1.9-1.5 1.9-2.9 0-2.1 2-3.7 6-4.9 1-0.3 0.6-0.8-1.3-1.8-2.2-1-3.3-1-4.8-0.1-2.8 1.8-3.4 1.4-1.4-0.8 1.7-1.9 1.7-2.1 0.2-3.8-2.7-3-2.3-10.6 0.8-13.7 1.4-1.4 3.2-2.5 4-2.5 1.9 0 1.9-1.4 0-3-1.2-1-1.5-1-1.5 0.4 0 0.9-0.8 1.6-2 1.6-1.1 0-2-0.5-2-1 0-0.7-0.6-0.7-1.9 0-2.7 1.4-3.1 1.3-3.1-1.1 0-3-2.4-1.8-2.8 1.5-0.4 3.5-2.3 2.9-4.1-1.2-1.7-3.8-3.1-4.1-3.1-0.7 0 1.8-0.5 2.5-2 2.5-1.8 0-2-0.7-2-5.3 0.1-5.4 1.2-7.8 4.3-9 1.1-0.4 2.1-1.6 2.4-2.7 0.3-1.1 1.1-2 1.7-2 1.5 0 7.1-5.8 7.9-8.2 0.7-2-0.9-3.5-4.3-4-3.2-0.4-3.7-3-0.8-4.3 2.4-1 3.1-3.6 1.2-4.2-0.6-0.2-2.1 1.2-3.2 3.1-1.4 2.4-2.6 3.4-3.7 3-2.9-1.2-1-9 2.9-12.4 1.2-1 1.4-1.6 0.5-2.6-1.4-1.8-2.4-1.8-4.1 0-1.2 1.1-1.7 1.1-3.3 0-1.5-1.1-1.6-1.6-0.5-2.9 1.2-1.4 1.1-1.8 0-2.5-0.8-0.5-1.1-1.2-0.7-1.7 0.4-0.4 1.7-0.2 2.8 0.5 2.7 1.7 5.7 0 6.1-3.5 0.2-1.7 1.2-3.2 2.6-3.8 1.3-0.6 2.2-1.8 2.2-3.2 0-1.8 0.6-2.3 2.5-2.3 2.9 0 3.3-1.5 0.7-2.9-1.4-0.7-1.7-1.8-1.4-4.8 0.8-7 6-9.6 10.2-5.1 2.1 2.3 2.9 0.7 1-2.2-0.6-1-0.4-2 0.6-3.2 0.9-0.9 1.3-2.2 0.9-2.8-0.4-0.6 0.7-0.4 2.4 0.5 2.4 1.2 3.1 1.3 3 0.3-0.2-0.7 0.3-3 1.1-5.1 1-2.6 1.9-3.7 3-3.3zm-29.1 178.6c-1.5 0.1-4.9 2.3-4.9 3.4 0 1.3 2.8 0.5 4.5-1.4 1.4-1.5 1.5-2 0.4-2z"/><path class="a" d="m441.7 379.6c-2.2 1.2-2.8 2.1-2.5 4.2 0.2 1.9 0.8 2.6 2 2.4q1.8-0.3 1.2 1.2c-0.3 0.8-0.1 1.7 0.5 2.1 0.6 0.3 1.1 1.5 1.1 2.6 0 1 0.4 1.9 1 1.9 1.3 0 4-5.4 4-8.3 0-1.2 0.5-2.8 1.1-3.4 0.7-0.7 0.9-2 0.5-2.9-0.6-1.6-0.8-1.6-2.3-0.1-1.4 1.4-1.8 1.4-2.7 0.2-0.9-1.2-1.5-1.2-3.9 0.1z"/><path class="a" d="m853 403.5c-0.7 0.8-1.9 1.5-2.6 1.5-0.8 0-1.4 0.7-1.4 1.5 0 0.9 0.9 1.5 2.5 1.5 2 0 2.5 0.5 2.5 2.7v2.7l3-2.9c3.8-3.6 3.8-5 0.1-6.9-2.6-1.4-3-1.4-4.1-0.1z"/><path class="a" d="m848.2 415.2c-0.7 0.7-1.2 2.2-1.2 3.5 0 1.5-0.9 2.7-2.5 3.5-3.4 1.5-3.1 2.8 0.6 2.8 2.2 0 3.2 0.5 3.6 2 0.3 1.1 0.9 2 1.4 2 0.5 0 1.4-0.9 2.1-2 0.9-1.3 2.4-2 4.5-2 2.1 0 3.3-0.5 3.3-1.3 0-0.8 1.1-2.4 2.5-3.7 3.2-3 3.1-3.5-0.5-5-2.6-1.1-3.3-0.9-6.1 1-2.5 1.9-3.3 2-4 0.9-0.5-0.8-0.9-1.7-0.9-2.2 0-1.1-1.4-0.9-2.8 0.5z"/><path fill-rule="evenodd" class="a" d="m397.6 428.5c2.6 2 6.4 1.9 8-0.3 1.2-1.6 1.4-1.5 3.8 0.7 1.4 1.4 2.6 3.1 2.6 3.8 0 2.4 2.7 4.3 5.9 4.3 2.7 0 3.1 0.4 3.1 2.7 0 1.6 0.7 3.7 1.5 4.7 2.2 2.9 1.9 7.3-0.5 7.9-1.1 0.3-2 1-2 1.6 0 0.8 0.6 0.9 1.8 0.2 2.6-1.4 4.2 0.4 4.2 4.6 0 3.8-2.9 4.8-3.1 1-0.1-1.7-0.3-1.5-0.8 0.8-0.5 2.3-1.2 3.1-3.3 3.3-4.1 0.5-11.8 10-11.8 14.6 0 1.9-0.4 3.8-1 4.1-0.5 0.3-1 1.9-1 3.5 0 1.6-0.4 3.2-1 3.5-0.5 0.3-1 2.2-1 4.2 0 3-0.9 4.4-5.4 8.9-5.6 5.5-9.9 7.5-11.9 5.5-1.4-1.4-16.3-1.5-17.2-0.1-0.3 0.5-2.4 1-4.6 1-2.7 0-3.9 0.4-3.9 1.4 0 1.1-1.8 1.4-8.2 1.4-4.6 0-8.9-0.5-9.5-1-1.2-1-2.9-0.8-6.5 0.7-1.4 0.5-1.8 0.2-1.8-1.4 0-1.8-0.3-1.9-2.6-1.1-1.4 0.6-2.9 1-3.4 1-1.2 0-1-8.2 0.2-9.8q1-1.2 0-1.2c-0.6 0-1.4 0.5-1.7 1.1-0.5 0.7-1.4 0.4-2.6-0.7-1.9-1.7-1.9-1.8 1.1-4.9 3-3.1 3-3.3 1.1-3.8-4.9-1.2-0.7-5.7 5.4-5.7 4.2 0 6.4-1.8 4.9-4.1-0.3-0.5 0.8-0.9 2.4-0.9 1.7 0 3.7-0.9 5.1-2.4 1.2-1.3 4.3-2.9 6.9-3.6 4.9-1.4 7.2-2.7 7.2-4.1 0-1.2-5.7-1.1-6.5 0.1-1 1.7-2.5 1.1-2.5-0.9 0-1-0.6-2.1-1.3-2.4-2-0.7-3.9-7.8-2.5-9.4 0.6-0.7 1.5-1.3 2.1-1.3 0.6 0 2.1-1 3.4-2.2 2.5-2.3 3-6.7 1.1-8.6-0.9-0.9-0.8-1.2 0.5-1.2 1 0 2.2-1.1 2.7-2.5 1.3-3.5 5.8-3.4 9.3 0.3 1.5 1.5 2.7 3.2 2.7 3.8 0 1.5 6.4 4.6 8.2 3.9 0.9-0.4 1.8-1.9 2-3.3 0.2-1.9 1-2.8 2.6-3 2.2-0.3 2.1-0.5-1-2.5-3.8-2.6-3.8-3.9 0-5.1 1.5-0.5 4.2-2.2 6-3.8 1.8-1.6 3.7-2.6 4.3-2.3 0.5 0.4 1.9-0.1 3.1-0.9 2.8-2 2.9-2 5.4-0.1zm-48.6 54.5c-1.1 0-2 0.4-2 1 0 0.5 0.9 1 2 1 1.1 0 2-0.5 2-1 0-0.6-0.9-1-2-1z"/><path class="a" d="m679.5 432c-0.3 0.5-1.9 1-3.5 1-1.6 0-3.2 0.4-3.5 1-0.3 0.5-1.4 1-2.4 1-2.1 0-6.8 4.8-7.3 7.5-0.3 1.8-1.2 2-8.3 2.3-8.3 0.3-10.5 1.2-10.5 4.4 0 2.1 2.8 6.8 4.1 6.8 0.4 0 0.9-1.5 1.1-3.3l0.3-3.2 6.5-0.3c3.6-0.2 6.9-0.7 7.5-1.3 1.7-1.7 8.1-1 10 1.1 2.1 2.3 3.5 2.6 3.5 0.7 0-0.8 1.1-2.4 2.5-3.7 3-2.8 3.5-8 0.8-8-1.3 0-1.1-0.6 1-2.8 1.5-1.5 2.7-3.1 2.7-3.5 0-1.1-3.8-0.8-4.5 0.3z"/><path class="a" d="m437.2 468.3c-4 4.2-1.8 7.3 3.6 5.1 3.3-1.5 4.2-4 2-6.2-1.8-1.8-3.2-1.5-5.6 1.1z"/><path class="a" d="m692.2 477.2c-1.7 1.7-1.5 2.5 0.9 3.1 2.7 0.7 1.5 2.7-1.7 2.7-1.7 0-2.4 0.5-2.4 2 0 1.1-0.7 2-1.5 2-1.7 0-2-1.6-0.5-2.5 0.6-0.3 1-1.3 1-2.1 0-2.2-3.7-1.7-4.3 0.6-0.3 1.1-1.4 2-2.5 2-3 0-4 2-3.9 8 0 6.7 0.9 8 5.6 8 2.3 0 3.1 0.3 2.3 0.9-1.8 1.1 0.5 2.9 4.9 3.8 3.1 0.6 3.3 0.5 2.1-1-1.5-1.8-0.8-3.7 1.3-3.7 1.9 0 3.8-3.6 3-6-0.4-1.2 0.4-3 2.5-5.4 2.7-3 3-3.8 2-5.7-0.9-1.5-0.9-2.4-0.1-3.2 0.6-0.6 1.1-1.9 1.1-2.9 0-1.5-0.8-1.8-4.3-1.8-2.4 0-4.8 0.5-5.5 1.2z"/><path class="a" d="m663 489.5c0 0.8-0.4 1.5-1 1.5-0.5 0-1 1.8-1 4 0 3.6 0.3 4 2.5 4 1.4 0 2.5 0.4 2.5 1 0 0.5 2 1 4.5 1h4.5v-5c0-3.2-0.4-5-1.2-5-0.6 0-2-0.7-3-1.6-1.4-1.3-2.1-1.4-3.2-0.5-1 0.8-1.6 0.9-2.1 0.1-0.9-1.5-2.5-1.2-2.5 0.5z"/><path class="a" d="m427.8 490.5c-0.3 0.3-0.3 1.7 0 3 0.3 1.9 1.1 2.5 3.2 2.5 3.6 0 5.7-2.4 4-4.5-1.2-1.4-6.1-2.1-7.2-1z"/><path class="a" d="m674.4 508.1c-0.3 0.6 0.6 2.4 2.2 4 3.3 3.4 8.4 4.1 8.4 1.1 0-4-8.6-8.2-10.6-5.1z"/><path class="a" d="m687 509.8c0 1.6 0.7 3.5 1.5 4.2 1.3 1.1 1.8 1 3-0.6 1.9-2.6 1.9-4-0.2-4.8-1-0.3-2.4-0.9-3-1.2-0.9-0.4-1.3 0.4-1.3 2.4z"/><path class="a" d="m596.2 811.8c-1.2 0.4-3.8 2-5.7 3.5l-3.6 2.9 0.4 8.8c0.2 4.9 0.8 9.5 1.4 10.2 0.6 0.7 1.3 2.4 1.6 3.8 0.4 1.4 2 3.3 3.7 4.2 2.8 1.6 3 1.6 3-0.1 0-1 0.3-2.1 0.7-2.5 1.2-1.1 3.3-8 3.3-10.7 0-1.4 1.1-3.6 2.5-4.9 2.1-2 2.5-3.3 2.5-8 0-3.1-0.5-6.1-1.2-6.8-1.3-1.3-4.8-1.4-8.6-0.4z"/><path class="a" d="m592.5 850c-1.6 1-3.7 1.9-4.6 1.9-0.9 0.1-2.2 0.8-2.9 1.6-0.7 0.9-2.9 1.5-5.1 1.5-2.1 0-4.1 0.5-4.4 1-0.5 0.8-1.1 0.7-2.1-0.1-0.8-0.6-1.6-1-1.7-0.8-2.1 3.2-2.8 6.3-2.3 9.6 0.4 2.1 1 5.9 1.2 8.5 0.5 4.3 0.8 4.8 3.2 4.8 2.4 0 2.4 0.1 0.9 1.8-1 1-1.7 3.1-1.7 4.6 0 1.9-0.6 2.9-2 3.3-2.3 0.6-2.5 1.4-0.9 3 0.8 0.8 0.7 1.7-0.3 3.2-1 1.7-1 2.5 0 4.1 0.6 1.1 1.2 2.9 1.2 3.9 0 2.5 1.3 3.3 6.7 4.1 4.2 0.7 4.3 0.6 4.3-2 0-1.5 0.2-2.9 0.5-3.2 0.6-0.6 7 1.4 8.1 2.5 1.4 1.4 4.3 0.7 5.4-1.2 0.5-1.1 1-4.9 1-8.5 0-3.6 0.5-6.8 1-7.1 0.6-0.3 1-3.2 1-6.5 0-4.2 0.4-5.9 1.5-6.4 2.4-0.9 4.2-5.5 2.6-6.5-1-0.7-1-1.3-0.2-2.9 1.5-2.8 1.4-4.2-0.4-4.2-0.9 0-1.5-0.9-1.5-2.4 0-1.3-0.9-3.5-2-4.9-1.1-1.4-2-3-2-3.6 0-1.5-1-1.3-4.5 0.9z"/><path class="a" d="m460.2 862.2c-0.7 0.7-1.2 1.8-1.2 2.5 0 0.9-1.6 1.3-5 1.3-3.8 0-5 0.4-5 1.5 0 1 1 1.5 3.3 1.5 2.6 0 4 0.8 6.3 3.5 3.2 3.9 7.3 4.7 8.1 1.7 0.2-1 1.4-2.2 2.5-2.7 3.5-1.6 3.4-3.5-0.1-3.5-2.1 0-3.3-0.6-3.7-1.8-1.5-4.7-3.2-6-5.2-4z"/><path class="a" d="m480.5 862c-1 1.6 1.4 5 3.5 5 1 0 2.2 0.4 2.5 1 0.3 0.5 1.5 1 2.6 1 1.4 0 1.9-0.7 1.9-3 0-2.5-0.4-3-2.4-3-1.4 0-2.8-0.5-3.1-1-0.8-1.3-4.2-1.3-5 0z"/><path class="a" d="m423 876.5c0 0.9-0.9 1.5-2.5 1.5-2.1 0-2.5 0.5-2.5 3 0 1.6 0.1 3 0.3 3 2.9-0.2 8.1-3.3 9.3-5.5 1.8-3.6 1.9-3.5-1.6-3.5q-3 0-3 1.5z"/><path class="a" d="m880.7 917.6c-3.9 2.1-2.9 3.8 2.4 4.2 2.4 0.2 5.3 1.1 6.4 2.1 1.1 1 4.5 3.4 7.7 5.4 5.3 3.4 8.9 7 11.4 11.2 0.6 1.2 1.6 1.6 2.7 1.2 2.6-1 2.1-5.9-0.7-8.6-1.4-1.3-2.6-3.3-2.8-4.5-0.2-1.1-1.1-2.2-2.1-2.4-1.1-0.2-3.5-1.5-5.4-2.8-2-1.3-4.7-2.4-6-2.4-1.4 0-3.8-1.1-5.5-2.5-3.4-2.9-4.3-3-8.1-0.9z"/></svg>