<?xml version="1.0" standalone="no"?>
<!DOCTYPE svg PUBLIC "-//W3C//DTD SVG 20010904//EN"
 "http://www.w3.org/TR/2001/REC-SVG-20010904/DTD/svg10.dtd">
<svg version="1.0" xmlns="http://www.w3.org/2000/svg"
 width="1280.000000pt" height="1181.000000pt" viewBox="0 0 1280.000000 1181.000000"
 preserveAspectRatio="xMidYMid meet">
<metadata>
Created by potrace 1.15, written by Peter Selinger 2001-2017
</metadata>
<g transform="translate(0.000000,1181.000000) scale(0.100000,-0.100000)"
fill="#fdfdfd" stroke="none">
<path d="M9525 11802 c15 -15 75 -26 75 -13 0 6 -8 11 -17 11 -10 0 -29 3 -43
6 -17 5 -22 3 -15 -4z"/>
<path d="M9480 11762 c0 -7 18 -19 63 -40 5 -2 7 6 5 19 -2 19 -10 25 -35 27
-18 2 -33 -1 -33 -6z"/>
<path d="M9571 11701 c-28 -8 -56 -44 -65 -84 l-7 -29 43 7 c24 4 44 8 45 9 5
4 19 106 14 105 -3 -1 -17 -4 -30 -8z"/>
<path d="M9680 11651 c0 -15 -8 -21 -32 -23 -24 -2 -36 -10 -46 -30 -9 -19
-25 -29 -61 -39 l-49 -12 -4 -82 c-5 -91 -34 -166 -107 -273 -32 -47 -101
-195 -101 -217 0 -2 18 -5 40 -7 l40 -3 -37 -55 c-34 -50 -38 -62 -39 -125 -1
-54 -8 -81 -28 -119 -34 -65 -41 -109 -26 -159 8 -27 14 -107 15 -217 1 -175
1 -175 -32 -269 -19 -51 -44 -144 -57 -206 -28 -128 -56 -200 -104 -263 -19
-24 -52 -82 -74 -128 -42 -89 -70 -118 -148 -153 -77 -35 -118 -29 -229 37
-55 31 -113 65 -130 74 -18 10 -38 32 -46 50 -14 32 -13 34 13 55 l27 23 -40
0 -40 1 33 29 c20 19 43 30 61 30 15 0 46 13 67 28 21 16 52 35 68 43 16 8 32
20 34 28 3 9 0 11 -8 6 -7 -4 -16 -2 -20 6 -13 20 -121 24 -158 5 -35 -18 -68
-60 -78 -100 -3 -15 -12 -30 -18 -32 -6 -2 -72 17 -147 43 l-135 48 -63 70
c-54 60 -80 79 -178 129 l-115 60 7 34 c4 20 1 47 -6 64 -10 24 -16 28 -35 24
-19 -5 -22 -3 -19 14 5 27 -2 25 -32 -10 -13 -16 -34 -30 -45 -30 -17 0 -20 5
-14 30 7 36 4 36 -34 8 l-29 -21 -91 83 c-50 46 -95 91 -101 101 -6 12 -21 19
-37 19 -33 0 -69 30 -78 64 -12 49 48 141 122 186 27 17 34 32 59 122 26 98
55 157 55 115 0 -21 13 -22 30 -2 10 12 10 15 -1 15 -8 0 -7 4 4 13 16 11 15
14 -13 31 -29 17 -30 19 -13 32 26 19 35 17 28 -7 -6 -17 11 -8 68 36 l76 59
-6 41 c-4 30 -1 44 11 54 12 10 13 18 5 33 -6 11 -9 21 -7 22 2 2 29 22 61 46
63 47 62 36 12 113 -11 17 -24 26 -32 22 -55 -20 -59 -19 -71 35 -7 29 -10 56
-6 61 9 15 24 10 24 -7 0 -14 3 -14 15 -4 8 7 15 17 15 23 0 6 -3 7 -7 4 -3
-4 -12 -2 -18 3 -17 14 -51 0 -125 -50 -32 -22 -65 -40 -72 -40 -7 0 -37 -14
-67 -30 -30 -17 -57 -30 -60 -30 -3 0 14 18 39 39 38 33 42 41 31 55 -11 13
-9 20 11 45 12 17 28 30 34 30 7 1 14 9 18 19 3 9 9 23 12 31 5 10 -3 8 -25
-5 -17 -10 -31 -21 -31 -24 0 -3 -34 -34 -75 -69 -65 -55 -84 -65 -142 -77
-70 -14 -87 -10 -98 26 -5 15 -11 17 -30 10 -19 -7 -26 -5 -38 13 -14 21 -15
21 -67 5 -37 -12 -59 -14 -77 -7 -13 5 -35 9 -49 9 -13 0 -33 9 -44 20 -11 11
-32 20 -47 20 -21 0 -24 3 -15 12 29 29 13 38 -70 38 l-83 0 -2 34 c-2 19 2
38 7 41 6 3 10 10 10 16 0 18 -20 8 -55 -27 -41 -41 -44 -40 -105 38 l-37 47
-38 -26 c-20 -13 -39 -23 -41 -20 -3 2 -8 43 -11 91 -3 47 -8 86 -11 86 -12 0
-62 -54 -62 -67 0 -16 -5 -16 -30 -3 -13 7 -21 6 -30 -5 -8 -10 -18 -11 -36
-4 -44 16 -73 10 -110 -24 l-37 -33 58 -57 c55 -56 57 -57 73 -37 14 16 25 18
60 13 38 -5 42 -8 42 -33 0 -19 7 -30 26 -39 23 -10 26 -16 20 -43 -9 -45 -25
-60 -58 -56 -23 4 -30 0 -34 -18 -7 -27 -37 -34 -149 -34 -117 0 -143 7 -161
43 l-16 29 -19 -31 c-23 -37 -53 -34 -39 5 11 29 -4 32 -38 8 -14 -9 -24 -30
-28 -55 -9 -56 -42 -77 -92 -59 -33 12 -37 11 -50 -9 -8 -11 -23 -21 -32 -21
-13 0 -24 -15 -36 -46 -11 -28 -41 -70 -76 -106 -70 -71 -73 -93 -18 -109 22
-7 40 -15 40 -18 0 -11 -57 -41 -77 -41 -33 0 -44 -16 -66 -101 l-22 -83 -44
-16 c-42 -14 -45 -18 -68 -84 -12 -38 -22 -70 -20 -72 1 -1 21 -11 45 -23 25
-13 47 -33 52 -47 15 -38 12 -46 -11 -34 -16 9 -24 8 -38 -4 -14 -13 -24 -14
-45 -6 -36 13 -36 13 -36 -10 0 -24 -7 -25 -54 -5 -55 23 -136 36 -179 29 -22
-3 -54 -20 -75 -38 -28 -24 -34 -26 -28 -11 5 11 11 28 14 38 3 12 7 15 12 8
4 -8 13 -4 26 10 19 22 19 22 -3 17 -13 -4 -23 -2 -23 3 0 4 -21 15 -47 22
-42 12 -51 21 -86 78 -63 104 -128 159 -193 163 -13 0 -24 7 -24 14 0 8 -7 11
-19 7 -11 -3 -24 1 -32 11 -23 28 -57 35 -94 19 -24 -9 -35 -21 -35 -35 0 -20
-1 -20 -25 -4 -31 20 -55 12 -55 -19 0 -19 -41 -57 -63 -57 -2 0 -7 18 -11 40
-6 38 -8 40 -41 40 -30 0 -36 -4 -41 -27 -3 -16 -8 -35 -10 -44 -3 -9 3 -19
12 -23 16 -6 16 -7 0 -19 -10 -7 -21 -28 -25 -47 l-7 -35 -31 54 -31 54 -27
-44 c-15 -24 -35 -57 -45 -72 l-17 -29 -21 26 c-25 32 -32 33 -33 4 0 -21 -1
-21 -8 -4 -7 17 -9 17 -29 -9 -24 -30 -27 -66 -12 -130 5 -22 7 -41 5 -43 -2
-2 -18 4 -36 13 -26 14 -37 15 -52 5 -16 -10 -21 -8 -34 10 -14 20 -16 20 -34
4 -25 -22 -24 -44 1 -44 11 0 20 -5 20 -11 0 -6 9 -9 20 -6 23 6 25 -7 10 -47
-7 -20 -16 -26 -40 -26 -20 0 -30 5 -30 15 0 24 -67 20 -75 -4 -4 -15 -17 -21
-48 -23 l-42 -3 33 -18 c19 -10 42 -15 52 -12 16 5 20 2 20 -19 0 -13 -4 -37
-10 -51 -7 -18 -6 -48 2 -96 9 -58 14 -69 27 -64 9 4 22 9 30 12 11 5 11 2 2
-15 -7 -12 -21 -22 -32 -22 -13 0 -25 -11 -33 -30 l-12 -31 -26 21 c-15 11
-37 20 -50 20 -13 0 -33 6 -43 14 -11 8 -25 12 -32 9 -7 -3 -13 0 -13 7 0 8
-16 9 -55 5 -42 -6 -61 -4 -79 8 -22 15 -23 15 -34 -19 -10 -34 -9 -36 21 -55
18 -10 37 -21 42 -23 6 -2 1 -14 -11 -27 -12 -13 -24 -29 -28 -36 -8 -15 3
-43 18 -43 6 0 36 -25 66 -55 l54 -55 -32 0 c-30 0 -32 -2 -32 -37 -1 -47 -26
-86 -41 -63 -36 56 -74 129 -84 164 -9 29 -18 42 -34 44 -11 2 -21 6 -20 10 0
4 24 27 54 52 l53 45 -66 3 c-67 3 -67 3 -100 -35 -18 -21 -45 -63 -60 -93
-17 -35 -40 -63 -62 -77 -116 -73 -124 -92 -115 -265 l8 -129 28 6 c17 4 29 2
29 -3 0 -6 2 -16 5 -24 3 -8 -30 -37 -90 -78 -79 -55 -95 -69 -97 -94 -2 -23
-9 -32 -27 -36 -20 -4 -27 -15 -36 -55 -24 -106 -101 -207 -204 -269 -67 -40
-261 -119 -350 -141 -46 -12 -82 -15 -131 -10 -79 8 -93 2 -165 -64 -46 -44
-59 -50 -179 -82 -127 -34 -128 -34 -142 -70 -13 -30 -23 -38 -68 -52 -66 -21
-86 -21 -114 -1 -21 14 -27 14 -69 0 -62 -21 -66 -20 -47 9 16 25 16 27 -12
56 l-28 29 -16 -52 c-15 -50 -16 -52 -30 -33 -8 11 -24 27 -34 35 -18 14 -19
13 -13 -9 4 -18 1 -24 -14 -28 -22 -6 -26 -23 -5 -23 29 0 25 -17 -11 -51 -20
-19 -33 -28 -29 -21 4 7 1 12 -8 12 -9 0 -16 -5 -16 -11 0 -6 -23 -32 -52 -57
-29 -26 -75 -71 -102 -99 -27 -29 -92 -79 -145 -111 -199 -121 -182 -105 -251
-236 l-63 -119 -14 44 c-8 24 -14 79 -14 122 l1 78 -27 -19 c-59 -42 -78 -84
-118 -253 -18 -76 -18 -77 3 -117 17 -33 21 -61 23 -145 1 -98 -1 -107 -32
-178 -31 -68 -34 -82 -34 -175 0 -101 0 -102 37 -155 20 -30 46 -76 57 -102
25 -57 63 -115 146 -216 34 -42 66 -85 72 -96 16 -31 24 -107 15 -140 l-9 -30
-20 40 c-11 22 -28 66 -37 97 -9 31 -21 60 -26 63 -14 8 -13 -11 2 -34 9 -14
8 -26 -2 -50 -17 -41 -26 -39 -34 7 -5 35 -91 171 -108 172 -13 0 -30 -73 -25
-110 6 -48 52 -115 111 -164 48 -39 54 -56 32 -95 -13 -24 -15 -22 -65 77 -50
99 -52 101 -80 96 -29 -6 -31 -4 -73 80 -35 70 -47 86 -65 86 -20 0 -23 -5
-23 -35 0 -44 14 -72 101 -201 38 -57 91 -121 122 -148 54 -46 180 -204 211
-263 9 -17 21 -65 26 -104 13 -89 40 -139 112 -200 40 -35 58 -60 75 -105 13
-33 41 -81 64 -109 60 -72 68 -93 85 -222 24 -179 81 -322 193 -488 127 -186
143 -222 140 -303 -2 -40 2 -76 10 -90 8 -16 10 -46 6 -100 -5 -57 -2 -90 9
-127 22 -71 20 -112 -9 -161 -29 -49 -45 -57 -98 -45 -49 12 -52 5 -44 -104 6
-86 21 -135 57 -186 17 -24 25 -27 40 -19 10 6 37 10 58 10 33 0 54 -10 119
-59 104 -78 229 -121 351 -121 46 0 92 5 102 10 13 7 34 7 65 0 56 -13 138 6
227 51 59 30 59 30 44 54 -15 23 -15 25 30 57 25 18 55 50 65 70 19 37 19 37
68 31 38 -4 62 0 106 18 57 23 57 23 35 41 l-22 18 33 45 c40 56 97 85 167 85
32 0 78 10 119 26 62 24 82 26 219 28 140 1 151 0 146 -17 -2 -10 4 -27 13
-37 20 -22 39 -27 33 -8 -3 7 9 24 26 38 23 20 44 26 98 30 63 5 68 4 68 -15
0 -19 1 -19 22 2 21 21 23 21 50 5 26 -15 29 -15 57 6 17 12 38 22 47 22 33 0
99 40 120 72 11 18 34 68 50 111 41 110 63 133 159 166 51 17 140 63 246 128
91 56 177 104 190 108 13 3 47 1 75 -3 93 -15 265 17 459 85 94 33 197 74 231
91 115 60 216 71 699 76 70 1 100 -13 218 -97 92 -66 145 -86 183 -69 39 19
55 15 118 -28 54 -37 64 -40 124 -40 l66 0 -27 -28 c-15 -15 -27 -31 -27 -35
0 -4 24 2 53 13 28 11 53 20 55 20 1 0 2 -23 2 -50 l0 -50 38 6 c29 4 43 2 55
-11 20 -19 14 -35 -14 -35 -16 0 -19 -7 -19 -45 0 -26 5 -45 11 -45 7 0 9 -9
6 -21 -4 -13 2 -32 15 -50 20 -26 27 -29 80 -29 54 0 59 -2 68 -26 6 -14 10
-47 10 -73 0 -42 4 -51 44 -90 50 -49 83 -116 93 -188 6 -44 5 -47 -11 -34
-20 16 -18 18 -40 -38 l-17 -43 26 6 c21 5 28 2 41 -21 9 -16 29 -52 45 -81
l30 -53 35 22 35 21 6 -21 c3 -13 13 -21 27 -21 20 0 24 8 35 67 30 165 26
156 104 218 40 31 116 80 169 108 l96 52 64 108 c62 106 64 107 94 102 24 -4
33 -1 39 12 5 15 9 12 21 -16 8 -19 13 -35 12 -36 -53 -30 -58 -36 -58 -80 0
-59 -11 -84 -64 -144 -27 -30 -50 -68 -56 -93 -7 -24 -25 -71 -41 -106 l-29
-62 24 6 24 6 -12 -59 -12 -58 -50 3 c-41 3 -53 0 -71 -20 -20 -22 -67 -117
-60 -124 1 -2 23 2 47 7 25 6 83 14 130 17 l85 7 28 55 c15 30 44 100 64 154
l37 100 33 -70 c45 -95 60 -174 44 -232 -16 -60 -45 -98 -92 -122 -28 -15 -39
-27 -39 -44 0 -31 -40 -50 -75 -34 -20 9 -25 19 -25 46 l0 34 -87 -7 c-122 -9
-187 -23 -217 -46 -30 -24 -32 -35 -10 -89 l16 -40 128 0 c120 0 129 1 135 20
6 18 15 20 87 20 l80 0 -6 33 -6 33 62 0 c35 -1 82 3 105 8 39 8 43 6 87 -34
49 -45 121 -153 154 -230 11 -25 22 -70 26 -102 6 -54 5 -57 -25 -82 -28 -24
-30 -30 -24 -64 14 -82 28 -115 61 -152 20 -22 33 -43 30 -49 -5 -8 40 -93 78
-147 8 -12 51 -36 94 -53 86 -35 117 -60 127 -104 9 -36 53 -68 65 -46 30 51
32 52 84 31 29 -11 44 -22 38 -26 -7 -4 -12 -14 -12 -23 0 -14 3 -14 20 2 20
18 22 18 72 -6 29 -13 88 -53 133 -87 152 -120 187 -126 320 -50 112 64 146
73 185 53 17 -9 36 -27 42 -41 9 -19 17 -24 32 -20 12 3 31 9 43 12 18 5 21 3
17 -13 -4 -15 4 -24 38 -39 64 -28 116 -80 124 -121 7 -35 11 -37 56 -18 22 9
42 -37 34 -77 -5 -28 -5 -28 44 -28 l49 0 3 52 c3 49 5 53 33 59 54 11 108 39
216 109 58 39 131 79 162 90 78 28 185 26 317 -5 58 -14 121 -25 141 -25 56 0
171 62 194 104 10 19 24 32 31 29 9 -3 13 19 16 79 4 99 41 191 95 239 27 23
34 35 29 53 -8 34 10 86 53 154 59 91 109 141 173 173 51 26 58 33 58 59 0 17
19 76 43 131 38 93 46 104 94 137 37 27 61 54 87 102 20 38 78 111 138 175 99
107 104 111 183 139 44 15 82 32 83 37 8 20 35 39 56 39 19 0 26 10 41 65 15
52 35 85 102 169 97 124 155 234 173 331 10 50 29 98 71 173 32 57 78 160 104
229 38 105 56 138 105 201 33 41 60 80 60 86 0 6 7 53 14 104 13 81 13 98 -1
137 -14 43 -14 47 15 127 17 46 35 117 42 158 6 41 13 85 16 98 6 28 -7 28
-38 -1 -18 -16 -27 -38 -32 -75 -9 -69 -16 -88 -27 -71 -4 7 -3 21 2 31 8 15
6 18 -16 18 -20 0 -25 5 -25 24 0 13 -3 32 -7 42 -5 14 -2 16 15 12 27 -7 29
-1 37 123 7 123 20 189 48 244 14 28 20 62 21 115 1 75 2 76 60 162 58 85 58
87 63 172 l6 87 -47 -28 c-45 -26 -47 -30 -42 -62 4 -28 0 -38 -25 -62 -17
-16 -36 -29 -41 -29 -6 0 -8 -9 -5 -20 7 -28 -2 -25 -51 18 -37 33 -45 48 -63
117 -18 68 -29 87 -69 130 -30 31 -67 89 -98 151 -49 97 -52 102 -100 121
l-50 21 -7 79 c-8 99 -8 99 -45 118 -23 12 -35 13 -51 4 -11 -6 -24 -8 -27 -4
-18 17 -17 143 1 219 15 66 17 87 7 125 -10 39 -64 141 -76 141 -2 0 -15 -12
-29 -26 -21 -21 -24 -29 -13 -35 7 -5 16 -9 21 -9 11 0 9 -30 -3 -30 -5 0 -17
11 -26 25 -9 14 -24 25 -34 25 -12 0 -25 17 -40 54 -18 45 -27 56 -51 61 -24
6 -28 9 -18 21 9 11 8 14 -4 14 -12 0 -17 -16 -23 -70 -5 -55 -10 -70 -23 -70
-26 0 -36 12 -59 68 -21 52 -21 54 -3 59 18 5 18 7 -5 59 -22 50 -23 55 -9 95
16 45 13 55 -20 61 -15 2 -19 10 -17 27 2 13 -2 52 -8 87 -11 58 -17 68 -60
104 -48 41 -100 123 -86 137 4 4 19 -5 32 -20 l24 -28 0 32 c0 27 2 30 16 18
9 -7 13 -21 10 -34 -4 -17 2 -25 29 -38 l35 -17 0 25 c0 17 -6 25 -17 25 -16
1 -16 2 1 15 19 15 19 16 -2 54 l-23 40 22 12 c16 8 18 13 9 19 -7 4 -9 13 -6
19 5 7 -2 11 -18 11 -15 0 -31 8 -38 20 -19 30 -31 24 -24 -10 3 -16 2 -30 -2
-30 -4 0 -28 21 -52 46 -63 64 -78 71 -97 44 -15 -21 -15 -20 -43 23 -31 49
-50 60 -86 51 -22 -6 -24 -3 -24 29 0 48 -38 72 -60 37 -11 -18 -13 -16 -33
50 -9 30 -27 68 -40 84 -21 26 -25 27 -44 15 -25 -15 -49 -1 -64 38 -8 23 -10
23 -33 8 -20 -13 -29 -14 -46 -5 l-22 12 23 24 22 24 -42 0 c-82 0 -142 50
-142 118 0 15 3 71 7 124 l6 98 -48 -7 -48 -6 15 24 c9 13 24 36 34 52 12 19
14 31 7 40 -5 6 -10 44 -10 82 1 46 -8 99 -25 154 -24 80 -24 84 -6 88 29 8
23 42 -8 54 -48 18 -92 58 -123 112 -35 61 -37 73 -11 80 13 3 18 11 15 23 -2
11 -15 84 -30 163 -22 124 -24 147 -12 175 7 17 13 45 13 61 1 17 5 41 9 55 6
23 -3 32 -117 112 -134 94 -137 98 -137 196 0 17 -2 32 -6 32 -3 0 -22 -11
-42 -25 l-37 -25 -5 26 -5 27 -50 -50 c-89 -91 -105 -80 -160 105 -21 71 -23
90 -14 140 6 39 6 72 -2 105 -11 46 -8 112 7 150 5 14 0 17 -30 17 l-36 0 20
39 20 40 -59 53 c-52 46 -59 57 -54 81 3 15 20 42 39 59 l33 31 -51 18 c-27 9
-59 26 -70 37 -23 22 -37 82 -38 157 0 71 -16 118 -50 155 -28 30 -29 33 -14
56 10 15 14 33 10 49 -8 29 -26 34 -26 6z m-2225 -440 c3 -5 1 -12 -5 -16 -15
-9 -2 -25 21 -25 26 0 24 -15 -7 -39 -34 -27 -48 -27 -41 1 3 12 2 29 -3 39
-17 32 16 70 35 40z m-51 -472 c4 -24 2 -35 -11 -45 -26 -20 -30 -17 -36 19
-4 22 0 36 11 45 24 18 29 15 36 -19z m-3151 -159 c-4 -16 -8 -18 -19 -9 -16
13 -10 29 11 29 8 0 11 -7 8 -20z m5142 -8542 c7 -38 5 -44 -19 -65 -30 -25
-56 -30 -56 -10 0 6 -3 28 -6 49 -6 32 -3 38 22 52 44 23 52 20 59 -26z"/>
<path d="M5480 11584 c0 -16 -11 -47 -25 -69 -14 -23 -25 -56 -25 -77 0 -30
-3 -35 -18 -31 -13 3 -22 -6 -34 -31 l-17 -34 87 -6 c48 -4 130 -11 183 -17
l95 -10 79 44 79 44 3 62 c2 55 0 65 -22 87 -13 13 -30 24 -38 24 -7 0 -60
-16 -117 -35 l-104 -35 -36 33 c-19 18 -47 43 -62 56 l-28 24 0 -29z"/>
<path d="M7615 11537 c-53 -76 -200 -227 -222 -227 -7 0 -13 -10 -13 -22 0
-22 0 -21 28 4 15 14 54 41 88 61 58 35 140 112 161 153 15 27 27 104 16 104
-4 -1 -30 -33 -58 -73z"/>
<path d="M7441 10652 c-17 -22 -31 -43 -31 -46 0 -3 23 -6 50 -6 58 0 63 -11
30 -75 -11 -21 -19 -39 -17 -40 1 -1 47 -9 102 -19 55 -10 110 -20 123 -23 20
-5 22 -1 22 31 0 36 -1 36 -41 36 -40 0 -41 1 -34 28 3 15 20 48 36 75 16 26
29 50 29 52 0 3 -13 -1 -30 -10 -30 -15 -30 -15 -30 10 0 22 -4 25 -35 25 -25
0 -44 -8 -61 -25 -14 -14 -30 -25 -36 -25 -9 0 -9 3 0 12 16 16 15 28 -3 28
-9 0 -15 -10 -16 -22 -1 -21 -2 -21 -6 -3 -9 37 -20 36 -52 -3z"/>
<path d="M3680 10436 c0 -14 5 -28 10 -31 6 -4 10 7 10 24 0 17 -4 31 -10 31
-5 0 -10 -11 -10 -24z"/>
<path d="M10180 10409 c0 -18 2 -19 15 -9 8 7 15 16 15 21 0 5 -7 9 -15 9 -9
0 -15 -9 -15 -21z"/>
<path d="M8513 9490 c-21 -9 -43 -38 -43 -58 0 -14 70 3 88 22 13 12 13 18 2
30 -14 18 -16 18 -47 6z"/>
<path d="M10810 8757 c0 -43 3 -49 33 -67 49 -30 52 -25 17 38 -45 80 -50 83
-50 29z"/>
<path d="M657 8238 c-4 -31 -2 -46 7 -37 10 11 17 69 8 69 -5 0 -12 -15 -15
-32z"/>
<path d="M621 8140 c-35 -76 -23 -145 16 -92 30 41 35 65 19 103 l-15 34 -20
-45z"/>
<path d="M710 7964 c0 -14 3 -14 15 -4 8 7 15 14 15 16 0 2 -7 4 -15 4 -8 0
-15 -7 -15 -16z"/>
<path d="M11800 7549 c0 -18 2 -19 15 -5 8 8 15 17 15 20 0 3 -7 6 -15 6 -9 0
-15 -9 -15 -21z"/>
<path d="M11950 7510 c8 -5 24 -10 35 -10 17 0 17 2 5 10 -8 5 -24 10 -35 10
-17 0 -17 -2 -5 -10z"/>
<path d="M12080 6964 c0 -14 3 -14 15 -4 8 7 15 14 15 16 0 2 -7 4 -15 4 -8 0
-15 -7 -15 -16z"/>
<path d="M30 6555 c0 -98 13 -126 25 -54 8 48 -2 149 -16 149 -5 0 -9 -43 -9
-95z"/>
<path d="M5950 4415 c0 -8 3 -15 6 -15 3 0 12 7 20 15 14 13 13 15 -5 15 -12
0 -21 -6 -21 -15z"/>
<path d="M6360 4285 c0 -8 4 -15 9 -15 5 0 14 7 21 15 10 13 9 15 -9 15 -12 0
-21 -6 -21 -15z"/>
<path d="M1060 4220 c0 -5 11 -10 25 -10 14 0 25 5 25 10 0 6 -11 10 -25 10
-14 0 -25 -4 -25 -10z"/>
<path d="M6610 3845 c-13 -14 -19 -25 -13 -25 12 0 48 38 41 45 -2 3 -15 -6
-28 -20z"/>
<path d="M3463 3745 c-9 -25 2 -27 22 -5 17 18 17 20 1 20 -9 0 -19 -7 -23
-15z"/>
<path d="M3383 3723 c-13 -5 -19 -33 -7 -33 3 0 12 6 20 14 23 23 17 32 -13
19z"/>
<path d="M7050 3399 c0 -8 7 -24 15 -35 18 -24 19 -7 0 26 -9 16 -14 19 -15 9z"/>
<path d="M8998 1553 c-26 -4 -26 -6 -33 -98 -4 -51 -6 -98 -3 -105 2 -7 20 1
45 19 48 35 65 80 56 147 -6 46 -6 46 -65 37z"/>
<path d="M9740 1454 c0 -14 3 -14 15 -4 8 7 15 14 15 16 0 2 -7 4 -15 4 -8 0
-15 -7 -15 -16z"/>
<path d="M9904 1448 c-7 -12 34 -53 44 -43 7 6 -19 55 -29 55 -4 0 -11 -5 -15
-12z"/>
<path d="M10090 1331 c0 -5 -8 -7 -18 -4 -13 3 -27 -7 -45 -31 l-27 -35 20
-50 c15 -39 17 -51 7 -51 -8 0 -24 -11 -36 -24 -21 -22 -22 -25 -5 -34 12 -7
25 -6 41 1 13 5 26 7 31 2 4 -4 3 -9 -3 -12 -36 -13 -38 -20 -25 -67 7 -26 16
-48 19 -51 4 -2 35 3 70 12 49 13 61 19 56 32 -13 35 -17 138 -6 159 10 19 6
29 -30 77 -40 53 -41 56 -23 70 18 14 18 14 -3 15 -13 0 -23 -4 -23 -9z"/>
<path d="M9149 1185 c-38 -81 -59 -157 -59 -215 0 -55 28 -164 63 -246 l26
-60 -16 -116 -15 -115 53 -137 c36 -92 58 -135 66 -132 10 4 13 -8 13 -44 l0
-50 38 0 c22 0 66 -14 109 -35 40 -19 76 -35 80 -35 5 0 17 16 27 35 19 34 19
34 49 18 29 -15 32 -14 49 7 10 12 18 28 18 35 0 7 10 15 21 18 18 5 21 11 16
36 -4 17 -2 31 2 31 5 0 17 3 26 6 15 6 16 0 13 -42 l-3 -49 45 -11 c26 -7 49
-8 55 -3 5 5 9 45 10 89 0 69 2 80 18 80 23 0 57 35 57 60 0 14 -5 18 -16 13
-13 -5 -15 -2 -9 18 12 39 32 74 51 90 16 13 17 12 10 -6 -25 -61 -12 -74 29
-29 15 16 26 43 30 77 4 29 20 110 36 182 30 132 36 201 24 267 l-7 37 -39
-15 c-37 -15 -40 -15 -75 7 l-37 23 -31 -36 c-30 -34 -32 -35 -61 -22 -37 16
-92 17 -150 3 -25 -6 -61 -8 -80 -5 -39 8 -195 108 -239 155 -23 24 -38 31
-68 31 -38 0 -38 0 -38 41 0 37 -2 40 -22 33 -22 -6 -21 -5 5 29 15 20 27 38
27 41 0 3 -16 6 -36 6 -33 0 -36 -3 -65 -65z"/>
</g>
</svg>
